FantasqueSansMono-Regular.sfdir
StartChar: exclam
Encoding: 33 33 68
Width: 517
VWidth: 0
Flags: HW
HStem: 0 132<189 312> 634 10G<203 299>
VStem: 189 122<0 132> 203 97<256 644> 210 81<210 599>
LayerCount: 2
Fore
SplineSet
299 644 m 1xd0
 292 210 l 1
 210 210 l 1xc8
 203 644 l 1
 299 644 l 1xd0
189 132 m 1xe0
 312 132 l 1
 312 0 l 1
 189 0 l 1
 189 132 l 1xe0
EndSplineSet
EndChar
StartChar: quotedbl
Encoding: 34 34 92
Width: 517
VWidth: -12
Flags: HW
HStem: 393 322
VStem: 114 90<505 715> 295 90<505 715>
LayerCount: 2
Fore
SplineSet
295 715 m 1
 386 715 l 1
 386 577 382 491 365 393 c 1
 302 401 l 1
 307 428 310 470 310 503 c 0
 310 545 305 580 295 614 c 1
 295 715 l 1
114 715 m 1
 205 715 l 1
 205 577 201 491 184 393 c 1
 121 401 l 1
 126 428 128 470 128 503 c 0
 128 545 124 580 114 614 c 1
 114 715 l 1
EndSplineSet
EndChar
StartChar: numbersign
Encoding: 35 35 93
Width: 517
VWidth: 2
Flags: HW
HStem: -9 10G<84 167 249 331> 188 77<42 102 191 269 353 440> 388 78<45 125 212 292 376 442> 641 10G<192 206 320 404>
VStem: 147 79<470 650>
LayerCount: 2
Fore
SplineSet
204 388 m 1
 201 349 195 304 191 264 c 1
 211 265 226 265 243 265 c 2
 279 265 l 1
 284 306 288 352 292 390 c 1
 257 390 237 388 204 388 c 1
167 -9 m 1
 84 -9 l 1
 87 46 93 101 102 183 c 1
 76 183 55 178 41 174 c 1
 17 246 l 1
 44 256 79 259 111 261 c 1
 119 300 121 347 125 386 c 1
 118 386 l 1
 86 384 61 381 44 375 c 1
 19 447 l 1
 51 459 95 461 136 463 c 1
 147 553 143 582 147 650 c 1
 161 650 183 650 202 650 c 0
 211 650 219 650 226 650 c 1
 223 591 219 536 212 466 c 1
 301 466 l 1
 310 546 316 589 325 647 c 1
 404 646 l 1
 392 587 385 544 376 467 c 1
 442 467 l 1
 442 388 l 1
 428 388 412 390 367 390 c 1
 363 351 358 308 353 266 c 1
 440 266 l 1
 440 187 l 1
 427 187 403 188 347 188 c 1
 336 92 333 48 329 -11 c 1
 249 -10 l 1
 254 45 259 102 269 188 c 1
 257 188 l 2
 231 188 206 187 182 186 c 1
 175 113 167 -9 167 -9 c 1
EndSplineSet
EndChar
StartChar: dollar
Encoding: 36 36 94
Width: 517
VWidth: 0
Flags: HW
HStem: 26 75<274 349> 318 78<155 211> 547 75<135 229 313 351>
VStem: 35 78<138 214 432 526> 385 78<135 256>
LayerCount: 2
Fore
SplineSet
121 346 m 1
 77 367 35 412 35 483 c 0
 35 580 126 623 229 623 c 0
 230 623 233 623 234 623 c 1
 238 737 l 1
 324 730 l 1
 313 617 l 1
 376 607 442 568 468 511 c 1
 400 473 l 1
 384 516 343 534 307 541 c 1
 295 378 l 1
 317 373 340 367 361 357 c 1
 414 332 463 283 463 198 c 0
 463 72 367 29 269 26 c 1
 263 -86 l 1
 175 -79 l 1
 189 32 l 1
 83 52 29 112 29 214 c 1
 106 214 l 1
 106 148 141 119 195 106 c 1
 211 318 l 1
 181 325 150 333 121 346 c 1
229 547 m 1
 165 547 113 532 113 485 c 0
 113 445 136 427 163 414 c 0
 180 406 198 400 217 396 c 1
 229 547 l 1
274 101 m 1
 344 105 385 131 385 194 c 0
 385 246 357 271 318 288 c 0
 309 292 299 295 289 298 c 1
 274 101 l 1
EndSplineSet
EndChar
StartChar: percent
Encoding: 37 37 156
Width: 517
VWidth: 0
Flags: HW
HStem: -2 73<317 400> 177 73<317 400> 377 73<101 183> 556 73<101 183> 637 10G<373 448>
VStem: 16 73<462 545> 195 73<462 545> 232 73<83 165> 411 73<83 165>
LayerCount: 2
Fore
SplineSet
18 19 m 1xfc80
 119 197 311 477 435 646 c 1
 499 600 l 1
 376 434 192 170 91 -21 c 1
 18 19 l 1xfc80
232 124 m 0xfd80
 232 193 289 250 358 250 c 0
 427 250 484 193 484 124 c 0
 484 55 427 -2 358 -2 c 0
 289 -2 232 55 232 124 c 0xfd80
306 124 m 0
 306 95 329 71 358 71 c 0
 387 71 411 95 411 124 c 0
 411 153 387 177 358 177 c 0
 329 177 306 153 306 124 c 0
16 503 m 0
 16 572 73 629 142 629 c 0
 211 629 268 572 268 503 c 0xfe80
 268 434 211 377 142 377 c 0
 73 377 16 434 16 503 c 0
89 503 m 0
 89 474 113 451 142 451 c 0
 171 451 195 474 195 503 c 0
 195 532 171 556 142 556 c 0
 113 556 89 532 89 503 c 0
EndSplineSet
EndChar
StartChar: ampersand
Encoding: 38 38 168
Width: 517
VWidth: 0
Flags: HW
HStem: -11 76<145 280> 583 75<164 258>
VStem: 23 78<112 258> 64 77<450 562> 270 77<475 571> 371 73<196 316>
LayerCount: 2
Fore
SplineSet
320 120 m 1xec
 268 189 220 254 171 316 c 1
 133 282 101 240 101 184 c 0
 101 111 151 65 207 65 c 0
 256 65 295 91 320 120 c 1xec
270 522 m 0
 270 565 245 583 208 583 c 0
 175 583 142 548 142 510 c 0xdc
 142 475 165 445 187 419 c 1
 223 444 241 464 252 479 c 0
 265 496 270 508 270 522 c 0
481 31 m 1
 421 -16 l 1
 414 -6 391 23 366 57 c 1
 322 9 268 -11 205 -11 c 0
 103 -11 23 63 23 179 c 0xec
 23 266 68 332 124 376 c 1
 101 404 64 449 64 506 c 0
 64 589 129 658 208 658 c 0
 279 658 347 614 347 530 c 0
 347 451 288 404 231 362 c 1
 273 307 316 252 359 194 c 1
 370 228 371 263 371 316 c 1
 444 316 l 1
 444 234 434 165 409 125 c 1
 429 100 470 46 481 31 c 1
EndSplineSet
EndChar
StartChar: quotesingle
Encoding: 39 39 70
Width: 520
VWidth: -12
Flags: HW
HStem: 393 322
VStem: 183 103<505 715>
LayerCount: 2
Fore
SplineSet
183 715 m 1
 286 715 l 1
 286 577 282 491 265 393 c 1
 189 401 l 1
 194 428 197 470 197 503 c 0
 197 545 193 580 183 614 c 1
 183 715 l 1
EndSplineSet
EndChar
StartChar: parenleft
Encoding: 40 40 98
Width: 517
VWidth: 32
Flags: HW
HStem: -128 81<349 436> 647 77<337 436>
VStem: 121 78<150 463>
LayerCount: 2
Fore
SplineSet
436 647 m 1
 435 647 433 647 432 647 c 0
 266 647 199 485 199 299 c 0
 199 113 291 -47 436 -47 c 1
 436 -128 l 1
 260 -127 121 27 121 299 c 0
 121 559 226 719 436 725 c 1
 436 647 l 1
EndSplineSet
EndChar
StartChar: parenright
Encoding: 41 41 99
Width: 520
VWidth: 32
Flags: HW
HStem: -128 81<72 159> 647 77<71 170>
VStem: 308 78<150 463>
LayerCount: 2
Fore
SplineSet
71 647 m 1
 71 725 l 1
 281 719 386 559 386 299 c 0
 386 27 248 -127 72 -128 c 1
 72 -47 l 1
 217 -47 308 113 308 299 c 0
 308 485 242 647 76 647 c 0
 75 647 72 647 71 647 c 1
EndSplineSet
EndChar
StartChar: asterisk
Encoding: 42 42 191
Width: 517
VWidth: 0
Flags: HW
VStem: 212 80<336 543>
LayerCount: 2
Fore
SplineSet
212 336 m 1
 210 543 l 1
 292 544 l 1
 292 335 l 1
 451 407 l 1
 487 339 l 1
 310 265 l 1
 442 108 l 1
 381 54 l 1
 255 233 l 1
 135 54 l 1
 71 105 l 1
 196 265 l 1
 23 334 l 1
 56 404 l 1
 212 336 l 1
EndSplineSet
EndChar
StartChar: plus
Encoding: 43 43 101
Width: 517
VWidth: 2
Flags: HW
HStem: 217 76<30 211 287 475>
VStem: 211 76<25 217 293 469>
LayerCount: 2
Fore
SplineSet
211 469 m 1
 287 469 l 1
 287 293 l 1
 475 293 l 1
 475 217 l 1
 287 217 l 1
 287 25 l 1
 211 25 l 1
 211 217 l 1
 30 217 l 1
 30 293 l 1
 211 293 l 1
 211 469 l 1
EndSplineSet
EndChar
StartChar: comma
Encoding: 44 44 54
Width: 520
VWidth: 12
Flags: HW
HStem: -192 326
VStem: 196 126<2 134> 239 83<-80 2>
LayerCount: 2
Fore
SplineSet
196 134 m 1xc0
 318 134 l 1
 322 5 l 1
 322 4 l 2xc0
 322 -92 281 -155 199 -192 c 1
 169 -124 l 1
 214 -99 239 -65 239 2 c 1xa0
 196 2 l 1
 196 134 l 1xc0
EndSplineSet
EndChar
StartChar: hyphen
Encoding: 45 45 100
Width: 517
VWidth: 2
Flags: HW
HStem: 217 76<74 458>
LayerCount: 2
Fore
SplineSet
74 293 m 1
 458 293 l 1
 458 217 l 1
 74 217 l 1
 74 293 l 1
EndSplineSet
EndChar
StartChar: period
Encoding: 46 46 53
Width: 520
VWidth: 12
Flags: HW
HStem: 0 131<194 316>
VStem: 194 123<0 131>
LayerCount: 2
Fore
SplineSet
194 131 m 1
 316 131 l 1
 316 0 l 1
 194 0 l 1
 194 131 l 1
EndSplineSet
EndChar
StartChar: slash
Encoding: 47 47 104
Width: 517
VWidth: 29
Flags: HW
LayerCount: 2
Fore
SplineSet
49 -39 m 1
 52 -33 65 -5 74 16 c 1
 121 126 308 562 361 702 c 1
 433 674 l 1
 366 502 180 69 121 -69 c 1
 49 -39 l 1
EndSplineSet
EndChar
StartChar: zero
Encoding: 48 48 52
Width: 520
VWidth: 0
Flags: HW
HStem: -8 75<189 294> 564 75<188 290>
VStem: 55 76<223 478> 348 76<140 399>
LayerCount: 2
Fore
SplineSet
137 222 m 1
 327 465 l 1
 312 514 294 564 240 564 c 0
 143 564 131 396 131 292 c 0
 131 268 135 234 137 222 c 1
345 399 m 1
 153 155 l 1
 166 109 187 67 241 67 c 0
 342 67 348 225 348 332 c 0
 348 356 347 379 345 399 c 1
239 639 m 0
 387 639 423 468 423 322 c 0
 423 175 396 -8 241 -8 c 0
 95 -8 55 153 55 301 c 0
 55 449 91 639 239 639 c 0
EndSplineSet
EndChar
StartChar: one
Encoding: 49 49 105
Width: 517
VWidth: 0
Flags: HW
HStem: -4 10G<259 339> 626 10G<240 339>
VStem: 259 80<-4 515>
LayerCount: 2
Fore
SplineSet
242 636 m 1
 339 630 l 1
 339 -4 l 1
 259 -4 l 1
 258 515 l 1
 225 473 162 425 102 381 c 1
 53 455 l 1
 202 543 237 629 242 636 c 1
EndSplineSet
EndChar
StartChar: two
Encoding: 50 50 106
Width: 520
VWidth: 0
Flags: HW
HStem: 1 75<144 430> 562 76<175 309>
VStem: 63 77<419 524> 343 78<389 526>
LayerCount: 2
Fore
SplineSet
147 418 m 1
 74 401 l 1
 70 415 65 438 64 456 c 0
 64 460 63 464 63 468 c 0
 63 576 144 638 241 638 c 0
 358 638 420 580 420 453 c 0
 420 391 382 336 343 294 c 1
 301 252 243 211 193 162 c 0
 158 128 145 94 144 76 c 1
 430 77 l 1
 430 1 l 1
 59 1 l 1
 59 16 58 31 58 47 c 0
 58 60 59 73 61 87 c 0
 70 134 92 176 145 225 c 0
 197 273 246 305 284 342 c 1
 322 378 343 422 343 452 c 0
 343 509 316 562 245 562 c 0
 182 562 141 527 141 449 c 0
 141 439 145 423 147 418 c 1
EndSplineSet
EndChar
StartChar: three
Encoding: 51 51 107
Width: 517
VWidth: 0
Flags: HW
HStem: -11 76<153 305> 325 77<166 272> 562 75<164 294>
VStem: 38 77<102 164> 314 77<439 541> 352 78<111 263>
LayerCount: 2
Fore
SplineSet
38 164 m 1xf4
 115 164 l 1
 115 107 156 65 228 65 c 0
 305 65 352 111 352 183 c 0xf4
 352 237 335 274 288 300 c 0
 244 325 205 325 166 325 c 1
 166 402 l 1
 174 402 l 2
 193 402 217 403 252 415 c 1
 293 430 314 453 314 502 c 0
 314 540 272 562 223 562 c 0
 161 562 133 511 124 493 c 1
 55 532 l 1
 57 539 99 636 218 636 c 2
 224 636 l 2
 311 636 391 597 391 504 c 0xf8
 391 442 366 390 322 370 c 1
 401 332 430 267 430 184 c 0
 430 142 416 88 383 49 c 0
 351 11 306 -11 228 -11 c 0
 110 -11 38 64 38 164 c 1xf4
EndSplineSet
EndChar
StartChar: four
Encoding: 52 52 108
Width: 520
VWidth: 0
Flags: HW
HStem: -1 10G<295 372> 202 77<140 295 372 434> 628 10G<287 372>
VStem: 295 76<-1 202 278 483 594 638>
LayerCount: 2
Fore
SplineSet
295 278 m 1
 295 483 l 1
 259 420 185 325 140 278 c 1
 295 278 l 1
38 265 m 1
 55 287 281 558 292 638 c 1
 372 638 l 1
 372 278 l 1
 434 278 l 1
 434 203 l 1
 372 203 l 1
 372 -1 l 1
 295 -1 l 1
 295 202 l 1
 67 202 l 1
 38 265 l 1
EndSplineSet
EndChar
StartChar: five
Encoding: 53 53 109
Width: 520
VWidth: 0
Flags: HW
HStem: -1 76<167 307> 357 77<163 311> 553 76<155 378>
VStem: 358 77<129 309>
LayerCount: 2
Fore
SplineSet
237 357 m 0
 173 357 133 312 125 304 c 1
 63 331 l 1
 86 629 l 1
 378 628 l 1
 378 553 l 1
 155 553 l 1
 144 408 l 1
 167 422 197 434 235 434 c 0
 263 434 297 429 330 413 c 1
 384 384 436 318 436 220 c 0
 436 74 347 0 230 -1 c 1
 229 -1 l 2
 144 -1 86 56 52 113 c 1
 117 156 l 1
 142 114 176 75 231 75 c 0
 313 75 358 127 358 219 c 0
 358 291 333 326 295 344 c 0
 274 354 255 357 237 357 c 0
EndSplineSet
EndChar
StartChar: six
Encoding: 54 54 110
Width: 520
VWidth: 0
Flags: HW
HStem: -1 75<177 315> 302 76<178 317> 565 75<287 367>
VStem: 46 82<127 331> 360 78<116 259>
LayerCount: 2
Fore
SplineSet
377 565 m 1
 271 555 187 502 155 423 c 0
 143 393 137 362 133 333 c 1
 159 355 182 378 255 378 c 0
 363 378 438 299 438 186 c 0
 438 58 353 -1 238 -1 c 0
 111 -1 46 104 46 249 c 0
 46 307 54 381 83 453 c 0
 125 559 229 625 366 640 c 1
 377 565 l 1
128 215 m 1
 128 133 174 73 238 73 c 0
 308 73 360 111 360 186 c 0
 360 252 319 302 251 302 c 0
 186 302 136 257 128 215 c 1
EndSplineSet
EndChar
StartChar: seven
Encoding: 55 55 111
Width: 517
VWidth: 0
Flags: HW
HStem: 0 10G<153 233> 500 10G<79 104> 552 76<110 384>
VStem: 153 81<0 149>
LayerCount: 2
Fore
SplineSet
74 631 m 1
 115 631 167 628 205 628 c 0
 279 628 375 628 445 628 c 2
 465 628 l 1
 488 588 l 1
 347 326 233 222 233 0 c 1
 153 0 l 1
 153 199 251 348 384 553 c 1
 359 552 323 552 288 552 c 0
 265 552 243 552 225 552 c 0
 194 552 152 555 121 556 c 1
 112 538 107 521 101 500 c 1
 35 529 l 1
 44 558 61 594 74 631 c 1
EndSplineSet
EndChar
StartChar: eight
Encoding: 56 56 112
Width: 517
VWidth: 0
Flags: HW
HStem: -4 76<156 320> 555 77<170 304>
VStem: 32 78<114 246> 70 77<439 531> 327 77<439 531> 366 78<114 246>
LayerCount: 2
Fore
SplineSet
238 72 m 0xe4
 319 72 366 115 366 180 c 0
 366 254 302 292 238 321 c 1
 174 292 109 254 109 180 c 0
 109 115 157 72 238 72 c 0xe4
238 401 m 1
 291 414 327 451 327 483 c 0
 327 522 296 555 237 555 c 0
 178 555 146 522 146 483 c 0xd8
 146 451 185 414 238 401 c 1
237 631 m 0
 344 631 404 565 404 481 c 0xd8
 404 431 364 379 321 360 c 1
 376 334 444 274 444 185 c 0
 444 77 364 -4 238 -4 c 0
 112 -4 32 77 32 185 c 0xe4
 32 274 100 334 155 360 c 1
 112 379 70 431 70 481 c 0
 70 565 130 631 237 631 c 0
EndSplineSet
EndChar
StartChar: nine
Encoding: 57 57 113
Width: 517
VWidth: 0
Flags: HW
HStem: -1 76<151 307> 301 74<162 312> 562 73<163 304>
VStem: 32 75<123 155> 47 78<409 526> 366 76<152 347>
LayerCount: 2
Fore
SplineSet
246 562 m 0xec
 183 562 125 534 125 465 c 0
 125 402 184 375 243 375 c 0
 305 375 346 419 356 453 c 1
 350 507 303 562 246 562 c 0xec
47 466 m 0
 47 571 126 636 234 636 c 0
 420 636 442 470 442 314 c 0
 442 156 407 -1 238 -1 c 0
 118 -1 64 55 32 153 c 1
 106 175 l 1xf4
 128 104 149 75 238 75 c 0
 346 75 366 183 366 294 c 0
 366 312 365 330 365 347 c 1
 334 316 299 301 236 301 c 0
 132 301 47 356 47 466 c 0
EndSplineSet
EndChar
StartChar: less
Encoding: 60 60 102
Width: 517
VWidth: 1
Flags: HW
LayerCount: 2
Fore
SplineSet
427 37 m 1
 366 -15 l 1
 354 3 332 20 309 39 c 1
 263 78 77 212 64 221 c 1
 64 280 l 1
 141 343 295 467 360 505 c 0
 375 513 385 521 402 526 c 1
 425 449 l 1
 346 407 232 312 154 252 c 1
 224 203 382 101 427 37 c 1
EndSplineSet
EndChar
StartChar: equal
Encoding: 61 61 114
Width: 517
VWidth: 2
Flags: HW
HStem: 92 78<24 437> 320 79<23 437>
LayerCount: 2
Fore
SplineSet
24 170 m 1
 92 174 147 174 203 174 c 0
 290 174 356 170 438 170 c 1
 437 92 l 1
 352 92 281 94 192 94 c 0
 168 94 143 95 118 95 c 0
 89 95 58 94 24 92 c 1
 24 170 l 1
23 403 m 1
 71 400 112 399 148 399 c 0
 164 399 179 399 193 399 c 0
 287 399 340 402 437 402 c 1
 437 324 l 1
 343 324 288 320 192 320 c 0
 145 320 93 322 22 326 c 1
 22 352 22 378 23 403 c 1
EndSplineSet
EndChar
StartChar: greater
Encoding: 62 62 103
Width: 520
VWidth: 2
Flags: HW
LayerCount: 2
Fore
SplineSet
452 289 m 1
 452 231 l 1
 405 197 200 17 113 -15 c 1
 80 53 l 1
 165 99 293 202 362 257 c 1
 300 301 181 387 125 439 c 0
 112 451 101 461 92 476 c 1
 150 525 l 1
 202 463 410 322 452 289 c 1
EndSplineSet
EndChar
StartChar: question
Encoding: 63 63 119
Width: 517
VWidth: 0
Flags: HW
HStem: 0 132<163 285> 577 76<169 308>
VStem: 56 77<429 542> 163 122<0 132> 179 85<210 292> 336 78<428 548>
LayerCount: 2
Fore
SplineSet
247 653 m 0xec
 360 653 414 589 414 485 c 0
 414 407 356 359 318 327 c 0
 293 306 265 273 265 233 c 2
 265 210 l 1
 179 210 l 1
 179 232 l 2
 179 291 205 329 246 365 c 0
 295 408 336 431 336 483 c 0
 336 538 307 577 243 577 c 0
 182 577 134 547 133 483 c 0
 133 460 147 438 160 422 c 1
 94 378 l 1
 74 407 56 438 56 480 c 0
 56 599 146 653 247 653 c 0xec
163 132 m 1xf4
 285 132 l 1
 285 0 l 1
 163 0 l 1
 163 132 l 1xf4
EndSplineSet
EndChar
StartChar: at
Encoding: 64 64 163
Width: 520
VWidth: 2
Flags: HW
HStem: -109 71<208 351> 90 74<238 326> 338 78<242 368> 556 74<196 340>
VStem: 20 70<114 411> 146 76<178 320> 383 77<224 322 384 510>
LayerCount: 2
Back
SplineSet
316.40625 51.26953125 m 5
 308.10546875 33.69140625 292.48046875 2.9296875 249.0234375 2.9296875 c 4
 218.75 2.9296875 200.68359375 9.27734375 174.31640625 27.83203125 c 4
 134.765625 55.6640625 122.0703125 103.02734375 122.0703125 150.87890625 c 4
 122.0703125 232.421875 147.94921875 323.73046875 239.2578125 323.73046875 c 4
 258.7890625 323.73046875 273.92578125 323.2421875 285.64453125 317.87109375 c 5
 285.64453125 365.234375 284.66796875 425.78125 243.1640625 425.78125 c 6
 239.2578125 425.78125 l 6
 216.796875 425.78125 205.078125 412.109375 187.5 366.2109375 c 5
 124.0234375 398.4375 l 5
 147.94921875 467.28515625 181.15234375 500.48828125 243.1640625 500.48828125 c 4
 344.7265625 500.48828125 351.5625 385.7421875 351.5625 303.22265625 c 6
 351.5625 130.37109375 l 5
 365.234375 100.5859375 376.953125 83.49609375 385.25390625 83.49609375 c 4
 393.06640625 83.49609375 397.94921875 100.5859375 397.94921875 140.625 c 6
 397.94921875 140.625 397.94921875 284.1796875 397.94921875 344.23828125 c 7
 397.94921875 457.03125 360.83984375 604.4921875 243.65234375 604.4921875 c 4
 171.38671875 604.4921875 86.42578125 501.46484375 86.42578125 268.5546875 c 4
 86.42578125 47.36328125 140.625 -103.515625 265.13671875 -103.515625 c 4
 286.1328125 -103.515625 303.22265625 -97.16796875 318.84765625 -86.9140625 c 5
 354.00390625 -152.83203125 l 5
 331.54296875 -166.9921875 302.734375 -176.7578125 265.13671875 -176.7578125 c 4
 76.171875 -176.7578125 8.30078125 0 8.30078125 268.5546875 c 4
 8.30078125 534.66796875 117.67578125 676.7578125 244.140625 676.7578125 c 4
 433.10546875 676.7578125 469.7265625 460.44921875 469.7265625 352.05078125 c 4
 469.7265625 275.390625 469.7265625 208.49609375 469.7265625 131.8359375 c 7
 469.7265625 37.109375 434.08203125 1.46484375 395.01953125 1.46484375 c 4
 386.23046875 1.46484375 377.44140625 3.41796875 368.65234375 6.8359375 c 4
 345.703125 15.625 321.2890625 41.015625 316.40625 51.26953125 c 5
197.265625 158.203125 m 4
 197.265625 105.46875 213.8671875 80.078125 244.140625 80.078125 c 4
 278.3203125 80.078125 275.87890625 121.09375 281.25 134.765625 c 5
 281.25 238.76953125 l 5
 271.97265625 248.046875 258.30078125 249.0234375 244.140625 249.0234375 c 5
 216.796875 249.0234375 197.265625 207.51953125 197.265625 158.203125 c 4
EndSplineSet
Fore
SplineSet
223 245 m 0
 223 194 245 164 277 164 c 0
 325 164 371 232 383 261 c 1
 383 308 l 1
 360 328 321 338 290 338 c 0
 244 338 223 304 223 245 c 0
395 151 m 1
 366 120 339 90 277 90 c 0
 211 90 146 159 146 240 c 0
 146 345 207 417 286 417 c 0
 320 417 357 408 383 384 c 1
 383 461 379 556 270 556 c 0
 162 556 90 451 90 245 c 0
 90 95 166 -38 283 -38 c 0
 306 -38 329 -30 357 -12 c 1
 387 -78 l 1
 348 -99 311 -109 277 -109 c 0
 119 -109 20 71 20 242 c 0
 20 489 121 630 269 630 c 0
 415 630 460 511 460 409 c 2
 460 248 l 2
 460 243 460 239 460 234 c 0
 460 197 461 156 488 116 c 1
 415 85 l 1
 405 103 398 126 395 151 c 1
EndSplineSet
EndChar
StartChar: A
Encoding: 65 65 26
Width: 520
VWidth: 0
Flags: HW
HStem: 0 10G<21 100 415 495> 162 83<166 350> 625 10G<209 299>
VStem: 21 79<0 86> 415 80<0 93>
LayerCount: 2
Fore
SplineSet
350 247 m 1
 255 533 l 1
 164 237 l 1
 193 243 220 243 261 245 c 1
 350 247 l 1
212 635 m 1
 295 635 l 1
 480 84 l 2
 485 66 494 26 495 0 c 1
 415 0 l 1
 415 11 409 47 405 60 c 2
 371 162 l 1
 302 161 194 159 140 146 c 1
 111 59 l 2
 106 45 100 14 100 0 c 1
 21 0 l 1
 21 14 30 57 36 78 c 1
 212 635 l 1
EndSplineSet
EndChar
StartChar: B
Encoding: 66 66 27
Width: 520
VWidth: 0
Flags: HW
HStem: -2 74<123 328> 316 76<125 258> 562 73<125 259>
VStem: 47 77<75 316 392 558> 289 77<419 534> 382 78<125 267>
LayerCount: 2
Fore
SplineSet
47 402 m 0
 47 486 46 565 42 627 c 1
 82 630 105 634 160 634 c 0
 163 634 166 634 169 634 c 0
 270 634 365 594 365 489 c 0
 365 442 353 402 323 375 c 1
 399 350 460 285 460 192 c 0
 460 82 388 11 306 1 c 0
 287 -1 267 -2 248 -2 c 0
 206 -2 162 1 109 1 c 2
 43 1 l 1
 43 96 47 199 47 402 c 0
289 484 m 2
 289 539 241 562 174 562 c 2
 166 562 l 2
 147 562 140 560 125 559 c 1
 126 541 126 520 126 497 c 0
 126 464 125 428 125 392 c 1
 196 393 221 390 265 417 c 0
 278 425 289 451 289 480 c 2
 289 484 l 2
346 282 m 0
 310 312 280 317 234 317 c 0
 210 317 182 316 146 316 c 2
 125 316 l 1
 124 200 123 112 123 75 c 1
 176 75 194 71 231 71 c 0
 251 71 268 73 285 75 c 0
 337 81 382 130 382 200 c 0
 382 239 371 261 346 282 c 0
EndSplineSet
EndChar
StartChar: C
Encoding: 67 67 28
Width: 517
VWidth: 0
Flags: HW
HStem: -1 75<186 345> 562 75<202 338>
VStem: 27 78<173 443>
LayerCount: 2
Fore
SplineSet
278 562 m 0
 222 562 178 531 155 498 c 1
 133 466 105 409 105 305 c 0
 105 225 120 153 168 109 c 0
 198 81 222 74 262 74 c 2
 269 74 l 1
 341 76 382 112 407 167 c 1
 475 130 l 1
 439 54 374 -1 281 -1 c 2
 279 -1 l 2
 225 -1 161 11 115 56 c 1
 56 116 27 195 27 304 c 0
 27 428 67 505 92 542 c 0
 127 594 194 638 279 638 c 0
 347 638 410 597 453 519 c 1
 387 479 l 1
 357 538 320 562 278 562 c 0
EndSplineSet
EndChar
StartChar: D
Encoding: 68 68 29
Width: 517
VWidth: 0
Flags: HW
HStem: -5 74<112 321> 562 74<114 263>
VStem: 37 77<70 561> 396 78<149 407>
LayerCount: 2
Fore
SplineSet
151 562 m 2
 136 562 l 2
 128 562 122 563 114 562 c 1
 114 550 115 535 115 520 c 0
 115 490 114 456 114 423 c 0
 114 277 112 117 112 70 c 1
 155 69 178 69 207 69 c 0
 290 69 350 82 382 169 c 0
 390 191 396 234 396 260 c 0
 396 338 378 420 346 466 c 0
 303 528 259 562 151 562 c 2
34 61 m 1
 34 87 37 277 37 431 c 2
 37 467 l 2
 37 529 35 588 31 630 c 1
 71 634 93 637 141 637 c 0
 273 637 349 597 409 510 c 1
 450 449 473 363 473 277 c 0
 473 244 469 212 463 180 c 0
 440 65 361 7 273 -1 c 0
 246 -3 221 -5 194 -5 c 0
 153 -5 89 -1 33 -1 c 1
 33 15 33 14 34 61 c 1
EndSplineSet
EndChar
StartChar: F
Encoding: 70 70 31
Width: 517
VWidth: 0
Flags: HW
HStem: -0 10G<57 135> 326 73<133 346> 559 75<133 441>
VStem: 57 76<1 325 398 558>
LayerCount: 2
Fore
SplineSet
135 -0 m 1
 57 1 l 1
 57 634 l 1
 391 634 l 1
 429 633 452 625 469 617 c 1
 441 545 l 1
 428 552 418 559 370 559 c 1
 336 559 l 2
 285 559 222 558 133 558 c 1
 133 398 l 1
 192 398 224 399 284 399 c 0
 327 399 356 393 356 393 c 2
 365 390 l 1
 347 319 l 1
 329 323 304 326 282 326 c 0
 230 326 186 326 133 325 c 1
 133 266 135 45 135 -0 c 1
EndSplineSet
EndChar
StartChar: G
Encoding: 71 71 32
Width: 520
VWidth: 0
Flags: HW
HStem: -4 76<175 349> 286 73<214 403> 562 74<175 345>
VStem: 10 79<171 455> 403 81<138 287>
LayerCount: 2
Fore
SplineSet
420 358 m 0
 442 358 463 359 484 361 c 1
 484 295 l 2
 484 83 424 23 337 1 c 1
 315 -4 285 -4 264 -4 c 0
 86 -4 10 137 10 307 c 0
 10 423 36 517 100 579 c 1
 149 622 204 636 260 636 c 2
 270 636 l 1
 374 634 440 581 477 501 c 1
 407 467 l 1
 382 523 341 562 265 562 c 0
 224 562 194 559 156 526 c 0
 102 480 89 385 89 301 c 0
 89 175 127 72 269 72 c 0
 283 72 296 73 309 76 c 0
 369 90 403 129 403 287 c 1
 390 286 379 286 368 286 c 0
 353 286 338 286 324 286 c 0
 289 286 256 284 212 268 c 1
 192 338 l 1
 239 356 290 359 339 359 c 0
 366 359 394 358 420 358 c 0
EndSplineSet
EndChar
StartChar: I
Encoding: 73 73 50
Width: 517
VWidth: 0
Flags: HW
HStem: 2 72<76 206 284 415> 559 75<77 206 284 415>
VStem: 206 78<74 562>
LayerCount: 2
Fore
SplineSet
74 634 m 1
 150 636 190 636 237 636 c 0
 288 636 335 635 415 634 c 1
 415 560 l 1
 355 560 331 562 284 562 c 1
 284 74 l 1
 306 74 319 75 344 75 c 0
 366 75 390 74 415 73 c 1
 415 -0 l 1
 373 2 343 2 312 2 c 0
 289 2 265 2 236 2 c 0
 200 2 152 -1 76 -1 c 1
 76 71 l 1
 118 73 141 74 169 74 c 2
 206 74 l 1
 206 562 l 1
 174 562 129 562 77 559 c 1
 74 634 l 1
EndSplineSet
EndChar
StartChar: J
Encoding: 74 74 51
Width: 517
VWidth: 0
Flags: HW
HStem: -4 73<140 262> 560 74<146 297 375 466>
VStem: 20 78<117 208> 309 77<131 555>
LayerCount: 2
Fore
SplineSet
202 -4 m 0
 68 -4 21 103 20 208 c 1
 98 208 l 1
 101 135 126 69 201 69 c 0
 292 69 309 160 309 322 c 0
 309 368 301 492 295 559 c 1
 271 559 233 560 215 560 c 1
 164 559 158 554 145 551 c 1
 126 623 l 1
 141 626 156 633 214 634 c 1
 285 634 391 633 467 633 c 1
 466 559 l 1
 443 559 399 559 375 559 c 1
 383 472 386 373 386 313 c 0
 386 140 363 -4 202 -4 c 0
EndSplineSet
EndChar
StartChar: L
Encoding: 76 76 35
Width: 520
VWidth: 0
Flags: HW
HStem: -1 75<147 460> 624 10G<69 147>
VStem: 69 79<74 634>
LayerCount: 2
Fore
SplineSet
69 -1 m 1
 69 634 l 1
 147 634 l 1
 147 74 l 1
 402 74 l 1
 431 75 440 77 461 84 c 1
 481 13 l 1
 458 5 440 -1 403 -1 c 2
 69 -1 l 1
EndSplineSet
EndChar
StartChar: O
Encoding: 79 79 38
Width: 517
VWidth: 0
Flags: HW
HStem: -6 75<162 310> 573 75<175 311>
VStem: 12 77<158 451> 389 77<171 463>
LayerCount: 2
Fore
SplineSet
246 647 m 1
 307 647 464 611 466 310 c 1
 466 305 l 2
 466 225 444 149 421 104 c 0
 384 34 321 -6 240 -6 c 0
 180 -6 119 14 79 63 c 0
 35 117 12 191 12 279 c 0
 12 447 49 521 83 567 c 0
 115 611 170 646 246 647 c 1
130 120 m 0
 154 88 187 68 240 68 c 0
 297 68 332 101 354 142 c 1
 374 173 389 254 389 306 c 1
 389 315 l 2
 389 371 380 447 354 497 c 0
 326 553 292 573 249 573 c 0
 203 573 174 559 146 522 c 0
 112 479 89 409 89 281 c 0
 89 230 103 156 130 120 c 0
EndSplineSet
EndChar
StartChar: P
Encoding: 80 80 39
Width: 520
VWidth: 0
Flags: HW
HStem: -5 10G<51 128> 225 74<128 320> 562 74<129 332>
VStem: 51 78<-4 226 299 560> 383 79<354 518>
LayerCount: 2
Fore
SplineSet
383 439 m 0
 383 541 323 559 203 562 c 1
 173 562 151 560 129 560 c 1
 129 498 l 2
 129 409 128 299 128 299 c 1
 146 299 163 299 179 299 c 0
 319 299 383 328 383 439 c 0
128 -5 m 1
 51 -4 l 1
 51 632 l 1
 109 632 127 636 192 636 c 0
 302 636 370 629 426 562 c 0
 452 530 462 486 462 442 c 0
 462 398 458 349 429 307 c 0
 381 239 320 225 203 225 c 0
 180 225 154 225 128 226 c 1
 128 98 128 71 128 -5 c 1
EndSplineSet
EndChar
StartChar: Q
Encoding: 81 81 40
Width: 520
VWidth: 0
Flags: HW
HStem: -71 72<377 475> -1 72<180 296> 148 62<191 286> 562 75<170 309>
VStem: 24 78<161 475> 382 78<168 474>
LayerCount: 2
Fore
SplineSet
434 -71 m 0xbc
 378 -71 317 -55 304 7 c 1
 284 2 265 -1 245 -1 c 0x7c
 188 -1 136 19 97 59 c 0
 48 110 24 199 24 307 c 0
 24 408 39 502 85 562 c 0
 130 621 179 637 239 637 c 0
 321 637 377 606 416 537 c 0
 458 462 460 386 460 332 c 0
 460 258 450 173 415 113 c 0
 395 81 385 63 369 45 c 1
 374 9 390 1 429 0 c 1
 434 0 l 2
 452 0 463 2 475 5 c 1
 475 -67 l 1
 464 -69 456 -71 434 -71 c 0xbc
245 210 m 0
 296 210 336 192 349 140 c 1
 376 175 382 244 382 324 c 0
 382 328 382 333 382 337 c 0
 382 388 381 445 349 500 c 0
 327 538 287 562 238 562 c 0
 150 562 102 480 102 337 c 0
 102 287 104 180 139 129 c 1
 158 194 210 210 245 210 c 0
296 82 m 1
 295 130 279 148 238 148 c 0
 206 148 179 125 179 93 c 0
 179 91 l 0
 194 75 218 70 239 70 c 0
 256 70 276 73 296 82 c 1
EndSplineSet
EndChar
StartChar: R
Encoding: 82 82 41
Width: 520
VWidth: 0
Flags: HW
HStem: -0 0G<44 121 440 458> 277 74<121 229> 562 75<120 311>
VStem: 44 77<0 277 347 561> 377 76<365 503>
LayerCount: 2
Fore
SplineSet
318 264 m 1
 356 204 411 116 438 84 c 1
 447 76 462 60 483 55 c 1
 454 -11 l 1
 426 -7 400 12 383 33 c 1
 336 85 258 215 231 261 c 1
 191 265 158 271 121 277 c 1
 121 0 l 1
 44 0 l 1
 44 543 l 2
 44 576 44 599 42 629 c 1
 63 631 118 636 148 636 c 0
 270 636 352 629 412 556 c 0
 435 527 453 485 453 444 c 0
 453 337 404 278 318 264 c 1
377 437 m 0
 377 464 370 489 349 512 c 0
 316 550 259 562 150 562 c 0
 137 562 134 561 120 561 c 1
 121 351 l 1
 169 342 208 331 248 331 c 0
 256 331 263 332 271 333 c 0
 339 342 377 358 377 437 c 0
EndSplineSet
EndChar
StartChar: S
Encoding: 83 83 42
Width: 517
VWidth: 0
Flags: HW
HStem: -4 74<154 341> 561 75<143 327>
VStem: 21 77<124 202> 35 78<432 532> 367 78<495 523> 385 78<112 252>
LayerCount: 2
Fore
SplineSet
121 346 m 1xe4
 77 367 35 412 35 483 c 0
 35 588 126 636 229 636 c 0
 230 636 233 636 234 636 c 0
 343 635 425 597 444 496 c 1
 367 482 l 1
 348 544 307 561 232 561 c 0
 182 561 152 550 130 528 c 1
 118 516 113 502 113 485 c 0xd8
 113 445 136 427 163 414 c 0
 206 393 297 386 361 357 c 1
 414 332 463 274 463 189 c 0
 463 58 371 -4 254 -4 c 2
 245 -4 l 1
 73 0 21 93 21 202 c 1
 98 202 l 1
 98 124 139 69 248 69 c 0
 348 69 385 116 385 186 c 0
 385 238 357 271 318 288 c 0
 261 312 186 317 121 346 c 1xe4
EndSplineSet
EndChar
StartChar: T
Encoding: 84 84 43
Width: 517
VWidth: 0
Flags: HW
HStem: -4 10G<197 275> 559 76<19 197 275 444>
VStem: 197 78<-4 559>
LayerCount: 2
Fore
SplineSet
197 -4 m 1
 197 559 l 1
 100 559 56 558 19 558 c 1
 19 634 l 1
 79 634 300 634 392 634 c 0
 428 634 451 628 460 627 c 1
 444 553 l 1
 444 553 414 559 390 559 c 2
 275 559 l 1
 275 -4 l 1
 197 -4 l 1
EndSplineSet
EndChar
StartChar: U
Encoding: 85 85 44
Width: 520
VWidth: 0
Flags: HW
HStem: -5 74<162 315> 631 4G<33 111 377 456>
VStem: 30 78<135 636> 375 77<142 635>
LayerCount: 2
Fore
SplineSet
379 641 m 1
 456 635 l 1
 452 606 452 584 452 558 c 0
 452 487 453 425 453 371 c 2
 453 343 l 2
 453 230 451 121 396 58 c 0
 356 12 303 -3 240 -5 c 1
 90 -5 42 76 33 218 c 0
 31 255 30 314 30 380 c 0
 30 464 31 559 34 636 c 1
 111 636 l 1
 109 555 107 445 107 355 c 0
 107 295 109 243 111 214 c 0
 120 111 160 69 234 69 c 1
 286 71 311 83 337 110 c 1
 370 146 375 247 375 343 c 0
 375 403 373 474 373 557 c 0
 373 592 374 611 379 641 c 1
EndSplineSet
EndChar
StartChar: V
Encoding: 86 86 45
Width: 517
VWidth: 0
Flags: HW
HStem: -2 10G<196 280> 644 10G<50 103 384 437>
VStem: 202 79<-2 91>
LayerCount: 2
Fore
SplineSet
202 -2 m 1
 190 92 50 519 4 628 c 1
 78 654 l 1
 127 531 193 339 241 159 c 1
 277 312 360 526 409 647 c 1
 482 621 l 1
 434 508 289 96 280 -2 c 1
 202 -2 l 1
EndSplineSet
EndChar
StartChar: W
Encoding: 87 87 46
Width: 520
VWidth: 0
Flags: HW
HStem: 0 10G<88 164 341 416> 634 10G<31 107 393 472>
VStem: 424 77<521 628>
LayerCount: 2
Back
SplineSet
254.39453125 299.31640625 m 5
 277.34375 189.453125 342.7734375 10.7421875 346.6796875 0 c 5
 410.64453125 0 l 5
 431.640625 83.0078125 483.3984375 505.37109375 505.859375 627.9296875 c 5
 430.6640625 643.5546875 l 5
 371.826171875 329.6875 388.671875 296.875 367.1875 145.5078125 c 5
 333.0078125 257.8125 299.31640625 432.6171875 296.38671875 467.28515625 c 1029
EndSplineSet
Fore
SplineSet
162 0 m 1
 98 0 l 1
 77 83 25 505 3 628 c 1
 78 644 l 1
 137 330 121 297 142 146 c 1
 176 258 209 432 212 467 c 1
 234 467 277 467 294 473 c 1
 312 380 335 236 363 146 c 1
 379 285 362 305 424 642 c 1
 501 626 l 1
 476 503 424 87 408 0 c 1
 341 0 l 1
 341 0 270 209 254 299 c 1
 231 189 166 11 162 0 c 1
EndSplineSet
EndChar
StartChar: bracketleft
Encoding: 91 91 96
Width: 520
VWidth: 32
Flags: HW
HStem: -126 79<250 434> 643 75<250 412>
VStem: 172 78<-49 643>
LayerCount: 2
Fore
SplineSet
412 724 m 1
 428 649 l 1
 379 645 332 645 250 643 c 1
 250 -49 l 1
 297 -48 348 -47 357 -47 c 2
 364 -47 l 2
 395 -47 427 -51 434 -52 c 1
 434 -131 l 1
 422 -130 402 -126 367 -126 c 0
 338 -126 218 -129 173 -129 c 1
 173 -42 174 -2 174 86 c 0
 174 130 173 190 173 277 c 0
 173 362 172 448 172 512 c 2
 172 718 l 1
 217 718 336 721 361 721 c 1
 396 722 401 723 412 724 c 1
EndSplineSet
EndChar
StartChar: backslash
Encoding: 92 92 115
Width: 520
VWidth: 29
Flags: HW
LayerCount: 2
Fore
SplineSet
442 -39 m 1
 370 -69 l 1
 311 69 126 502 59 674 c 1
 131 702 l 1
 184 562 370 126 418 16 c 1
 426 -5 439 -33 442 -39 c 1
EndSplineSet
EndChar
StartChar: bracketright
Encoding: 93 93 97
Width: 517
VWidth: 32
Flags: HW
HStem: -126 79<76 259> 649 75<96 259>
VStem: 259 78<-49 643>
LayerCount: 2
Fore
SplineSet
97 724 m 1
 108 723 113 722 148 721 c 1
 173 721 292 718 337 718 c 1
 337 512 l 2
 337 448 336 362 336 277 c 0
 336 190 335 130 335 86 c 0
 335 -2 336 -42 336 -129 c 1
 291 -129 171 -126 142 -126 c 0
 107 -126 88 -130 76 -131 c 1
 76 -52 l 1
 83 -51 115 -47 146 -47 c 2
 152 -47 l 2
 161 -47 212 -48 259 -49 c 1
 259 643 l 1
 177 645 131 645 82 649 c 1
 97 724 l 1
EndSplineSet
EndChar
StartChar: asciicircum
Encoding: 94 94 116
Width: 520
VWidth: -4
Flags: HW
HStem: 228 310
LayerCount: 2
Fore
SplineSet
254 538 m 1
 478 288 l 1
 419 228 l 1
 255 405 l 1
 82 228 l 1
 25 281 l 1
 254 538 l 1
EndSplineSet
EndChar
StartChar: underscore
Encoding: 95 95 117
Width: 520
VWidth: 20
Flags: HW
HStem: -163 76<21 484>
LayerCount: 2
Fore
SplineSet
484 -163 m 1
 21 -163 l 1
 21 -87 l 1
 484 -87 l 1
 484 -163 l 1
EndSplineSet
EndChar
StartChar: grave
Encoding: 96 96 118
Width: 520
VWidth: -12
Flags: HW
HStem: 452 274
VStem: 105 299
LayerCount: 2
Fore
SplineSet
175 726 m 1
 211 670 358 546 404 528 c 1
 355 452 l 1
 259 512 188 568 105 658 c 1
 175 726 l 1
EndSplineSet
EndChar
StartChar: a
Encoding: 97 97 0
Width: 520
VWidth: 2
Flags: HW
HStem: -3 74<134 275> 246 70<159 336> 428 74<150 312>
VStem: 38 76<91 207> 354 77<139 226 292 385>
LayerCount: 2
Fore
SplineSet
114 152 m 0
 114 101 142 71 187 71 c 0
 290 71 341 148 354 168 c 1
 354 215 l 1
 326 232 290 246 239 246 c 0
 173 246 114 210 114 152 c 0
430 155 m 0
 430 138 431 92 437 84 c 0
 443 75 461 64 475 53 c 1
 435 -5 l 1
 410 15 380 27 371 76 c 1
 333 39 283 -3 187 -3 c 0
 104 -3 38 66 38 147 c 0
 38 184 53 227 82 257 c 0
 128 304 177 316 235 316 c 0
 297 316 328 308 354 292 c 1
 354 384 320 428 237 428 c 0
 170 428 139 414 100 344 c 1
 36 384 l 1
 83 473 149 502 236 502 c 1
 354 502 430 426 430 316 c 0
 430 155 l 0
EndSplineSet
EndChar
StartChar: b
Encoding: 98 98 1
Width: 517
VWidth: 0
Flags: HW
HStem: -3 75<177 323> 422 76<173 305> 680 10G<47 127>
VStem: 45 81<3 40 565 685> 55 77<118 384 463 683> 366 77<122 354>
LayerCount: 2
Fore
SplineSet
366 233 m 0xec
 366 371 311 422 231 422 c 0
 187 422 156 388 131 363 c 1
 131 150 l 1
 166 94 189 72 256 72 c 0
 339 72 366 133 366 233 c 0xec
442 224 m 0
 442 93 390 -3 256 -3 c 0
 201 -3 162 14 131 41 c 1xec
 131 20 128 10 126 -6 c 1
 45 3 l 1xf4
 50 35 55 78 55 119 c 0
 55 123 55 126 55 130 c 0
 55 252 54 428 54 565 c 0
 54 611 50 652 47 685 c 1
 125 689 l 1
 129 653 131 606 131 562 c 2
 131 463 l 1
 154 481 176 498 225 498 c 0
 383 498 442 388 442 224 c 0
EndSplineSet
EndChar
StartChar: c
Encoding: 99 99 2
Width: 517
VWidth: 1
Flags: HW
HStem: -3 77<176 361> 422 75<173 342>
VStem: 35 78<143 360>
LayerCount: 2
Fore
SplineSet
112 257 m 0
 112 76 213 73 267 73 c 2
 273 73 l 2
 349 73 387 105 412 147 c 1
 473 103 l 1
 457 82 411 -3 275 -3 c 0
 224 -3 165 1 118 36 c 1
 55 85 35 160 35 257 c 0
 35 436 121 497 275 497 c 0
 321 497 358 485 387 463 c 0
 417 440 432 410 443 385 c 1
 368 356 l 1
 363 376 348 422 270 422 c 0
 162 422 112 374 112 257 c 0
EndSplineSet
EndChar
StartChar: d
Encoding: 100 100 3
Width: 520
VWidth: 0
Flags: HW
HStem: -3 75<155 301> 424 76<158 293> 679 10G<339 419>
VStem: 36 77<118 372> 347 77<118 382 463 683>
LayerCount: 2
Back
SplineSet
365.72265625 233.3984375 m 4xd8
 365.72265625 371.58203125 311.03515625 422.36328125 231.4453125 422.36328125 c 4
 187.01171875 422.36328125 156.73828125 388.18359375 131.34765625 363.28125 c 5
 131.34765625 149.90234375 l 5
 166.015625 94.23828125 188.96484375 71.77734375 255.859375 71.77734375 c 4
 338.8671875 71.77734375 365.72265625 133.7890625 365.72265625 233.3984375 c 4xd8
442.3828125 224.12109375 m 4
 442.3828125 93.26171875 390.13671875 -3.41796875 255.859375 -3.41796875 c 4
 201.171875 -3.41796875 162.109375 13.671875 131.34765625 41.015625 c 5xd8
 130.859375 20.5078125 128.41796875 9.765625 125.9765625 -5.859375 c 5
 45.41015625 3.41796875 l 5xe8
 50.29296875 35.64453125 54.6875 78.125 54.6875 118.65234375 c 4
 54.6875 122.55859375 54.6875 126.46484375 54.6875 130.37109375 c 4
 54.6875 251.953125 54.19921875 428.22265625 54.19921875 564.94140625 c 4
 54.19921875 610.83984375 50.29296875 651.85546875 46.875 685.05859375 c 5
 124.51171875 689.453125 l 5
 128.90625 653.80859375 131.34765625 606.93359375 131.34765625 562.5 c 6
 131.34765625 463.37890625 l 5
 154.78515625 480.95703125 175.78125 498.046875 224.609375 498.046875 c 4
 382.32421875 498.046875 442.3828125 388.18359375 442.3828125 224.12109375 c 4
EndSplineSet
Fore
SplineSet
113 233 m 0
 113 133 139 72 222 72 c 0
 289 72 312 94 347 150 c 1
 347 363 l 1
 322 388 268 424 224 424 c 0
 144 424 113 371 113 233 c 0
423 130 m 1
 423 118 l 2
 423 77 427 35 432 3 c 1
 352 -6 l 1
 350 10 347 20 347 41 c 1
 316 14 277 -3 222 -3 c 0
 88 -3 36 93 36 224 c 0
 36 388 72 500 230 500 c 0
 279 500 323 478 346 463 c 1
 346 564 l 2
 346 610 342 652 339 685 c 1
 417 689 l 1
 421 653 424 606 424 562 c 2
 423 130 l 1
EndSplineSet
EndChar
StartChar: e
Encoding: 101 101 4
Width: 520
VWidth: 15
Flags: HW
HStem: -5 75<175 339> 208 75<115 352> 424 74<177 317>
VStem: 38 77<130 208 283 360>
LayerCount: 2
Fore
SplineSet
115 283 m 1
 178 283 304 288 373 296 c 1
 365 375 315 424 249 424 c 0
 166 424 115 358 115 283 c 1
249 499 m 0
 433 499 451 313 451 246 c 0
 451 236 450 229 450 225 c 1
 313 216 202 209 115 208 c 1
 115 133 157 70 257 70 c 0
 327 70 368 109 387 135 c 1
 447 82 l 1
 427 60 371 -5 255 -5 c 0
 109 -5 38 99 38 252 c 0
 38 392 111 499 249 499 c 0
EndSplineSet
EndChar
StartChar: f
Encoding: 102 102 5
Width: 520
VWidth: 0
Flags: HW
HStem: 0 10G<126 203> 423 75<55 125 201 397> 618 74<219 403>
VStem: 125 77<0 423 499 601>
LayerCount: 2
Fore
SplineSet
277 618 m 0
 205 618 201 571 201 518 c 2
 201 499 l 1
 234 499 297 498 333 498 c 1
 384 497 397 492 412 488 c 1
 398 417 l 1
 388 420 377 423 350 423 c 2
 201 423 l 1
 201 348 203 2 203 0 c 1
 126 0 l 1
 126 12 126 351 125 423 c 1
 55 423 l 1
 55 498 l 1
 125 498 l 1
 125 506 125 511 125 520 c 0
 125 590 138 692 273 692 c 0
 380 692 453 680 494 598 c 1
 432 561 l 1
 408 609 377 618 277 618 c 0
EndSplineSet
EndChar
StartChar: g
Encoding: 103 103 6
Width: 517
VWidth: 6
Flags: HW
HStem: -189 76<136 352> 35 75<131 378> 199 73<146 315> 427 74<160 320 406 471>
VStem: 39 77<-93 21 124 214> 46 77<295 392> 344 76<298 403> 392 77<-75 17>
LayerCount: 2
Back
SplineSet
216.796875 -108.3984375 m 0xf9
 230.95703125 -108.3984375 244.140625 -108.3984375 256.34765625 -108.3984375 c 0
 353.515625 -108.3984375 395.99609375 -75.68359375 395.99609375 -36.62109375 c 0
 395.99609375 3.90625 357.91015625 10.7421875 270.5078125 10.7421875 c 0
 244.140625 10.7421875 192.3828125 9.765625 156.73828125 9.27734375 c 1
 132.8125 0 115.72265625 -20.99609375 115.72265625 -53.22265625 c 0
 115.72265625 -101.07421875 148.92578125 -108.3984375 216.796875 -108.3984375 c 0xf9
354.00390625 351.5625 m 0xf6
 354.00390625 396.484375 316.40625 426.26953125 242.67578125 426.26953125 c 0
 160.64453125 426.26953125 123.53515625 380.859375 123.53515625 333.0078125 c 0
 123.53515625 284.66796875 172.8515625 254.39453125 235.83984375 254.39453125 c 0
 336.42578125 254.39453125 354.00390625 296.38671875 354.00390625 351.5625 c 0xf6
416.9921875 410.64453125 m 1
 425.78125 390.625 430.17578125 382.32421875 430.17578125 354.00390625 c 0xf6
 430.17578125 248.53515625 380.859375 182.12890625 233.88671875 182.12890625 c 2
 232.421875 182.12890625 l 2
 195.80078125 182.12890625 167.48046875 187.98828125 137.20703125 199.21875 c 1
 127.9296875 188.4765625 116.69921875 169.43359375 116.69921875 147.94921875 c 0
 116.69921875 95.21484375 133.30078125 84.47265625 204.58984375 84.47265625 c 0
 225.5859375 84.47265625 271.97265625 85.44921875 303.22265625 85.44921875 c 0
 382.8125 85.44921875 472.65625 62.01171875 472.65625 -36.1328125 c 0
 472.65625 -127.44140625 393.5546875 -180.17578125 214.84375 -180.17578125 c 0
 115.234375 -180.17578125 39.0625 -156.73828125 39.0625 -55.6640625 c 0xf9
 39.0625 -6.34765625 55.6640625 20.01953125 81.54296875 42.96875 c 1
 58.59375 60.05859375 40.0390625 86.42578125 40.0390625 145.5078125 c 0
 40.0390625 194.82421875 58.10546875 222.16796875 76.171875 242.1875 c 1
 58.10546875 265.13671875 46.38671875 293.45703125 46.38671875 326.66015625 c 0
 46.38671875 328.125 46.38671875 329.58984375 46.38671875 331.0546875 c 0
 46.38671875 445.80078125 118.65234375 500.48828125 242.67578125 500.48828125 c 0
 291.50390625 500.48828125 337.40234375 494.140625 374.51171875 471.19140625 c 1
 398.4375 493.65234375 414.0625 500.9765625 470.703125 500.9765625 c 1
 470.703125 421.38671875 l 1
 464.84375 422.36328125 459.47265625 422.8515625 454.58984375 422.8515625 c 0
 437.98828125 422.8515625 424.31640625 417.96875 416.9921875 410.64453125 c 1
EndSplineSet
Fore
SplineSet
116 -37 m 0xf9
 116 -99 153 -113 217 -113 c 0
 222 -113 263 -113 268 -113 c 0
 324 -113 392 -93 392 -12 c 0
 392 30 319 35 260 35 c 0
 256 35 228 35 157 34 c 1
 130 23 116 -6 116 -37 c 0xf9
232 272 m 0
 295 272 344 298 344 345 c 0
 344 408 302 427 240 427 c 0
 174 427 124 391 124 346 c 0xf6
 124 289 169 272 232 272 c 0
46 341 m 0
 46 444 120 501 240 501 c 0
 296 501 332 492 364 472 c 1
 391 497 417 502 471 502 c 1
 471 422 l 1
 465 423 455 424 450 424 c 0
 433 424 413 422 405 414 c 1
 418 391 420 370 420 347 c 0xf6
 420 255 345 199 235 199 c 0
 200 199 170 202 138 214 c 1
 129 203 117 187 117 167 c 0
 117 130 143 109 205 109 c 0
 218 109 280 110 293 110 c 0
 385 110 469 81 469 -12 c 0
 469 -138 384 -189 265 -189 c 3
 244 -189 238 -189 215 -189 c 0
 112 -189 39 -142 39 -40 c 0xf9
 39 9 55 44 82 67 c 1
 54 88 40 122 40 160 c 0
 40 204 55 234 76 257 c 1
 59 276 46 306 46 341 c 0
EndSplineSet
EndChar
StartChar: h
Encoding: 104 104 8
Width: 517
VWidth: 0
Flags: HW
HStem: 0 10G<49 128 417 443> 423 75<176 332> 675 10G<54 132>
VStem: 55 77<4 384 459 684> 361 77<64 394>
LayerCount: 2
Fore
SplineSet
361 281 m 2
 361 392 343 423 245 423 c 0
 196 423 146 387 131 357 c 1
 131 97 l 2
 131 58 128 22 126 0 c 1
 49 4 l 1
 53 39 55 62 55 100 c 0
 55 346 54 685 54 685 c 1
 132 685 l 1
 132 459 l 1
 164 479 199 498 249 498 c 0
 308 498 361 494 400 447 c 1
 435 405 438 367 438 313 c 2
 438 281 l 2
 438 201 437 164 437 109 c 0
 437 82 450 68 479 49 c 1
 436 -8 l 1
 397 14 361 40 361 102 c 2
 361 281 l 2
EndSplineSet
EndChar
StartChar: i
Encoding: 105 105 9
Width: 520
VWidth: 0
Flags: HW
HStem: -9 69<265 445> 418 76<61 185> 577 110<153 268>
VStem: 153 115<577 687> 185 76<103 418>
LayerCount: 2
Fore
SplineSet
153 687 m 1xf0
 268 687 l 1
 268 577 l 1
 153 577 l 1
 153 687 l 1xf0
EndSplineSet
Refer: 177 305 N 1 0 0 1 0 0 2
EndChar
StartChar: j
Encoding: 106 106 10
Width: 520
VWidth: 0
Flags: HW
HStem: -189 76<159 289> 422 76<183 306> 576 110<273 388>
VStem: 273 114<576 684> 306 76<-96 422>
LayerCount: 2
Fore
SplineSet
273 686 m 1xf0
 388 684 l 1
 388 574 l 1
 273 576 l 1
 273 686 l 1xf0
EndSplineSet
Refer: 332 567 N 1 0 0 1 0 0 2
EndChar
StartChar: k
Encoding: 107 107 11
Width: 520
VWidth: 0
Flags: HW
HStem: 0 1G<66 143 399 436> 426 70<244 351> 687 10G<96 132>
VStem: 66 77<0 229 298 359 430 674> 362 77<302 414>
LayerCount: 2
Fore
SplineSet
286 276 m 0
 335 276 362 321 362 364 c 0
 362 373 361 381 359 388 c 0
 354 404 339 426 308 426 c 0
 296 426 282 423 266 415 c 0
 218 392 179 370 143 346 c 1
 143 302 l 1
 184 296 216 288 240 283 c 0
 258 279 273 276 286 276 c 0
143 430 m 1
 178 454 251 496 303 496 c 0
 369 496 430 455 437 397 c 0
 438 386 439 371 439 357 c 0
 439 341 437 325 435 312 c 0
 432 295 406 246 356 222 c 1
 404 186 403 127 429 84 c 0
 441 65 454 55 470 43 c 1
 429 -9 l 1
 369 20 351 77 338 116 c 0
 314 187 205 222 144 229 c 1
 144 229 143 136 143 63 c 0
 143 39 143 16 143 0 c 1
 66 0 l 1
 66 600 l 2
 66 630 61 655 55 675 c 1
 130 697 l 1
 134 686 143 663 143 631 c 2
 143 430 l 1
EndSplineSet
Substitution2: "'ss01' Stylistic Set 1 - No loop k-1" k.noloop
EndChar
StartChar: l
Encoding: 108 108 12
Width: 520
VWidth: 0
Flags: HW
HStem: -8 69<265 445> 620 75<56 183>
VStem: 183 76<104 619>
LayerCount: 2
Fore
SplineSet
203 695 m 2
 259 695 l 1
 259 562 261 104 261 104 c 1
 263 64 285 62 330 62 c 0
 375 62 435 72 469 97 c 1
 502 42 l 1
 460 7 391 -8 330 -8 c 0
 288 -8 251 -1 230 11 c 0
 188 34 185 73 185 102 c 2
 183 619 l 1
 175 619 162 620 147 620 c 0
 119 620 84 618 54 611 c 1
 41 681 l 1
 96 694 152 695 203 695 c 2
EndSplineSet
EndChar
StartChar: m
Encoding: 109 109 13
Width: 520
VWidth: 1
Flags: HW
HStem: 0 0G<29 98 209 278 454 476> 426 75<147 208 318 384> 501 10G<50 90>
VStem: 29 69<0 377 428 491> 209 69<0 380> 388 68<69 423>
LayerCount: 2
Fore
SplineSet
374 501 m 3
 445 501 457 407 457 361 c 2
 457 105 l 2
 457 80 481 63 501 55 c 1
 472 -10 l 1
 437 -3 388 24 388 93 c 2
 388 94 l 1
 388 371 l 2
 388 373 388 375 388 377 c 0
 388 394 386 426 357 426 c 0
 334 426 308 404 278 338 c 1
 278 0 l 1
 209 0 l 1
 209 394 l 1
 209 408 208 426 186 426 c 0
 163 426 128 403 98 337 c 1
 98 0 l 1
 29 0 l 1
 28 398 l 2
 28 443 21 468 13 492 c 1
 86 511 l 1
 93 495 101 450 102 428 c 1
 124 467 166 501 202 501 c 1
 249 501 277 462 277 428 c 1
 298 467 329 501 374 501 c 3
EndSplineSet
EndChar
StartChar: n
Encoding: 110 110 15
Width: 517
VWidth: 2
Flags: HW
HStem: -0 1G<55 132 427 456> 426 73<205 346> 498 10G<75 120>
VStem: 55 77<0 380> 361 77<63 408>
LayerCount: 2
Fore
SplineSet
132 453 m 1xb8
 194 485 238 499 292 499 c 0
 351 499 438 462 438 389 c 2
 438 103 l 2
 438 71 463 60 490 45 c 1
 449 -9 l 1
 406 12 361 37 361 100 c 2
 361 374 l 2
 361 410 313 426 281 426 c 0xd8
 250 426 203 405 132 371 c 1
 132 0 l 1
 55 -0 l 1
 55 344 l 2
 55 431 51 444 39 490 c 1
 117 508 l 1
 122 496 128 477 132 453 c 1xb8
EndSplineSet
EndChar
StartChar: p
Encoding: 112 112 7
Width: 517
VWidth: 0
Flags: HW
HStem: -3 76<175 312> 419 76<184 330> 487 10G<53 134>
VStem: 62 76<-192 27 108 373> 373 77<142 373>
LayerCount: 2
Fore
SplineSet
373 257 m 0xd8
 373 357 346 419 263 419 c 0
 196 419 173 397 138 341 c 1
 138 128 l 1
 163 103 192 72 236 72 c 0
 316 72 373 119 373 257 c 0xd8
62 361 m 2
 62 365 62 369 62 373 c 0
 62 414 58 455 53 487 c 1
 133 497 l 1xb8
 135 481 138 471 138 450 c 1
 169 477 208 495 263 495 c 0
 397 495 449 398 449 267 c 0
 449 103 387 -3 229 -3 c 0
 180 -3 161 12 138 27 c 1
 138 -74 l 2
 138 -120 143 -161 146 -194 c 1
 68 -198 l 1
 64 -162 62 -115 62 -71 c 2
 62 361 l 2
EndSplineSet
EndChar
StartChar: q
Encoding: 113 113 16
Width: 517
VWidth: 0
Flags: HW
HStem: -3 76<192 329> 419 76<175 321> 487 10G<371 452>
VStem: 56 76<142 369> 367 77<-192 27 108 373> 373 78<-194 -73 451 488>
LayerCount: 2
Fore
SplineSet
132 257 m 0xd8
 132 119 189 72 269 72 c 0
 313 72 342 103 367 128 c 1
 367 341 l 1
 332 397 309 419 242 419 c 0
 159 419 132 357 132 257 c 0xd8
443 373 m 0
 443 -74 l 0xb8
 443 -120 448 -161 451 -194 c 1
 373 -198 l 1xb4
 369 -162 367 -115 367 -71 c 1
 367 27 l 1
 344 12 324 -3 275 -3 c 0
 117 -3 56 103 56 267 c 0
 56 398 108 495 242 495 c 0xd8
 297 495 336 477 367 450 c 1
 367 471 370 481 372 497 c 1
 452 487 l 1xb8
 447 455 443 414 443 373 c 0
EndSplineSet
EndChar
StartChar: r
Encoding: 114 114 17
Width: 520
VWidth: 1
Flags: HW
HStem: 0 10G<103 179> 422 78<261 375> 501 10G<96 118>
VStem: 103 76<0 337> 380 76<353 419>
LayerCount: 2
Fore
SplineSet
181 427 m 1
 226 483 277 500 353 500 c 0
 435 500 456 445 456 356 c 0
 456 355 456 354 456 353 c 1
 380 353 l 1
 378 393 384 422 339 422 c 0
 290 422 228 405 179 296 c 1
 179 0 l 1
 103 0 l 1
 103 373 l 2
 103 401 83 415 53 442 c 1
 104 511 l 1
 134 487 163 468 181 427 c 1
EndSplineSet
EndChar
StartChar: s
Encoding: 115 115 18
Width: 520
VWidth: 2
Flags: HW
HStem: -10 70<167 328> 430 72<163 330>
VStem: 58 77<94 161> 74 77<345 415> 362 76<92 188>
LayerCount: 2
Fore
SplineSet
131 278 m 0xe8
 99 295 74 328 74 382 c 0
 74 466 154 502 239 502 c 0
 299 502 385 483 425 434 c 1
 370 379 l 1
 344 409 288 430 246 430 c 0
 194 430 151 416 151 384 c 0xd8
 151 361 160 350 180 341 c 1
 312 286 438 276 438 137 c 0
 438 58 382 14 330 0 c 1
 303 -6 273 -10 245 -10 c 0
 120 -10 58 56 58 161 c 1
 134 161 l 1
 134 96 168 60 244 60 c 0
 304 60 362 86 362 140 c 0
 362 171 347 185 320 205 c 1
 282 232 182 251 131 278 c 0xe8
EndSplineSet
EndChar
StartChar: t
Encoding: 116 116 19
Width: 520
VWidth: 0
Flags: HW
HStem: -3 76<206 389> 426 71<83 97>
VStem: 98 78<102 422 497 608>
LayerCount: 2
Fore
SplineSet
175 213 m 1
 175 194 l 2
 175 129 193 79 247 74 c 0
 256 73 294 73 300 73 c 0
 332 73 363 77 375 84 c 0
 403 99 412 126 415 135 c 1
 477 108 l 1
 472 94 461 50 406 18 c 0
 378 1 343 -3 301 -3 c 0
 211 -3 152 7 117 79 c 0
 100 114 98 150 98 192 c 2
 98 213 l 1
 100 264 101 328 104 422 c 1
 97 422 l 2
 83 422 70 420 57 417 c 1
 47 488 l 1
 59 492 81 494 97 494 c 2
 104 494 l 1
 104 528 104 574 104 608 c 1
 182 608 l 1
 182 576 181 530 181 497 c 1
 240 497 l 1
 311 497 386 498 386 498 c 1
 395 498 l 1
 395 426 l 1
 240 426 l 2
 218 426 204 424 182 424 c 1
 178 324 177 262 175 213 c 1
EndSplineSet
EndChar
StartChar: u
Encoding: 117 117 20
Width: 520
VWidth: 2
Flags: HW
HStem: 1 75<157 286> 489 9G<65 128 361 438>
VStem: 56 76<88 342> 361 77<135 498>
LayerCount: 2
Fore
SplineSet
442 -5 m 1
 414 15 388 35 377 77 c 1
 336 35 289 2 216 1 c 1
 211 1 l 2
 181 1 139 1 110 21 c 0
 88 36 56 64 56 104 c 0
 55 235 57 444 44 485 c 1
 123 499 l 1
 134 454 131 301 132 122 c 1
 135 105 145 93 156 85 c 0
 163 80 188 76 208 76 c 1
 241 77 261 82 286 97 c 0
 309 111 342 125 361 168 c 1
 361 498 l 1
 438 498 l 1
 438 117 l 1
 439 92 462 68 482 52 c 1
 442 -5 l 1
EndSplineSet
EndChar
StartChar: v
Encoding: 118 118 21
Width: 517
VWidth: 2
Flags: HW
HStem: -1 10G<179 205> 502 10G<62 92>
VStem: 369 76<287 494>
LayerCount: 2
Fore
SplineSet
75 512 m 1
 109 475 119 452 132 415 c 0
 154 353 240 137 245 86 c 1
 306 156 366 298 369 399 c 0
 369 413 369 430 369 446 c 0
 369 466 369 485 368 494 c 1
 442 496 l 1
 443 488 445 429 445 401 c 0
 444 281 371 123 300 35 c 0
 272 0 231 -1 179 -1 c 1
 179 67 81 335 51 410 c 0
 47 420 25 453 12 465 c 1
 75 512 l 1
EndSplineSet
EndChar
StartChar: w
Encoding: 119 119 22
Width: 520
Flags: HW
HStem: -1 74<143 189 328 370> 498 6G<56 83 403 480>
VStem: 74 68<73 234> 231 68<129 402> 415 68<146 497>
LayerCount: 2
Fore
SplineSet
3 477 m 1
 75 514 l 1
 92 485 107 447 118 388 c 0
 140 270 140 160 143 73 c 1
 201 73 231 148 231 274 c 3
 231 315 231 345 231 402 c 1
 299 402 l 1
 299 340 299 291 299 254 c 1
 299 177 319 122 334 72 c 1
 378 72 415 151 415 333 c 0
 415 394 409 464 403 498 c 1
 479 498 l 1
 481 475 483 386 483 347 c 0
 483 108 420 0 316 0 c 0
 313 0 311 0 307 0 c 2
 290 0 l 1
 282 31 269 72 262 102 c 1
 244 63 203 0 109 -1 c 0
 108 -1 107 -1 106 -1 c 1
 104 -1 l 1
 91 -1 82 1 74 4 c 1
 72 55 67 285 41 386 c 0
 33 415 13 459 3 477 c 1
EndSplineSet
EndChar
StartChar: x
Encoding: 120 120 23
Width: 517
VWidth: 1
Flags: HW
HStem: -9 10G<79 94> 1 75<405 464> 508 10G<90 133 366 442>
VStem: 366 77<446 498>
LayerCount: 2
Fore
SplineSet
420 421 m 0xb0
 396 379 338 290 299 238 c 1
 337 188 402 87 412 81 c 0
 414 80 421 76 438 76 c 0
 447 76 456 78 464 79 c 1
 464 4 l 1
 454 3 444 1 434 1 c 0x70
 414 1 395 7 375 21 c 1
 340 44 289 127 248 185 c 1
 175 90 98 0 91 -9 c 1
 32 41 l 1
 36 46 124 158 200 250 c 1
 159 308 103 384 39 469 c 1
 103 518 l 1
 164 435 213 362 253 305 c 1
 288 347 316 394 350 454 c 0
 360 471 364 490 366 498 c 1
 443 498 l 1
 440 474 436 446 420 421 c 0xb0
EndSplineSet
EndChar
StartChar: y
Encoding: 121 121 24
Width: 517
VWidth: 6
Flags: HW
HStem: -184 75<121 204> -10 10G<27 104> 424 75<36 94>
VStem: 27 76<-93 0> 378 77<344 498>
LayerCount: 2
Fore
SplineSet
164 -109 m 0
 216 -109 242 -19 261 33 c 1
 215 193 156 348 89 409 c 0
 73 424 54 424 36 424 c 1
 36 499 l 1
 52 499 76 497 90 495 c 0
 172 483 251 299 306 140 c 1
 342 246 374 387 378 498 c 1
 455 498 l 1
 455 469 452 441 448 416 c 0
 416 244 367 83 303 -69 c 1
 277 -135 239 -184 166 -184 c 0
 81 -184 27 -132 27 0 c 1
 104 0 l 1
 104 -86 125 -109 164 -109 c 0
EndSplineSet
EndChar
StartChar: z
Encoding: 122 122 25
Width: 520
VWidth: 2
Flags: HW
HStem: -11 10G<435 448> 0 76<120 445> 420 78<60 329>
LayerCount: 2
Fore
SplineSet
47 427 m 1
 60 500 l 1
 82 498 135 498 196 498 c 0
 429 498 l 1
 441 442 l 1
 436 437 370 359 270 255 c 1
 210 194 157 141 120 76 c 1
 383 76 l 2
 410 76 435 70 465 60 c 1
 446 -11 l 1
 424 -5 416 0 384 0 c 2
 35 0 l 1
 35 10 l 2
 35 46 35 71 45 92 c 0
 82 170 146 229 213 302 c 0
 260 353 299 392 329 420 c 1
 324 420 319 420 314 420 c 0
 281 420 236 421 194 421 c 0
 133 421 75 423 47 427 c 1
EndSplineSet
EndChar
StartChar: braceleft
Encoding: 123 123 160
Width: 517
VWidth: 32
Flags: HW
HStem: -128 77<319 430> 647 77<319 430>
VStem: 220 83<-33 94 501 630> 256 76<74 211 385 521>
LayerCount: 2
Fore
SplineSet
134 259 m 1xd0
 134 337 l 1
 193 354 256 374 256 439 c 0xd0
 256 454 253 470 246 490 c 1
 234 522 220 556 220 591 c 0
 220 615 227 640 247 663 c 0
 292 716 365 722 430 725 c 1
 432 647 l 1
 361 644 302 644 302 587 c 0xe0
 302 538 332 492 332 436 c 0
 332 363 283 309 236 298 c 1
 283 287 332 233 332 160 c 0xd0
 332 104 302 58 302 9 c 0
 302 -48 361 -48 432 -51 c 1
 430 -128 l 1
 365 -125 292 -120 247 -67 c 0
 227 -44 220 -20 220 4 c 0xe0
 220 39 234 74 246 106 c 1
 253 126 256 142 256 157 c 0
 256 222 193 242 134 259 c 1xd0
EndSplineSet
EndChar
StartChar: bar
Encoding: 124 124 161
Width: 517
VWidth: 32
Flags: HW
VStem: 191 79<-95 729>
LayerCount: 2
Fore
SplineSet
190 74 m 0
 190 252 186 542 186 683 c 2
 186 729 l 1
 264 729 l 1
 264 658 l 2
 264 523 270 272 270 109 c 2
 270 36 l 2
 270 -20 269 -48 267 -97 c 1
 188 -96 l 1
 190 -66 191 -45 191 -18 c 0
 191 5 190 32 190 74 c 0
EndSplineSet
EndChar
StartChar: braceright
Encoding: 125 125 162
Width: 520
VWidth: 32
Flags: HW
HStem: -128 77<87 198> 647 77<87 198>
VStem: 185 76<74 211 385 521> 214 83<-33 94 501 630>
LayerCount: 2
Fore
SplineSet
382 259 m 1xe0
 323 242 261 222 261 157 c 0xe0
 261 142 264 126 271 106 c 1
 283 74 297 39 297 4 c 0
 297 -20 290 -44 270 -67 c 0
 225 -120 152 -125 87 -128 c 1
 84 -51 l 1
 155 -48 214 -48 214 9 c 0xd0
 214 58 185 104 185 160 c 0
 185 233 234 287 281 298 c 1
 234 309 185 363 185 436 c 0xe0
 185 492 214 538 214 587 c 0
 214 644 155 644 84 647 c 1
 87 725 l 1
 152 722 225 716 270 663 c 0
 290 640 297 615 297 591 c 0xd0
 297 556 283 522 271 490 c 1
 264 470 261 454 261 439 c 0
 261 374 323 354 382 337 c 1
 382 259 l 1xe0
EndSplineSet
EndChar
StartChar: tilde
Encoding: 126 126 120
Width: 520
VWidth: -5
Flags: HW
HStem: 206 75<297 386> 291 75<115 212>
VStem: 415 70<311 338>
LayerCount: 2
Fore
SplineSet
164 366 m 0
 240 366 302 281 346 281 c 0
 388 281 408 333 415 365 c 1
 484 335 l 1
 473 292 443 206 344 206 c 0
 263 206 214 291 159 291 c 0
 132 291 101 262 78 220 c 1
 15 265 l 1
 49 331 88 366 164 366 c 0
EndSplineSet
EndChar
StartChar: cent
Encoding: 162 162 155
Width: 520
VWidth: 2
Flags: HW
HStem: -4 143<208 284> 352 153<207 284>
VStem: 69 79<173 318> 206 79<-4 69 419 504>
LayerCount: 2
Fore
SplineSet
247 139 m 0
 248 139 l 0
 293 139 329 155 342 173 c 1
 348 181 l 1
 415 140 l 1
 409 132 l 1
 384 94 337 72 284 66 c 1
 284 -4 l 1
 206 -4 l 1
 206 68 l 1
 184 72 159 80 137 95 c 0
 86 129 69 174 69 239 c 2
 69 245 l 2
 69 305 88 345 108 368 c 0
 135 399 170 415 206 422 c 1
 206 504 l 1
 285 504 l 1
 285 423 l 1
 342 415 375 383 391 339 c 1
 314 312 l 1
 312 323 l 1
 307 349 289 352 250 352 c 0
 220 352 189 343 171 321 c 0
 162 310 148 291 148 251 c 0
 148 188 178 138 239 138 c 0
 242 138 244 139 247 139 c 0
EndSplineSet
EndChar
StartChar: sterling
Encoding: 163 163 154
Width: 520
VWidth: 0
Flags: HW
HStem: -6 74<104 149 284 409> 335 74<84 147 239 420> 585 75<227 325>
VStem: 29 74<69 130> 135 77<411 572> 180 77<164 332> 341 72<544 569> 410 76<69 112>
LayerCount: 2
Fore
SplineSet
150 91 m 1xf0
 134 106 125 124 114 131 c 1
 109 128 103 113 103 98 c 0
 103 97 103 96 103 95 c 0
 104 74 110 68 118 68 c 0
 129 68 142 81 150 91 c 1xf0
420 337 m 1
 384 333 344 333 296 333 c 2
 239 333 l 1
 248 288 257 242 257 188 c 0
 257 163 254 135 248 112 c 1
 294 82 320 67 363 67 c 0
 408 67 410 75 410 104 c 0
 410 106 410 110 410 112 c 1
 486 113 l 1
 486 93 l 1
 484 27 444 -8 375 -8 c 0
 317 -8 269 12 216 46 c 1
 193 14 150 -6 108 -6 c 0
 59 -6 29 39 29 94 c 0
 29 143 45 180 80 201 c 0
 88 205 97 207 104 207 c 0
 105 207 108 207 109 207 c 0
 138 207 163 180 179 163 c 1
 180 173 180 183 180 194 c 0xf5
 180 246 171 287 162 334 c 1
 137 335 114 335 92 335 c 2
 84 335 l 1
 84 410 l 1
 147 410 l 1
 141 445 135 477 135 509 c 0
 135 609 190 660 282 660 c 0
 354 660 398 608 413 546 c 1
 341 525 l 1
 333 555 322 584 282 585 c 0
 281 585 280 585 279 585 c 0
 222 585 212 545 212 513 c 0xfa
 212 487 220 439 225 407 c 1
 297 409 l 1
 306 409 316 409 325 409 c 0
 361 409 393 409 420 412 c 1
 420 337 l 1
EndSplineSet
EndChar
StartChar: currency
Encoding: 164 164 153
Width: 520
VWidth: 2
Flags: HW
HStem: 48 77<206 306>
VStem: 105 81<147 328> 335 80<157 335>
LayerCount: 2
Fore
SplineSet
335 255 m 0
 335 317 309 359 267 363 c 1
 260 362 l 1
 209 357 186 306 186 226 c 0
 186 159 205 125 258 125 c 0
 311 125 335 180 335 255 c 0
105 225 m 2
 105 229 l 2
 105 272 115 310 127 340 c 1
 58 415 l 1
 116 466 l 1
 173 404 l 1
 196 428 223 439 257 440 c 1
 265 440 l 2
 306 440 331 430 356 407 c 1
 411 462 l 1
 466 414 l 1
 399 340 l 1
 410 312 415 284 415 254 c 1
 414 204 407 172 390 139 c 1
 461 63 l 1
 403 11 l 1
 342 78 l 1
 318 59 288 48 256 48 c 0
 215 48 189 62 166 82 c 1
 104 21 l 1
 52 69 l 1
 117 146 l 1
 107 173 105 197 105 225 c 2
EndSplineSet
EndChar
StartChar: yen
Encoding: 165 165 150
Width: 520
VWidth: 0
Flags: HW
HStem: -3 10G<195 273> 183 80<38 197 276 450> 333 78<40 133 351 454>
VStem: 195 78<-3 183 263 323>
LayerCount: 2
Fore
SplineSet
197 183 m 1
 179 183 161 183 142 183 c 0
 109 183 75 182 38 180 c 1
 38 259 l 1
 46 259 l 1
 106 261 151 263 198 263 c 1
 198 299 l 1
 193 306 187 316 180 328 c 1
 142 328 95 332 39 335 c 1
 39 366 l 2
 39 382 39 397 40 412 c 1
 74 410 107 409 133 408 c 1
 86 491 32 592 16 626 c 1
 84 662 l 1
 101 628 177 487 223 407 c 1
 259 407 l 1
 310 488 388 630 404 668 c 1
 472 629 l 1
 449 582 413 510 362 427 c 0
 358 421 355 416 351 410 c 1
 379 411 408 411 445 411 c 2
 454 411 l 1
 454 333 l 1
 445 333 l 2
 387 333 345 331 299 330 c 1
 288 313 280 299 276 294 c 1
 276 283 276 273 276 262 c 1
 333 261 383 260 443 259 c 1
 452 259 l 1
 450 180 l 1
 441 180 l 1
 382 181 331 183 274 183 c 1
 273 129 273 79 273 62 c 2
 273 -3 l 1
 195 -3 l 1
 195 70 l 2
 195 94 196 138 197 183 c 1
EndSplineSet
EndChar
StartChar: brokenbar
Encoding: 166 166 164
Width: 517
VWidth: 32
Flags: HW
VStem: 186 78<384 729> 192 80<-95 258 378 624>
LayerCount: 2
Fore
SplineSet
270 258 m 1x40
 271 204 272 119 272 76 c 0
 272 -22 272 -32 269 -95 c 1
 190 -95 l 1
 192 -59 192 -44 192 -14 c 2
 192 58 l 2
 192 106 191 197 190 258 c 1
 270 258 l 1x40
189 378 m 1
 187 508 186 605 186 683 c 2
 186 729 l 1
 264 729 l 1
 264 667 l 2x80
 264 594 267 500 269 378 c 1
 189 378 l 1
EndSplineSet
EndChar
StartChar: section
Encoding: 167 167 159
Width: 517
VWidth: 1
Flags: HW
HStem: -157 76<194 314> 592 76<183 300>
VStem: 59 77<277 347> 80 76<451 566> 97 76<-63 -15> 320 74<528 575> 339 79<-56 56> 359 80<160 234>
LayerCount: 2
Fore
SplineSet
332 156 m 1xd0
 355 166 359 174 359 191 c 2
 359 200 l 1
 358 210 353 221 341 232 c 0
 292 277 225 313 168 353 c 1
 138 341 136 332 136 311 c 0xe1
 136 301 144 289 156 278 c 0
 205 233 275 195 332 156 c 1xd0
80 508 m 0xd0
 80 614 166 668 241 668 c 0
 325 668 392 621 394 528 c 1
 320 527 l 1xd4
 319 557 313 564 297 578 c 1
 284 588 266 592 241 592 c 1
 198 591 156 562 156 515 c 0
 156 455 178 447 240 404 c 0
 285 373 345 341 394 290 c 1
 419 266 438 233 438 198 c 0xd1
 438 147 421 120 390 97 c 1
 407 73 417 41 418 3 c 0
 418 2 418 0 418 -1 c 0
 418 -108 328 -157 252 -157 c 0
 167 -157 99 -110 97 -15 c 1
 172 -15 l 1xca
 176 -44 180 -54 196 -66 c 0
 208 -75 227 -82 251 -82 c 1
 296 -81 339 -54 339 -4 c 0
 339 5 338 15 335 27 c 0
 329 49 300 77 254 107 c 1
 207 137 148 170 99 220 c 1
 75 246 59 277 59 313 c 0xe2
 59 364 79 388 110 411 c 1
 92 436 80 474 80 508 c 0xd0
EndSplineSet
EndChar
StartChar: dieresis
Encoding: 168 168 173
Width: 520
VWidth: -13
Flags: HW
HStem: 532 110<68 183 266 381>
VStem: 68 115<532 641> 266 115<531 639>
LayerCount: 2
Fore
SplineSet
68 642 m 1
 183 641 l 1
 183 531 l 1
 68 532 l 1
 68 642 l 1
266 641 m 1
 381 639 l 1
 381 529 l 1
 266 531 l 1
 266 641 l 1
EndSplineSet
EndChar
StartChar: copyright
Encoding: 169 169 165
Width: 517
VWidth: 2
Flags: HW
HStem: 19 68<180 348> 146 67<225 319> 364 67<226 313> 492 68<182 346>
VStem: 8 69<197 382> 141 69<228 347> 450 69<195 384>
LayerCount: 2
Fore
SplineSet
77 290 m 0
 77 178 161 87 265 87 c 0
 369 87 450 178 450 290 c 0
 450 402 369 492 265 492 c 0
 161 492 77 402 77 290 c 0
8 289 m 0
 8 438 122 560 263 560 c 0
 404 560 519 438 519 289 c 0
 519 140 404 19 263 19 c 0
 122 19 8 140 8 289 c 0
269 364 m 0
 230 364 209 329 209 284 c 0
 209 253 227 212 268 212 c 1
 295 212 313 218 327 246 c 1
 387 213 l 1
 353 153 299 146 268 146 c 0
 209 146 141 182 141 283 c 0
 141 371 192 431 270 431 c 0
 305 431 359 412 380 367 c 1
 321 332 l 1
 307 355 299 364 269 364 c 0
EndSplineSet
EndChar
StartChar: ordfeminine
Encoding: 170 170 193
Width: 517
VWidth: 2
Flags: HW
HStem: 261 69<69 438> 368 69<145 276> 547 60<160 316> 649 10G<106 129> 681 69<128 303>
VStem: 69 69<444 526> 327 69<583 655>
LayerCount: 2
Fore
SplineSet
69 330 m 1
 438 330 l 1
 438 261 l 1
 69 261 l 1
 69 330 l 1
139 484 m 0
 139 456 156 438 187 438 c 0
 258 438 297 462 328 516 c 1
 311 535 282 547 231 547 c 0
 170 547 139 516 139 484 c 0
77 708 m 1
 125 738 180 750 236 750 c 1
 343 750 396 681 396 577 c 0
 397 526 l 0
 397 509 398 466 404 458 c 0
 410 449 427 433 442 424 c 1
 401 366 l 1
 378 381 361 400 344 436 c 1
 311 396 260 368 187 368 c 0
 118 368 69 412 69 477 c 0
 69 569 147 607 221 607 c 0
 267 607 309 596 327 583 c 1
 327 639 308 681 237 681 c 0
 179 681 147 675 112 649 c 1
 77 708 l 1
EndSplineSet
EndChar
StartChar: guillemotleft
Encoding: 171 171 157
Width: 517
VWidth: 2
Flags: HW
VStem: 189 74<51 79> 196 76<425 460>
LayerCount: 2
Fore
SplineSet
206 281 m 1x00
 277 330 335 413 355 478 c 1
 430 450 l 1
 407 381 362 309 299 252 c 1
 359 200 397 140 419 65 c 1
 422 57 l 1
 346 31 l 1
 323 111 282 168 206 220 c 1
 206 281 l 1x00
35 280 m 1
 105 343 185 409 196 477 c 1
 272 458 l 1x40
 252 366 186 306 125 253 c 1
 187 195 241 137 263 53 c 1
 189 27 l 1x80
 170 100 112 155 35 224 c 1
 35 280 l 1
EndSplineSet
EndChar
StartChar: logicalnot
Encoding: 172 172 194
Width: 517
VWidth: 2
Flags: HW
HStem: 219 74<75 368>
VStem: 368 75<85 217>
LayerCount: 2
Fore
SplineSet
72 289 m 1
 138 292 192 293 242 293 c 0
 262 293 281 293 300 293 c 0
 340 293 382 292 434 292 c 1
 443 292 l 1
 443 223 443 154 443 85 c 1
 368 85 l 1
 368 217 l 1
 302 218 302 219 241 219 c 0
 208 219 149 218 75 214 c 1
 75 255 l 1
 72 289 l 1
EndSplineSet
EndChar
StartChar: uni00AD
Encoding: 173 173 195
Width: 517
VWidth: 2
Flags: HW
HStem: 219 74<75 443>
LayerCount: 2
Fore
SplineSet
72 289 m 1
 138 292 192 293 242 293 c 0
 262 293 281 293 300 293 c 0
 340 293 382 292 434 292 c 1
 443 292 l 1
 443 217 l 1
 434 217 l 1
 368 218 302 219 241 219 c 0
 208 219 149 218 75 214 c 1
 75 255 l 1
 72 289 l 1
EndSplineSet
EndChar
StartChar: registered
Encoding: 174 174 166
Width: 520
VWidth: 2
Flags: HW
HStem: 19 68<180 348> 377 61<215 318> 492 68<182 346>
VStem: 8 69<197 382> 160 56<138 256 307 376> 323 58<307 371> 450 69<195 384>
LayerCount: 2
Fore
SplineSet
315 256 m 1
 328 230 369 187 388 183 c 1
 353 134 l 1
 309 150 262 222 251 247 c 1
 236 249 215 256 215 256 c 1
 216 138 l 1
 160 138 l 1
 160 359 l 2
 160 385 159 404 158 428 c 1
 197 434 232 438 262 438 c 0
 335 438 380 414 380 335 c 0
 380 305 353 268 315 256 c 1
323 334 m 1
 323 363 308 377 263 377 c 0
 250 377 234 377 215 374 c 1
 215 315 l 1
 238 305 257 300 272 300 c 0
 306 300 323 320 323 334 c 1
77 290 m 0
 77 178 161 87 265 87 c 0
 369 87 450 178 450 290 c 0
 450 402 369 492 265 492 c 0
 161 492 77 402 77 290 c 0
8 289 m 0
 8 438 122 560 263 560 c 0
 404 560 519 438 519 289 c 0
 519 140 404 19 263 19 c 0
 122 19 8 140 8 289 c 0
EndSplineSet
EndChar
StartChar: macron
Encoding: 175 175 176
Width: 517
VWidth: -16
Flags: HW
HStem: 577 75<111 333>
VStem: 111 222<579 652>
LayerCount: 2
Fore
SplineSet
111 654 m 1
 129 652 150 652 172 652 c 0
 194 652 220 652 245 652 c 0
 274 652 304 652 333 652 c 1
 333 578 l 1
 325 578 l 1
 297 577 262 577 226 577 c 0
 213 577 200 577 187 577 c 0
 161 577 135 578 111 579 c 1
 111 654 l 1
EndSplineSet
EndChar
StartChar: degree
Encoding: 176 176 175
Width: 517
VWidth: -12
Flags: HW
HStem: 409 73<181 263> 588 73<181 263>
VStem: 96 73<494 576> 275 73<494 576>
LayerCount: 2
Fore
SplineSet
96 535 m 0
 96 604 153 661 222 661 c 0
 291 661 348 604 348 535 c 0
 348 466 291 409 222 409 c 0
 153 409 96 466 96 535 c 0
169 535 m 0
 169 506 193 482 222 482 c 0
 251 482 275 506 275 535 c 0
 275 564 251 588 222 588 c 0
 193 588 169 564 169 535 c 0
EndSplineSet
EndChar
StartChar: plusminus
Encoding: 177 177 145
Width: 517
VWidth: -2
Flags: HW
HStem: 91 73<43 207 285 461> 327 73<40 208 286 461>
VStem: 208 78<168 321 396 572>
LayerCount: 2
Fore
SplineSet
40 401 m 1
 124 396 159 396 208 396 c 1
 209 572 l 1
 287 572 l 1
 286 396 l 1
 362 397 361 400 453 400 c 2
 461 400 l 1
 461 327 l 1
 453 327 l 2
 362 327 363 323 286 321 c 1
 286 316 l 2
 286 264 285 211 285 167 c 1
 365 166 372 165 453 164 c 1
 461 163 l 1
 461 90 l 1
 453 90 l 1
 351 91 316 94 208 94 c 0
 144 94 130 93 52 91 c 1
 43 91 l 1
 43 164 l 1
 52 164 l 1
 131 166 148 168 207 168 c 1
 207 213 208 265 208 317 c 2
 208 322 l 1
 156 322 127 323 40 328 c 1
 40 401 l 1
EndSplineSet
EndChar
StartChar: uni00B2
Encoding: 178 178 196
Width: 520
VWidth: 31
Flags: HW
HStem: 375 69<199 403> 676 69<200 320>
VStem: 328 69<592 664>
LayerCount: 2
Fore
SplineSet
116 642 m 1
 128 715 189 746 262 746 c 0
 334 746 397 708 397 633 c 0
 397 561 359 541 273 497 c 0
 237 478 203 464 199 445 c 1
 403 447 l 1
 403 375 l 1
 111 375 l 1
 111 391 110 406 110 422 c 0
 110 444 113 459 126 480 c 0
 143 507 198 531 239 552 c 0
 322 593 328 608 328 632 c 0
 328 659 296 676 263 676 c 0
 213 676 193 660 187 625 c 1
 116 642 l 1
EndSplineSet
EndChar
StartChar: uni00B3
Encoding: 179 179 197
Width: 520
VWidth: 31
Flags: HW
HStem: 369 68<176 318> 540 55<233 303> 657 10G<174 190> 681 66<186 307>
VStem: 312 64<603 673> 329 72<450 524>
LayerCount: 2
Fore
SplineSet
150 482 m 1xf4
 178 451 205 437 250 437 c 0
 307 437 329 459 329 485 c 1xf4
 329 523 293 540 230 540 c 1
 233 596 l 1
 240 596 248 595 253 595 c 0
 294 595 312 614 312 645 c 0
 312 665 291 681 252 681 c 0
 220 681 198 672 183 657 c 1
 135 713 l 1
 161 734 198 747 248 747 c 2
 253 747 l 2
 328 747 376 708 376 649 c 0xf8
 376 623 368 593 346 575 c 1
 384 555 400 524 400 485 c 0
 400 406 338 369 250 369 c 0
 179 369 141 387 99 433 c 1
 150 482 l 1xf4
EndSplineSet
EndChar
StartChar: acute
Encoding: 180 180 174
Width: 517
VWidth: -20
Flags: HW
HStem: 586 203
VStem: 108 265
LayerCount: 2
Fore
SplineSet
108 659 m 1
 178 682 263 737 319 790 c 1
 373 718 l 1
 319 663 211 609 141 586 c 1
 108 659 l 1
EndSplineSet
EndChar
StartChar: uni00B5
Encoding: 181 181 169
Width: 517
VWidth: 2
Flags: HW
HStem: 1 75<157 286> 489 9G<65 128 361 438>
VStem: 53 77<-195 11 89 342> 361 77<135 498>
LayerCount: 2
Fore
SplineSet
442 -5 m 1
 414 15 388 35 377 77 c 1
 336 35 289 2 216 1 c 1
 211 1 l 2
 188 1 157 1 131 11 c 1
 130 -195 l 1
 53 -195 l 1
 56 104 l 1
 55 235 57 444 44 485 c 1
 123 499 l 1
 134 454 131 301 132 122 c 1
 135 105 145 93 156 85 c 0
 163 80 188 76 208 76 c 1
 241 77 261 82 286 97 c 0
 309 111 342 125 361 168 c 1
 361 498 l 1
 438 498 l 1
 438 117 l 1
 439 92 462 68 482 52 c 1
 442 -5 l 1
EndSplineSet
EndChar
StartChar: paragraph
Encoding: 182 182 170
Width: 517
VWidth: 0
Flags: HW
HStem: -5 10G<370 444> 571 78<303 369>
VStem: 18 286<332 552> 229 76<11 233> 369 75<-4 571>
LayerCount: 2
Fore
SplineSet
369 508 m 2xe8
 369 571 l 1
 349 571 329 573 303 573 c 1xe8
 303 412 304 250 305 90 c 1
 305 22 284 -15 284 -15 c 1
 209 11 l 1
 209 11 229 42 229 112 c 1xd8
 228 231 l 1
 146 237 89 257 50 313 c 0
 21 356 18 406 18 451 c 0
 18 496 27 541 53 573 c 0
 109 642 193 648 303 648 c 0
 368 648 386 645 444 645 c 1
 444 -4 l 1
 370 -5 l 1
 370 159 369 291 369 508 c 2xe8
EndSplineSet
EndChar
StartChar: cedilla
Encoding: 184 184 198
Width: 520
VWidth: 5
Flags: HW
HStem: -175 61<213 313> -66 92<234 271> -58 85<235 305>
VStem: 234 71<-12 25> 314 66<-110 -62>
LayerCount: 2
Fore
SplineSet
306 27 m 1xb8
 306 23 305 -8 305 -9 c 1
 352 -11 381 -42 381 -93 c 0
 381 -142 332 -175 291 -175 c 0
 259 -175 223 -163 196 -145 c 1
 215 -93 l 1
 231 -102 250 -114 275 -114 c 0
 293 -114 313 -104 314 -85 c 1
 314 -84 l 2
 314 -70 295 -58 272 -58 c 0xb8
 249 -58 248 -61 234 -66 c 1
 234 25 l 1xd8
 306 27 l 1xb8
EndSplineSet
EndChar
StartChar: uni00B9
Encoding: 185 185 199
Width: 520
VWidth: 31
Flags: HW
VStem: 279 71<375 647>
LayerCount: 2
Fore
SplineSet
270 746 m 1
 350 738 l 1
 350 375 l 1
 279 375 l 1
 279 647 l 1
 244 608 184 574 123 553 c 1
 102 617 l 1
 172 636 233 681 270 746 c 1
EndSplineSet
EndChar
StartChar: ordmasculine
Encoding: 186 186 200
Width: 520
VWidth: 2
Flags: HW
HStem: 261 69<69 438> 370 69<182 318> 676 69<181 326>
VStem: 79 69<475 642> 354 69<475 647>
LayerCount: 2
Fore
SplineSet
354 570 m 0
 354 645 322 676 253 676 c 0
 193 676 148 652 148 563 c 0
 148 491 173 439 246 439 c 1
 318 439 354 469 354 570 c 0
245 370 m 1
 131 370 79 442 79 560 c 0
 79 692 158 745 237 745 c 0
 370 745 423 679 423 577 c 0
 423 422 370 370 245 370 c 1
69 330 m 1
 438 330 l 1
 438 261 l 1
 69 261 l 1
 69 330 l 1
EndSplineSet
EndChar
StartChar: onequarter
Encoding: 188 188 201
Width: 517
VWidth: 0
Flags: HW
HStem: -78 67<185 286 355 418> 261 69<38 474>
VStem: 279 71<375 647> 288 68<-154 -78 -8 115>
LayerCount: 2
Fore
SplineSet
38 330 m 1xc0
 474 330 l 1
 474 261 l 1
 38 261 l 1
 38 330 l 1xc0
EndSplineSet
Refer: 971 8324 N 1 0 0 1 0 0 2
Refer: 199 185 N 1 0 0 1 0 0 2
EndChar
StartChar: onehalf
Encoding: 189 189 202
Width: 520
VWidth: 0
Flags: HW
HStem: -152 69<199 403> 149 69<200 320> 261 69<38 474>
VStem: 279 71<375 647> 328 69<65 137>
LayerCount: 2
Fore
SplineSet
38 330 m 1xe0
 474 330 l 1
 474 261 l 1
 38 261 l 1
 38 330 l 1xe0
EndSplineSet
Refer: 969 8322 N 1 0 0 1 0 0 2
Refer: 199 185 N 1 0 0 1 0 0 2
EndChar
StartChar: threequarters
Encoding: 190 190 203
Width: 517
VWidth: 0
Flags: HW
HStem: -78 67<185 286 355 418> 261 69<38 474> 369 68<176 318> 540 55<233 303> 657 10G<174 190> 681 66<186 307>
VStem: 288 68<-154 -78 -8 115> 312 64<603 673> 329 72<450 524>
LayerCount: 2
Fore
SplineSet
38 330 m 1xfc
 474 330 l 1
 474 261 l 1
 38 261 l 1
 38 330 l 1xfc
EndSplineSet
Refer: 971 8324 N 1 0 0 1 0 0 2
Refer: 197 179 N 1 0 0 1 0 0 2
EndChar
StartChar: Aring
Encoding: 197 197 76
Width: 520
VWidth: -3
Flags: HW
HStem: 0 10G<21 100 415 495> 162 78<166 351> 740 61<212 291>
VStem: 21 79<0 86> 146 63<676 735> 293 64<676 735> 415 80<0 92>
LayerCount: 2
Fore
SplineSet
351 242 m 1
 256 528 l 1
 165 232 l 1
 194 238 221 238 262 240 c 1
 351 242 l 1
209 707 m 0
 209 690 227 671 252 671 c 0
 277 671 293 690 293 707 c 0
 293 724 277 740 252 740 c 0
 227 740 209 724 209 707 c 0
146 706 m 0
 146 760 196 801 252 801 c 0
 308 801 358 760 358 706 c 0
 358 668 334 637 300 621 c 1
 480 84 l 1
 485 66 494 26 495 0 c 1
 415 0 l 1
 415 11 409 47 405 60 c 2
 371 162 l 1
 302 161 194 159 140 146 c 1
 111 59 l 2
 106 45 100 14 100 0 c 1
 21 0 l 1
 21 14 30 57 36 78 c 2
 207 620 l 1
 172 635 146 667 146 706 c 0
EndSplineSet
EndChar
StartChar: AE
Encoding: 198 198 82
Width: 517
VWidth: 0
Flags: HW
HStem: 0 72<311 487> 169 70<136 229> 325 73<291 428> 559 74<269 466>
VStem: 2 79<0 95>
LayerCount: 2
Back
SplineSet
478.02734375 13.18359375 m 1x78
 456.0546875 5.37109375 437.5 -2.44140625 400.87890625 -2.44140625 c 2
 233.88671875 -2.44140625 l 1
 233.88671875 58.59375 l 1
 229.00390625 117.67578125 220.21484375 177.734375 214.84375 238.28125 c 1
 204.1015625 239.2578125 194.82421875 239.74609375 186.03515625 239.74609375 c 0
 172.8515625 239.74609375 161.1328125 238.28125 145.99609375 234.86328125 c 1
 74.21875 -7.8125 l 1
 10.7421875 17.578125 l 1
 73.73046875 225.5859375 116.69921875 435.05859375 163.0859375 644.53125 c 1
 203.61328125 644.53125 l 1
 238.28125 645.99609375 288.57421875 645.99609375 341.30859375 645.99609375 c 2
 468.26171875 645.99609375 l 1
 468.26171875 571.2890625 l 1
 459.9609375 571.2890625 l 2
 419.43359375 571.2890625 410.15625 570.3125 350.09765625 570.3125 c 2
 260.7421875 570.3125 l 1
 260.7421875 548.33984375 l 2
 260.7421875 538.0859375 269.04296875 442.87109375 272.94921875 404.296875 c 1
 297.8515625 404.78515625 327.1484375 406.73828125 368.65234375 406.73828125 c 2
 420.41015625 406.73828125 l 1
 420.41015625 332.51953125 l 1
 368.65234375 332.51953125 l 2
 328.61328125 332.51953125 302.24609375 330.56640625 280.2734375 330.078125 c 1
 281.25 325.68359375 281.25 320.80078125 281.25 316.40625 c 1
 293.9453125 209.9609375 301.26953125 111.328125 303.7109375 73.2421875 c 1
 459.47265625 73.2421875 l 1xb8
 478.02734375 13.18359375 l 1x78
209.47265625 308.10546875 m 1
 209.47265625 314.94140625 l 1
 204.1015625 372.0703125 198.2421875 433.10546875 194.3359375 486.81640625 c 1
 160.64453125 305.17578125 l 1
 176.26953125 306.640625 175.29296875 307.12890625 201.171875 308.10546875 c 1
 209.47265625 308.10546875 l 1
EndSplineSet
Fore
SplineSet
229 239 m 1
 205 534 l 1
 135 232 l 1
 135 232 168 238 229 239 c 1
235 169 m 1
 156 167 118 157 118 157 c 1
 93 59 l 2
 90 44 82 14 82 0 c 1
 2 0 l 1
 2 14 12 57 18 78 c 2
 171 631 l 1
 201 632 255 632 302 632 c 0
 379 632 419 632 466 632 c 1
 466 559 l 1
 269 559 l 1
 281 398 l 1
 428 398 l 1
 428 325 l 1
 291 325 l 1
 311 72 l 1
 430 73 l 2
 457 73 487 85 487 85 c 1
 509 13 l 1
 486 7 469 -1 434 -1 c 0
 433 -1 432 -1 431 -1 c 2
 246 0 l 1
 235 169 l 1
EndSplineSet
EndChar
StartChar: Ccedilla
Encoding: 199 199 83
Width: 517
VWidth: 2
Flags: HW
HStem: -182 61<213 313> -65 141<235 303> 574 77<202 338>
VStem: 27 78<177 453> 234 71<-20 3> 314 66<-118 -70>
LayerCount: 2
Fore
SplineSet
278 574 m 0
 222 574 178 541 155 508 c 1
 133 476 105 418 105 312 c 0
 105 230 120 157 168 112 c 0
 198 83 222 75 262 75 c 2
 269 75 l 1
 341 77 382 114 407 170 c 1
 475 132 l 1
 442 62 385 9 305 0 c 1
 305 -17 l 1
 352 -19 381 -49 381 -100 c 0
 381 -149 332 -182 291 -182 c 0
 259 -182 223 -170 196 -152 c 1
 215 -101 l 1
 231 -110 250 -121 275 -121 c 0
 293 -121 313 -112 314 -93 c 1
 314 -92 l 2
 314 -78 295 -65 272 -65 c 0
 249 -65 248 -69 234 -74 c 1
 234 -49 234 -24 234 1 c 1
 192 7 149 23 115 57 c 1
 56 118 27 200 27 311 c 0
 27 437 67 515 92 553 c 0
 127 606 194 650 279 650 c 0
 347 650 410 609 453 530 c 1
 387 489 l 1
 357 549 320 574 278 574 c 0
EndSplineSet
EndChar
StartChar: Eth
Encoding: 208 208 152
Width: 520
VWidth: 0
Flags: HW
HStem: -5 75<112 321> 377 72<2 37 114 293> 574 76<114 263>
VStem: 37 77<72 377 450 573> 396 78<152 415>
LayerCount: 2
Fore
SplineSet
37 450 m 1
 37 477 l 2
 37 540 35 600 31 643 c 1
 71 647 93 650 141 650 c 0
 273 650 349 610 409 521 c 1
 450 459 473 371 473 283 c 0
 473 249 469 216 463 184 c 0
 440 66 361 7 273 -1 c 0
 246 -3 221 -5 194 -5 c 0
 153 -5 89 -1 33 -1 c 1
 33 16 33 14 34 62 c 1
 34 85 37 235 37 377 c 1
 2 377 l 1
 2 450 l 1
 37 450 l 1
151 574 m 2
 136 574 l 2
 128 574 122 574 114 573 c 1
 114 560 115 545 115 530 c 0
 115 505 114 478 114 450 c 1
 174 450 233 450 293 450 c 1
 293 377 l 1
 114 377 l 1
 114 244 112 114 112 72 c 1
 155 71 178 70 207 70 c 0
 290 70 350 83 382 172 c 0
 390 194 396 239 396 266 c 0
 396 345 378 428 346 475 c 0
 303 539 259 574 151 574 c 2
EndSplineSet
EndChar
StartChar: multiply
Encoding: 215 215 128
Width: 517
VWidth: 2
Flags: HW
LayerCount: 2
Fore
SplineSet
186 255 m 1
 127 314 84 365 31 414 c 1
 79 474 l 1
 132 425 187 368 242 311 c 1
 329 394 398 461 406 470 c 1
 457 410 l 1
 448 401 380 333 297 251 c 1
 384 158 408 128 457 79 c 1
 398 31 l 1
 359 82 321 117 241 199 c 1
 167 126 113 64 91 40 c 1
 34 88 l 1
 63 123 116 186 186 255 c 1
EndSplineSet
EndChar
StartChar: Oslash
Encoding: 216 216 127
Width: 520
VWidth: 0
Flags: HW
HStem: -4 76<185 319> 572 76<189 307>
VStem: 20 78<161 434> 397 77<176 311>
LayerCount: 2
Fore
SplineSet
365 501 m 1
 308 367 236 204 184 85 c 1
 202 77 223 72 249 72 c 0
 306 72 341 103 363 145 c 1
 383 177 397 258 397 311 c 1
 397 311 395 441 368 495 c 0
 367 497 366 499 365 501 c 1
126 144 m 1
 175 257 254 433 308 562 c 1
 294 569 279 572 263 572 c 0
 217 572 189 559 161 521 c 0
 127 477 98 395 98 286 c 0
 98 243 107 184 126 144 c 1
90 62 m 1
 89 63 88 64 87 65 c 0
 43 120 20 194 20 284 c 0
 20 437 63 519 97 566 c 0
 129 611 184 647 260 648 c 0
 279 648 307 646 336 633 c 1
 342 647 348 660 352 672 c 1
 424 644 l 1
 417 626 409 606 400 585 c 1
 441 538 474 456 475 315 c 1
 475 310 l 2
 475 228 453 153 430 107 c 0
 393 35 330 -4 249 -4 c 0
 217 -4 183 2 153 15 c 1
 148 3 144 -8 140 -18 c 1
 67 12 l 1
 70 18 82 42 90 62 c 1
EndSplineSet
EndChar
StartChar: Thorn
Encoding: 222 222 204
Width: 520
VWidth: 0
Flags: HW
HStem: -5 10G<51 128> 225 74<128 344> 492 74<129 332> 624 10G<117 129>
VStem: 51 78<-4 226 299 490 565 632> 383 79<332 452>
LayerCount: 2
Fore
SplineSet
383 391 m 0
 383 457 337 492 203 492 c 1
 173 492 151 490 129 490 c 1
 129 429 l 2
 129 340 128 299 128 299 c 1
 146 299 163 299 179 299 c 0
 319 299 383 309 383 391 c 0
128 -5 m 1
 51 -4 l 1
 51 632 l 1
 84 632 105 632 129 633 c 1
 129 565 l 1
 146 566 166 566 192 566 c 0
 302 566 370 559 426 492 c 0
 452 460 462 417 462 373 c 0
 462 236 313 225 203 225 c 0
 180 225 154 225 128 226 c 1
 128 98 128 71 128 -5 c 1
EndSplineSet
EndChar
StartChar: germandbls
Encoding: 223 223 167
Width: 517
VWidth: 0
Flags: HW
HStem: -1 75<232 359> 327 75<143 267> 574 74<141 267>
VStem: 43 73<55 109 109 549> 142 76<87 157> 293 75<428 549> 386 75<101 270>
LayerCount: 2
Fore
SplineSet
39 490 m 0
 39 566 93 648 190 648 c 0
 289 648 368 602 368 494 c 0
 368 444 354 406 327 380 c 1
 413 356 461 292 461 186 c 0
 461 83 412 -1 305 -1 c 0
 214 -1 142 46 142 145 c 0
 142 149 142 153 142 157 c 1
 218 157 l 1
 219 94 232 74 305 74 c 0
 371 74 386 128 386 193 c 0
 386 320 284 327 143 327 c 1
 143 401 l 1
 224 401 293 402 293 491 c 0
 293 546 257 574 190 574 c 1
 143 574 114 529 114 485 c 0
 114 409 116 311 116 220 c 0
 116 159 115 101 111 54 c 0
 108 14 82 -4 55 -18 c 1
 13 42 l 1
 20 45 28 49 33 55 c 0
 37 60 43 68 43 109 c 0
 43 109 43 165 43 219 c 0
 43 310 39 405 39 490 c 0
EndSplineSet
EndChar
StartChar: ae
Encoding: 230 230 65
Width: 520
VWidth: 2
Flags: HW
HStem: 2 77<101 191 297 404> 227 73<290 403> 248 75<107 214> 424 75<91 191 307 385>
VStem: 11 75<92 228> 215 75<103 227 307 399> 403 74<304 407>
LayerCount: 2
Fore
SplineSet
86 158 m 0xbe
 86 105 106 79 147 79 c 0
 191 79 209 124 215 160 c 1
 215 231 l 1
 194 243 173 248 147 248 c 0
 109 248 86 207 86 158 c 0xbe
290 300 m 1xde
 333 303 362 304 403 304 c 1
 403 356 392 424 358 424 c 0
 296 424 290 379 290 300 c 1xde
247 47 m 1
 232 30 202 2 152 2 c 0
 121 2 89 9 63 28 c 0
 23 56 11 103 11 151 c 0
 11 233 42 323 142 323 c 0xbe
 180 323 196 315 215 307 c 1
 215 354 204 425 146 425 c 2
 142 425 l 2
 117 425 102 424 70 375 c 1
 65 368 l 1
 8 404 l 1
 13 413 l 1
 55 478 86 500 146 500 c 0
 173 500 196 496 226 473 c 1
 235 465 244 453 250 444 c 1
 270 474 294 500 354 500 c 0
 473 500 477 329 477 232 c 1
 290 227 l 1
 290 107 l 1
 302 93 327 79 358 79 c 0
 387 79 411 106 430 132 c 1
 482 83 l 1
 437 21 387 2 349 2 c 0
 309 2 274 18 247 47 c 1
EndSplineSet
EndChar
StartChar: ccedilla
Encoding: 231 231 81
Width: 520
VWidth: 5
Flags: HW
HStem: -175 61<213 313> -58 131<236 303> 422 75<173 342>
VStem: 35 78<143 360> 314 66<-110 -62>
LayerCount: 2
Fore
SplineSet
112 257 m 0
 112 76 213 73 267 73 c 2
 273 73 l 2
 349 73 387 105 412 147 c 1
 473 103 l 1
 458 84 418 9 305 -2 c 1
 305 -9 l 1
 352 -11 381 -42 381 -93 c 0
 381 -142 332 -175 291 -175 c 0
 259 -175 223 -163 196 -145 c 1
 215 -93 l 1
 231 -102 250 -114 275 -114 c 0
 293 -114 313 -104 314 -85 c 1
 314 -84 l 2
 314 -70 295 -58 272 -58 c 0
 249 -58 248 -61 234 -66 c 1
 234 -2 l 1
 194 1 153 10 118 36 c 1
 55 85 35 160 35 257 c 0
 35 436 121 497 275 497 c 0
 321 497 358 485 387 463 c 0
 417 440 432 410 443 385 c 1
 368 356 l 1
 363 376 348 422 270 422 c 0
 162 422 112 374 112 257 c 0
EndSplineSet
EndChar
StartChar: eth
Encoding: 240 240 205
Width: 520
VWidth: 2
Flags: HW
HStem: 0 76<173 308> 646 10G<320 362> 688 10G<194 219>
VStem: 35 77<143 351> 364 77<139 352>
LayerCount: 2
Fore
SplineSet
293 422 m 1
 140 422 112 341 112 246 c 0
 112 151 154 76 236 76 c 1
 273 76 295 84 319 105 c 1
 353 136 364 195 364 264 c 0
 364 325 336 376 293 422 c 1
294 570 m 1
 380 446 440 377 440 263 c 0
 440 136 393 0 236 0 c 2
 235 0 l 1
 102 0 35 107 35 244 c 0
 35 337 63 485 243 497 c 1
 238 504 223 525 206 549 c 1
 106 525 l 1
 90 592 l 1
 165 609 l 1
 150 631 137 650 135 655 c 1
 211 697 l 1
 226 673 239 651 253 630 c 1
 360 656 l 1
 375 590 l 1
 294 570 l 1
EndSplineSet
EndChar
StartChar: divide
Encoding: 247 247 146
Width: 520
VWidth: 2
Flags: HW
HStem: -6 132<173 295> 213 77<49 433> 370 131<172 295>
VStem: 173 122<-6 126 370 501>
LayerCount: 2
Fore
SplineSet
49 213 m 1
 47 290 l 1
 125 292 186 293 224 293 c 0
 291 293 322 291 425 290 c 1
 434 290 l 1
 433 213 l 1
 424 213 l 1
 320 214 289 217 222 217 c 0
 185 217 123 215 49 213 c 1
173 126 m 1
 295 126 l 1
 295 -6 l 1
 173 -6 l 1
 173 126 l 1
172 501 m 1
 295 501 l 1
 295 370 l 1
 172 370 l 1
 172 501 l 1
EndSplineSet
EndChar
StartChar: oslash
Encoding: 248 248 140
Width: 517
VWidth: 2
Flags: HW
HStem: 0 76<165 308> 429 75<172 312>
VStem: 35 77<175 360> 363 78<137 324>
LayerCount: 2
Fore
SplineSet
118 174 m 1
 320 401 l 1
 302 419 277 429 244 429 c 0
 142 429 112 348 112 229 c 0
 112 209 114 191 118 174 c 1
417 393 m 1
 433 355 440 307 440 265 c 0
 440 126 393 0 236 0 c 2
 235 0 l 1
 179 0 136 16 104 44 c 1
 59 -4 l 1
 5 46 l 1
 58 106 l 1
 43 140 35 181 35 227 c 0
 35 370 85 504 228 504 c 0
 292 504 338 489 371 459 c 1
 426 521 l 1
 485 467 l 1
 417 393 l 1
319 105 m 1
 351 135 363 187 363 259 c 0
 363 262 363 265 363 268 c 0
 363 289 361 308 357 326 c 1
 156 104 l 1
 176 86 203 76 236 76 c 0
 273 76 295 84 319 105 c 1
EndSplineSet
EndChar
StartChar: thorn
Encoding: 254 254 206
Width: 520
VWidth: 0
Flags: HW
HStem: -3 76<172 309> 419 76<180 326> 633 10G<49 129>
VStem: 58 76<-192 27 108 373 450 632> 369 77<142 373>
LayerCount: 2
Fore
SplineSet
369 257 m 0
 369 357 342 419 259 419 c 0
 192 419 169 397 134 341 c 1
 134 128 l 1
 159 103 188 72 232 72 c 0
 312 72 369 119 369 257 c 0
58 361 m 2
 58 365 58 541 58 545 c 0
 58 579 54 612 49 633 c 1
 129 643 l 1
 129 639 134 615 134 598 c 0
 134 450 l 1
 165 477 204 495 259 495 c 0
 393 495 445 398 445 267 c 0
 445 103 383 -3 225 -3 c 0
 176 -3 157 12 134 27 c 1
 134 -74 l 2
 134 -120 139 -161 142 -194 c 1
 64 -198 l 1
 60 -162 58 -115 58 -71 c 2
 58 361 l 2
EndSplineSet
EndChar
StartChar: Aogonek
Encoding: 260 260 209
Width: 520
VWidth: 15
Flags: HW
HStem: -228 70<338 446> 0 10G<21 100> 162 78<166 351> 625 10G<209 299>
VStem: 21 79<0 86> 256 76<-149 -86>
LayerCount: 2
Fore
SplineSet
212 635 m 1
 295 635 l 1
 480 84 l 1
 485 66 494 26 495 0 c 1
 444 -42 332 -75 332 -116 c 0
 332 -143 360 -157 391 -157 c 0
 419 -157 439 -141 454 -130 c 1
 492 -182 l 1
 471 -205 428 -228 389 -228 c 0
 297 -228 256 -182 256 -116 c 0
 256 -29 387 -9 413 20 c 1
 411 34 407 52 405 60 c 2
 371 162 l 1
 302 161 194 159 140 146 c 1
 111 59 l 2
 106 45 100 14 100 0 c 1
 21 0 l 1
 21 14 30 57 36 78 c 2
 212 635 l 1
351 242 m 1
 256 528 l 1
 165 232 l 1
 194 238 221 238 262 240 c 1
 351 242 l 1
EndSplineSet
EndChar
StartChar: aogonek
Encoding: 261 261 210
Width: 517
VWidth: 2
Flags: HW
HStem: -217 71<287 403> -3 74<134 265> 246 70<159 322> 428 74<154 303>
VStem: 38 76<91 207> 206 76<-138 -72> 340 77<140 226 292 386>
LayerCount: 2
Fore
SplineSet
463 40 m 1
 352 -56 281 -62 281 -105 c 0
 281 -132 309 -146 340 -146 c 0
 368 -146 388 -130 403 -119 c 1
 441 -171 l 1
 420 -194 377 -217 338 -217 c 0
 246 -217 206 -171 206 -105 c 0
 206 -34 297 -9 373 42 c 1
 367 52 360 60 357 76 c 1
 319 39 276 -3 187 -3 c 0
 104 -3 38 66 38 147 c 0
 38 184 53 227 82 257 c 0
 128 304 177 316 235 316 c 0
 277 316 313 308 339 292 c 1
 339 387 306 428 232 428 c 0
 165 428 138 404 99 334 c 1
 36 375 l 1
 83 464 144 501 231 502 c 1
 341 502 415 429 415 321 c 1
 417 155 l 2
 417 138 418 93 423 84 c 0
 429 74 449 51 463 40 c 1
114 152 m 0
 114 101 142 71 187 71 c 0
 275 71 327 148 340 168 c 1
 340 215 l 1
 312 232 273 246 239 246 c 0
 173 246 114 210 114 152 c 0
EndSplineSet
EndChar
StartChar: cdotaccent
Encoding: 267 267 185
Width: 520
VWidth: 0
Flags: HW
HStem: -3 77<176 361> 422 75<173 342> 575 110<198 312>
VStem: 35 78<143 360> 198 115<575 685>
LayerCount: 2
Fore
SplineSet
198 685 m 1
 312 685 l 1
 312 575 l 1
 198 575 l 1
 198 685 l 1
EndSplineSet
Refer: 2 99 N 1 0 0 1 0 0 3
EndChar
StartChar: dcaron
Encoding: 271 271 211
Width: 520
VWidth: 15
Flags: HW
HStem: -3 75<130 270> 419 76<147 278> 679 10G<307 383 422 467>
VStem: 16 74<118 353> 314 73<118 385 463 683> 395 74<499 558>
LayerCount: 2
Fore
SplineSet
90 233 m 0
 90 133 114 72 194 72 c 0
 258 72 281 94 314 150 c 1
 314 363 l 1
 290 388 263 419 220 419 c 0
 144 419 90 371 90 233 c 0
387 130 m 1
 387 118 l 2
 387 77 392 35 396 3 c 1
 319 -6 l 1
 317 10 314 20 314 41 c 1
 285 14 246 -3 194 -3 c 0
 65 -3 16 93 16 224 c 0
 16 388 76 495 227 495 c 0
 274 495 291 478 313 463 c 1
 313 564 l 2
 313 610 310 652 307 685 c 1
 381 689 l 1
 385 653 388 606 388 562 c 2
 387 130 l 1
522 666 m 1
 503 611 491 558 469 484 c 1
 395 500 l 1
 404 569 417 639 428 689 c 1
 522 666 l 1
EndSplineSet
EndChar
StartChar: dcroat
Encoding: 273 273 213
Width: 517
VWidth: 0
Flags: HW
HStem: -3 75<160 306> 419 76<177 314> 546 74<195 350 429 474> 679 10G<344 423>
VStem: 41 76<122 348> 352 76<118 384 463 546 620 684>
LayerCount: 2
Fore
SplineSet
428 130 m 1
 428 118 l 2
 428 77 432 35 437 3 c 1
 357 -6 l 1
 355 10 352 20 352 41 c 1
 321 14 282 -3 227 -3 c 0
 93 -3 41 93 41 224 c 0
 41 388 103 495 261 495 c 0
 310 495 329 478 352 463 c 1
 352 546 l 1
 195 546 l 1
 195 620 l 1
 350 620 l 1
 349 644 346 666 344 685 c 1
 422 689 l 1
 424 668 426 645 427 620 c 1
 474 620 l 1
 474 546 l 1
 429 546 l 1
 428 130 l 1
117 233 m 0
 117 133 144 72 227 72 c 0
 294 72 317 94 352 150 c 1
 352 363 l 1
 327 388 298 419 254 419 c 0
 174 419 117 371 117 233 c 0
EndSplineSet
EndChar
StartChar: edotaccent
Encoding: 279 279 217
Width: 520
VWidth: 15
Flags: HW
HStem: -5 75<175 339> 208 75<115 352> 424 74<177 317> 575 110<191 306>
VStem: 38 77<130 208 283 360> 191 114<575 685>
LayerCount: 2
Fore
SplineSet
191 685 m 1
 306 685 l 1
 306 575 l 1
 191 575 l 1
 191 685 l 1
EndSplineSet
Refer: 4 101 N 1 0 0 1 0 0 3
EndChar
StartChar: Eogonek
Encoding: 280 280 218
Width: 520
VWidth: 15
Flags: HW
HStem: -223 71<311 427> -1 73<125 303> 325 73<127 341> 559 75<127 434>
VStem: 50 77<72 325 398 559> 229 76<-144 -71>
LayerCount: 2
Fore
SplineSet
50 631 m 1
 77 633 111 633 149 633 c 0
 164 633 180 633 197 633 c 2
 251 633 l 2
 324 633 390 632 426 632 c 2
 434 632 l 1
 434 559 l 1
 127 559 l 1
 127 398 l 1
 341 398 l 1
 341 325 l 1
 127 325 l 1
 127 311 l 2
 127 212 125 110 125 72 c 1
 382 73 l 2
 409 73 439 85 439 85 c 1
 460 13 l 1
 387 -8 305 -76 305 -112 c 0
 305 -139 333 -152 364 -152 c 0
 392 -152 412 -136 427 -125 c 1
 465 -178 l 1
 444 -201 401 -223 362 -223 c 0
 270 -223 229 -178 229 -112 c 0
 229 -69 261 -32 303 -1 c 1
 50 -1 l 1
 50 631 l 1
EndSplineSet
EndChar
StartChar: eogonek
Encoding: 281 281 219
Width: 520
VWidth: 15
Flags: HW
HStem: -217 71<262 378> -5 75<169 261> 208 75<115 352> 424 74<177 318>
VStem: 38 77<126 208 283 360> 180 76<-138 -72> 373 78<296 366>
LayerCount: 2
Back
SplineSet
114.2578125 151.85546875 m 4
 114.2578125 100.5859375 141.6015625 71.2890625 187.01171875 71.2890625 c 4
 274.90234375 71.2890625 327.1484375 148.4375 339.84375 168.45703125 c 5
 339.84375 214.84375 l 5
 312.01171875 231.93359375 272.94921875 246.09375 238.76953125 246.09375 c 4
 172.36328125 246.09375 114.2578125 209.47265625 114.2578125 151.85546875 c 4
371.34375 38.794921875 m 5
 365.138671875 48.4287109375 360.232421875 60.4033203125 357.421875 76.171875 c 5
 319.3359375 39.55078125 275.87890625 -2.9296875 187.01171875 -2.9296875 c 4
 103.515625 -2.9296875 38.0859375 65.91796875 38.0859375 146.97265625 c 4
 38.0859375 184.08203125 52.734375 227.5390625 81.54296875 257.32421875 c 4
 127.9296875 304.6875 177.24609375 316.40625 234.86328125 316.40625 c 4
 276.3671875 316.40625 312.98828125 307.6171875 339.35546875 291.50390625 c 5
 339.35546875 386.71875 306.640625 428.22265625 232.421875 428.22265625 c 4
 165.0390625 428.22265625 138.18359375 404.296875 99.12109375 334.47265625 c 5
 35.64453125 374.51171875 l 5
 82.51953125 463.37890625 144.53125 500.48828125 231.4453125 501.953125 c 5
 341.30859375 501.953125 414.55078125 428.7109375 414.55078125 320.80078125 c 5
 416.50390625 155.2734375 l 6
 416.50390625 138.18359375 416.50390625 92.7734375 422.8515625 84.47265625 c 4
 429.19921875 75.68359375 447.265625 64.453125 461.42578125 53.22265625 c 5
 461.42578125 53.22265625 429.6875 20.5087890625 404.296875 0 c 4
 353.193359375 -41.2763671875 280.2734375 -69.5009765625 280.2734375 -105.633789062 c 4
 280.2734375 -132.977539062 307.6171875 -146.405273438 338.8671875 -146.405273438 c 4
 367.1875 -146.405273438 387.451171875 -130.291992188 402.099609375 -119.549804688 c 5
 440.185546875 -171.551757812 l 5
 418.701171875 -194.98828125 375.48828125 -216.961914062 336.9140625 -216.961914062 c 4
 245.1171875 -216.961914062 204.58984375 -171.551757812 204.58984375 -105.633789062 c 4
 204.58984375 -17.7431640625 347.595703125 9.216796875 371.34375 38.794921875 c 5
EndSplineSet
Fore
SplineSet
115 283 m 1
 178 283 304 290 373 298 c 1
 370 374 315 424 249 424 c 0
 166 424 115 358 115 283 c 1
249 499 m 0
 433 499 451 313 451 246 c 0
 451 236 450 229 450 225 c 1
 313 216 202 209 115 208 c 1
 115 133 156 70 247 70 c 0
 324 70 366 113 383 140 c 1
 442 89 l 1
 441 87 438 82 432 75 c 0
 349 -37 256 -68 256 -105 c 0
 256 -132 283 -146 314 -146 c 0
 342 -146 362 -130 377 -119 c 1
 416 -171 l 1
 395 -194 351 -217 312 -217 c 0
 220 -217 180 -171 180 -105 c 0
 180 -56 214 -42 262 -4 c 1
 256 -4 251 -5 245 -5 c 0
 105 -5 38 99 38 252 c 0
 38 392 111 499 249 499 c 0
EndSplineSet
EndChar
StartChar: gdotaccent
Encoding: 289 289 227
Width: 517
VWidth: 15
Flags: HW
HStem: -189 76<136 352> 35 75<131 378> 199 73<146 315> 427 74<160 320 406 471> 575 110<185 300>
VStem: 39 77<-93 21 124 214> 46 77<295 392> 185 115<575 685> 344 76<298 403> 392 77<-75 17>
LayerCount: 2
Fore
SplineSet
185 685 m 1xf9
 300 685 l 1
 300 575 l 1
 185 575 l 1
 185 685 l 1xf9
EndSplineSet
Refer: 6 103 N 1 0 0 1 0 0 3
EndChar
StartChar: Hbar
Encoding: 294 294 232
Width: 517
VWidth: 0
Flags: HW
HStem: 0 10G<29 108 368 445> 305 74<110 368> 486 73<0 29 107 368 445 487> 623 7G<29 107 368 445>
VStem: 29 78<0 295 366 486 559 632> 368 77<0 305 379 486 559 630>
LayerCount: 2
Fore
SplineSet
29 559 m 1
 29 632 l 1
 107 633 l 1
 107 559 l 1
 368 559 l 1
 368 581 368 604 368 630 c 1
 445 630 l 1
 445 559 l 1
 487 559 l 1
 487 486 l 1
 445 486 l 1
 445 0 l 1
 368 0 l 1
 368 305 l 1
 347 305 326 305 305 305 c 0
 234 305 165 304 107 292 c 1
 107 125 108 88 108 0 c 1
 29 0 l 1
 29 486 l 1
 0 486 l 1
 0 559 l 1
 29 559 l 1
368 486 m 1
 107 486 l 1
 107 366 l 1
 152 376 198 379 257 379 c 2
 368 379 l 1
 368 423 368 458 368 486 c 1
EndSplineSet
EndChar
StartChar: hbar
Encoding: 295 295 233
Width: 520
VWidth: 0
Flags: HW
HStem: 0 10G<39 117 406 433> 423 75<166 322> 545 73<0 44 122 300> 675 10G<44 121>
VStem: 44 77<4 384 459 545 618 684> 351 77<64 394>
LayerCount: 2
Fore
SplineSet
351 281 m 2
 351 392 333 423 235 423 c 0
 186 423 136 387 121 357 c 1
 121 97 l 2
 121 58 118 22 116 0 c 1
 39 4 l 1
 43 39 44 62 44 100 c 0
 44 246 44 424 44 545 c 1
 0 545 l 1
 0 618 l 1
 44 618 l 1
 44 684 l 1
 121 685 l 1
 121 618 l 1
 300 618 l 1
 300 545 l 1
 122 545 l 1
 122 516 122 488 122 459 c 1
 154 479 188 498 238 498 c 0
 297 498 351 494 390 447 c 1
 425 405 427 367 427 313 c 2
 427 281 l 2
 427 201 427 164 427 109 c 0
 427 82 440 68 469 49 c 1
 426 -8 l 1
 387 14 351 40 351 102 c 2
 351 281 l 2
EndSplineSet
EndChar
StartChar: Iogonek
Encoding: 302 302 240
Width: 520
VWidth: 15
Flags: HW
HStem: -230 71<264 380> 2 72<65 206 284 310> 559 75<67 206 284 417>
VStem: 183 76<-152 -85> 206 78<74 562>
LayerCount: 2
Fore
SplineSet
64 634 m 1xe8
 140 636 190 636 237 636 c 0
 288 636 337 635 417 634 c 1
 417 560 l 1
 357 560 331 562 284 562 c 1
 284 74 l 1xe8
 306 74 319 75 344 75 c 0
 366 75 390 74 415 73 c 1
 415 -0 l 1
 327 -55 258 -83 258 -119 c 0
 258 -146 286 -160 317 -160 c 0
 345 -160 365 -144 380 -133 c 1
 418 -185 l 1
 397 -208 354 -230 315 -230 c 0
 223 -230 183 -185 183 -119 c 0xf0
 183 -49 265 -21 310 2 c 1
 288 2 264 2 236 2 c 0
 200 2 141 -1 65 -1 c 1
 65 71 l 1
 107 73 141 74 169 74 c 2
 206 74 l 1
 206 562 l 1
 174 562 119 562 67 559 c 1
 64 634 l 1xe8
EndSplineSet
EndChar
StartChar: iogonek
Encoding: 303 303 241
Width: 517
VWidth: 15
Flags: HW
HStem: -229 71<330 446> -9 69<268 338> 418 76<61 185> 575 110<153 268>
VStem: 153 115<575 684> 185 78<65 103 103 418> 248 76<-150 -74>
LayerCount: 2
Fore
SplineSet
153 685 m 1xf8
 268 684 l 1
 268 574 l 1
 153 575 l 1
 153 685 l 1xf8
204 495 m 2
 262 495 l 1xf4
 262 362 263 103 263 103 c 1
 265 63 285 61 330 61 c 0
 375 61 435 71 469 96 c 1
 502 41 l 1
 387 -60 324 -61 324 -118 c 0
 324 -145 351 -158 382 -158 c 0
 410 -158 430 -142 445 -131 c 1
 483 -184 l 1
 462 -207 419 -229 380 -229 c 0
 288 -229 248 -184 248 -118 c 0xf2
 248 -67 286 -43 338 -9 c 1
 335 -9 333 -9 330 -9 c 0
 288 -9 251 -2 230 10 c 0
 188 33 185 72 185 101 c 2
 185 418 l 1xf4
 161 418 105 416 59 405 c 1
 44 474 l 1
 99 487 153 495 204 495 c 2
EndSplineSet
EndChar
StartChar: dotlessi
Encoding: 305 305 177
Width: 520
VWidth: 0
Flags: HW
HStem: -9 69<265 445> 418 76<61 185>
VStem: 185 76<103 418>
LayerCount: 2
Fore
SplineSet
204 495 m 2
 260 495 l 1
 260 362 261 103 261 103 c 1
 263 63 285 61 330 61 c 0
 375 61 435 71 469 96 c 1
 502 41 l 1
 460 6 391 -9 330 -9 c 0
 288 -9 251 -2 230 10 c 0
 188 33 185 72 185 101 c 2
 185 418 l 1
 161 418 105 416 59 405 c 1
 44 474 l 1
 99 487 153 495 204 495 c 2
EndSplineSet
EndChar
StartChar: IJ
Encoding: 306 306 243
Width: 517
VWidth: 0
Flags: HW
HStem: 0 74<25 60 138 177 298 368> 562 73<25 60 138 186 251 372 450 492>
VStem: 25 152<0 73> 60 78<74 562> 199 78<90 208> 384 77<90 555>
LayerCount: 2
Fore
SplineSet
186 562 m 1xdc
 167 562 155 562 138 562 c 1
 138 74 l 1xdc
 177 73 l 1
 177 0 l 1
 162 0 144 0 125 0 c 0
 88 0 49 0 25 0 c 1
 25 71 l 1xec
 36 73 44 74 51 74 c 2
 60 74 l 1
 60 562 l 1
 28 562 38 562 25 559 c 1
 24 634 l 1
 44 636 44 636 91 636 c 0
 113 636 133 636 154 636 c 0
 165 636 176 636 187 636 c 1
 186 562 l 1xdc
251 633 m 1
 275 633 295 632 314 632 c 0
 371 632 413 633 493 633 c 1
 492 559 l 1
 469 559 474 559 450 559 c 1
 458 472 461 373 461 313 c 0
 461 140 454 -4 324 -4 c 0
 230 -4 200 103 199 208 c 1
 277 208 l 1
 280 135 295 69 323 69 c 0
 379 69 384 128 384 235 c 0
 384 261 384 290 384 322 c 0
 384 368 376 492 370 559 c 1
 310 559 307 559 250 560 c 1
 251 633 l 1
EndSplineSet
EndChar
StartChar: ij
Encoding: 307 307 244
Width: 520
VWidth: 0
Flags: HW
HStem: -189 76<193 379> -3 67<204 302> 412 69<37 121 270 394> 422 76<40 121 273 396> 576 110<90 205 363 478>
VStem: 90 115<579 687> 121 78<68 106 106 422> 363 114<576 684> 396 76<-96 422>
LayerCount: 2
Fore
SplineSet
396 -56 m 1xd880
 396 422 l 1
 393 422 391 422 388 422 c 0
 340 422 315 418 271 408 c 1
 257 477 l 1
 312 490 364 498 415 498 c 2
 472 498 l 1
 472 -58 l 0
 472 -129 442 -189 326 -189 c 3
 266 -189 206 -185 102 -131 c 1
 130 -59 l 1
 205 -110 285 -113 316 -113 c 0
 319 -113 322 -113 324 -113 c 3
 379 -113 395 -73 396 -56 c 1xd880
140 498 m 2
 199 498 l 1
 199 365 199 106 199 106 c 1
 199 75 218 64 243 64 c 0
 268 64 286 75 298 94 c 1
 338 44 l 1
 315 9 268 -3 235 -3 c 0
 149 -3 121 47 121 104 c 2
 121 422 l 1
 115 422 l 0xda
 94 422 80 422 38 412 c 1
 23 481 l 1xea
 78 494 89 498 140 498 c 2
363 686 m 1xc9
 478 684 l 1
 478 574 l 1
 363 576 l 1
 363 686 l 1xc9
90 688 m 1xcc
 205 687 l 1
 205 577 l 1
 90 579 l 1
 90 688 l 1xcc
EndSplineSet
EndChar
StartChar: Lcaron
Encoding: 317 317 254
Width: 520
VWidth: 15
Flags: HW
HStem: -1 75<147 460> 620 10G<337 381> 624 10G<69 147>
VStem: 69 79<74 634> 309 74<439 499>
LayerCount: 2
Fore
SplineSet
437 606 m 1xd8
 418 551 405 498 383 424 c 1
 309 441 l 1
 318 510 332 579 342 629 c 1
 437 606 l 1xd8
EndSplineSet
Refer: 35 76 N 1 0 0 1 0 0 2
EndChar
StartChar: lcaron
Encoding: 318 318 255
Width: 517
VWidth: 15
Flags: HW
HStem: -8 69<265 445> 498 10G<404 459> 620 75<56 183>
VStem: 183 76<104 619> 374 74<513 573>
LayerCount: 2
Fore
SplineSet
501 680 m 1
 482 625 470 572 448 498 c 1
 374 515 l 1
 383 584 397 653 407 703 c 1
 501 680 l 1
EndSplineSet
Refer: 12 108 N 1 0 0 1 0 0 2
EndChar
StartChar: Lslash
Encoding: 321 321 258
Width: 517
VWidth: 0
Flags: HW
HStem: -1 75<209 460> 624 10G<130 209>
VStem: 130 79<74 331 435 634>
LayerCount: 2
Fore
SplineSet
130 331 m 1
 59 304 l 1
 34 367 l 1
 130 404 l 1
 130 634 l 1
 209 634 l 1
 209 435 l 1
 333 482 l 1
 357 418 l 1
 209 361 l 1
 209 74 l 1
 402 74 l 1
 431 75 440 77 461 84 c 1
 481 13 l 1
 458 5 440 -1 403 -1 c 2
 130 -1 l 1
 130 331 l 1
EndSplineSet
EndChar
StartChar: lslash
Encoding: 322 322 259
Width: 520
VWidth: 0
Flags: HW
HStem: -8 69<258 435> 490 10G<352 381> 622 76<51 174>
VStem: 174 78<66 349 452 622>
LayerCount: 2
Fore
SplineSet
193 697 m 2
 252 697 l 1
 252 452 l 1
 377 500 l 1
 401 436 l 1
 252 379 l 1
 253 104 l 1
 255 64 275 62 320 62 c 0
 365 62 426 72 460 97 c 1
 493 42 l 1
 451 7 382 -8 321 -8 c 0
 279 -8 242 -1 221 11 c 0
 179 34 175 73 175 102 c 2
 174 349 l 1
 103 321 l 1
 79 385 l 1
 174 422 l 1
 174 622 l 1
 150 622 94 618 48 607 c 1
 35 677 l 1
 90 690 142 697 193 697 c 2
EndSplineSet
EndChar
StartChar: Eng
Encoding: 330 330 266
Width: 520
VWidth: 0
Flags: HW
HStem: -175 76<191 307> -1 10G<37 114> 558 75<188 323> 633 10G<67 98>
VStem: 37 78<-1 483> 369 76<-47 506>
LayerCount: 2
Fore
SplineSet
264 633 m 0xec
 406 633 443 538 443 420 c 0
 443 307 445 196 445 81 c 2
 445 64 l 2
 445 -61 421 -175 208 -175 c 2
 191 -175 l 1
 191 -100 l 1
 360 -97 369 -28 369 52 c 2
 369 416 l 2
 369 506 323 558 265 558 c 0xec
 170 558 132 480 114 447 c 1
 114 -1 l 1
 37 -1 l 1
 37 517 l 2
 37 573 18 615 18 615 c 1
 93 643 l 1xdc
 102 624 110 608 113 570 c 1
 142 620 198 633 264 633 c 0xec
EndSplineSet
EndChar
StartChar: eng
Encoding: 331 331 267
Width: 517
VWidth: 2
Flags: HW
HStem: -180 76<211 301> -0 10G<55 132> 426 73<200 327> 498 10G<75 120>
VStem: 55 77<0 380> 340 78<-61 411>
LayerCount: 2
Fore
SplineSet
132 453 m 1xdc
 194 485 223 499 277 499 c 0
 336 499 418 462 418 389 c 2
 418 103 l 2
 418 -43 417 -180 213 -180 c 2
 211 -180 l 1
 209 -104 l 2
 211 -104 l 0
 324 -104 340 -55 340 73 c 0
 340 173 340 274 340 374 c 0
 340 410 299 426 266 426 c 0xec
 235 426 204 405 133 371 c 1
 132 0 l 1
 55 -0 l 1
 55 344 l 2
 55 431 52 444 40 490 c 1
 118 508 l 1
 123 496 129 477 132 453 c 1xdc
EndSplineSet
EndChar
StartChar: OE
Encoding: 338 338 149
Width: 517
VWidth: 0
Flags: HW
HStem: -4 74<133 226 301 459> 333 75<303 437> 571 78<150 227 303 470>
VStem: 5 75<127 485> 227 76<75 333 408 571>
LayerCount: 2
Fore
SplineSet
226 71 m 1
 227 571 l 1
 100 571 80 464 80 282 c 0
 80 172 82 72 204 70 c 0
 212 70 220 71 226 71 c 1
396 75 m 1
 425 76 438 79 460 87 c 1
 479 16 l 1
 427 2 380 0 326 -0 c 0
 303 0 278 0 251 0 c 1
 243 -3 196 -4 189 -4 c 0
 40 2 5 143 5 292 c 0
 5 505 53 649 217 649 c 0
 230 649 243 648 256 646 c 1
 285 647 315 647 346 647 c 0
 388 647 430 647 470 647 c 1
 470 571 l 1
 425 571 397 572 362 572 c 0
 345 572 326 571 303 571 c 1
 303 408 l 1
 437 408 l 1
 437 333 l 1
 303 333 l 1
 303 234 301 114 301 75 c 1
 396 75 l 1
EndSplineSet
EndChar
StartChar: oe
Encoding: 339 339 95
Width: 517
VWidth: 2
Flags: HW
HStem: 0 75<115 196 295 389> 237 76<287 398> 421 75<125 202 295 372>
VStem: 12 74<112 368> 212 75<91 231 308 412>
LayerCount: 2
Fore
SplineSet
474 91 m 1
 474 91 445 0 346 0 c 0
 301 0 264 19 238 46 c 1
 226 30 200 0 164 0 c 0
 137 0 103 2 64 44 c 0
 14 98 12 185 12 224 c 0
 12 246 12 286 17 310 c 1
 27 370 58 497 160 497 c 0
 199 497 217 484 237 466 c 0
 242 462 247 458 249 455 c 1
 260 473 281 497 337 497 c 0
 435 497 472 388 476 278 c 1
 476 237 l 1
 443 237 l 1
 394 236 327 233 287 231 c 1
 286 105 l 1
 305 86 329 75 348 75 c 0
 385 75 398 108 406 125 c 1
 474 91 l 1
287 318 m 2
 287 308 l 1
 330 310 361 310 398 313 c 1
 395 364 375 421 337 421 c 0
 317 421 298 415 292 393 c 1
 287 376 287 346 287 318 c 2
161 75 m 0
 186 75 211 111 211 140 c 2
 212 368 l 2
 212 379 205 421 160 421 c 0
 114 421 87 335 86 231 c 0
 86 228 86 226 86 223 c 0
 86 188 93 131 118 93 c 0
 127 80 145 75 161 75 c 0
EndSplineSet
EndChar
StartChar: Scedilla
Encoding: 350 350 284
Width: 520
VWidth: 15
Flags: HW
HStem: -200 61<192 292> -2 73<158 214 285 339> 572 77<143 327>
VStem: 21 77<127 206> 35 78<441 543> 214 71<-37 -0> 294 66<-135 -87> 367 78<505 534> 385 78<115 257>
LayerCount: 2
Fore
SplineSet
121 353 m 1xf680
 77 374 35 420 35 493 c 0
 35 600 126 648 229 648 c 0
 230 648 233 648 234 648 c 0
 343 647 425 609 444 506 c 1
 367 492 l 1
 348 555 307 572 232 572 c 0
 182 572 152 561 130 539 c 1
 118 526 113 512 113 495 c 0xef
 113 454 136 435 163 422 c 0
 220 394 297 395 361 365 c 1
 414 339 463 280 463 193 c 0
 463 71 387 7 285 -3 c 1
 285 -13 285 -33 285 -34 c 1
 332 -36 360 -67 360 -118 c 0
 360 -167 312 -200 271 -200 c 0
 239 -200 203 -188 176 -170 c 1
 194 -118 l 1
 210 -127 230 -139 255 -139 c 0
 273 -139 293 -129 294 -110 c 1
 294 -109 l 2
 294 -95 275 -83 252 -83 c 0
 229 -83 228 -86 214 -91 c 1
 214 -61 214 -32 214 -2 c 1
 67 13 21 102 21 206 c 1
 98 206 l 1
 98 127 139 71 248 71 c 0
 348 71 385 118 385 189 c 0
 385 242 357 276 318 293 c 0
 261 318 186 323 121 353 c 1xf680
EndSplineSet
EndChar
StartChar: scedilla
Encoding: 351 351 285
Width: 520
VWidth: 15
Flags: HW
HStem: -205 61<175 275> -8 68<153 197 268 315> 430 72<153 317>
VStem: 45 77<93 161> 62 78<345 415> 197 71<-43 -6> 277 66<-141 -93> 349 76<92 190>
LayerCount: 2
Fore
SplineSet
119 279 m 1xf7
 87 296 62 328 62 382 c 0
 62 466 142 502 227 502 c 0
 287 502 372 483 412 434 c 1
 357 379 l 1
 331 409 275 430 233 430 c 0
 181 430 140 413 140 384 c 0xef
 140 361 147 350 167 341 c 1
 296 286 425 263 425 137 c 0
 425 58 369 14 317 0 c 0
 301 -4 284 -7 268 -8 c 1
 268 -18 268 -39 268 -40 c 1
 315 -42 343 -72 343 -123 c 0
 343 -172 294 -205 253 -205 c 0
 221 -205 186 -193 159 -175 c 1
 177 -124 l 1
 193 -133 213 -144 238 -144 c 0
 256 -144 276 -135 277 -116 c 1
 277 -115 l 2
 277 -101 258 -88 235 -88 c 0
 212 -88 211 -92 197 -97 c 1
 197 -67 197 -38 197 -8 c 1
 96 4 45 67 45 161 c 1
 122 161 l 1
 122 96 155 60 231 60 c 0
 291 60 349 86 349 140 c 0
 349 176 334 188 307 208 c 1
 269 235 164 256 119 279 c 1xf7
EndSplineSet
EndChar
StartChar: Tcommaaccent
Encoding: 354 354 288
Width: 517
VWidth: 15
Flags: HW
HStem: -179 61<177 278> 570 77<19 197 275 444>
VStem: 197 78<-17 570> 279 66<-115 -67>
LayerCount: 2
Fore
SplineSet
197 -4 m 1
 197 570 l 1
 100 570 56 569 19 569 c 1
 19 646 l 1
 79 646 300 647 392 647 c 0
 428 647 451 641 460 640 c 1
 444 564 l 1
 444 564 414 570 390 570 c 2
 275 570 l 1
 275 -14 l 1
 322 -16 346 -46 346 -97 c 0
 346 -146 297 -179 256 -179 c 0
 224 -179 188 -167 161 -149 c 1
 180 -98 l 1
 196 -107 215 -118 240 -118 c 0
 258 -118 278 -109 279 -90 c 1
 279 -89 l 2
 279 -75 260 -62 237 -62 c 0
 214 -62 213 -66 199 -71 c 1
 199 -56 l 1
 198 -40 197 -20 197 -4 c 1
EndSplineSet
EndChar
StartChar: tcommaaccent
Encoding: 355 355 289
Width: 520
VWidth: 15
Flags: HW
HStem: -184 61<214 314> -67 140<236 306> 426 71<64 78>
VStem: 79 78<102 422 497 608> 235 71<-22 -1> 315 66<-120 -72>
LayerCount: 2
Fore
SplineSet
157 213 m 1
 157 194 l 2
 157 129 175 79 229 74 c 0
 238 73 275 73 281 73 c 0
 313 73 344 77 356 84 c 0
 384 99 393 126 396 135 c 1
 458 108 l 1
 453 94 442 50 387 18 c 0
 365 5 337 0 306 -2 c 1
 306 -19 l 1
 353 -21 382 -51 382 -102 c 0
 382 -151 333 -184 292 -184 c 0
 260 -184 224 -172 197 -154 c 1
 216 -103 l 1
 232 -112 251 -123 276 -123 c 0
 294 -123 314 -114 315 -95 c 1
 315 -94 l 2
 315 -80 296 -67 273 -67 c 0
 250 -67 249 -71 235 -76 c 1
 235 -51 235 -26 235 -1 c 1
 171 3 126 20 98 79 c 0
 81 114 79 150 79 192 c 2
 79 213 l 1
 81 264 82 328 85 422 c 1
 78 422 l 2
 64 422 51 420 38 417 c 1
 28 488 l 1
 40 492 62 494 78 494 c 2
 85 494 l 1
 85 528 86 574 86 608 c 1
 163 608 l 1
 163 576 162 530 162 497 c 1
 222 497 l 1
 293 497 368 498 368 498 c 1
 376 498 l 1
 376 426 l 1
 222 426 l 2
 200 426 186 424 164 424 c 1
 160 324 159 262 157 213 c 1
EndSplineSet
EndChar
StartChar: tcaron
Encoding: 357 357 291
Width: 517
VWidth: 15
Flags: HW
HStem: -3 76<206 389> 426 71<83 97>
VStem: 98 78<102 422 497 608> 294 74<551 610>
LayerCount: 2
Fore
SplineSet
421 717 m 1
 402 662 390 610 368 536 c 1
 294 552 l 1
 303 621 317 691 327 741 c 1
 421 717 l 1
EndSplineSet
Refer: 19 116 N 1 0 0 1 0 0 2
EndChar
StartChar: Tbar
Encoding: 358 358 292
Width: 517
VWidth: 0
Flags: HW
HStem: -4 10G<197 275> 282 77<79 197 275 398> 559 76<19 197 275 444>
VStem: 197 78<-4 282 359 559>
LayerCount: 2
Fore
SplineSet
197 282 m 1
 79 282 l 1
 79 359 l 1
 197 359 l 1
 197 559 l 1
 100 559 56 558 19 558 c 1
 19 634 l 1
 79 634 300 634 392 634 c 0
 428 634 451 628 460 627 c 1
 444 553 l 1
 444 553 414 559 390 559 c 2
 275 559 l 1
 275 359 l 1
 398 359 l 1
 398 282 l 1
 275 282 l 1
 275 -4 l 1
 197 -4 l 1
 197 282 l 1
EndSplineSet
EndChar
StartChar: tbar
Encoding: 359 359 293
Width: 517
VWidth: 0
Flags: HW
HStem: -3 76<208 391> 246 77<14 101 180 312> 426 71<85 99>
VStem: 100 78<102 246 323 422 497 608>
LayerCount: 2
Fore
SplineSet
177 213 m 2
 177 194 l 2
 177 129 195 79 249 74 c 0
 258 73 296 73 302 73 c 0
 334 73 365 77 377 84 c 0
 405 99 414 126 417 135 c 1
 479 108 l 1
 474 94 463 50 408 18 c 0
 380 1 345 -3 303 -3 c 0
 213 -3 154 7 119 79 c 0
 102 114 100 150 100 192 c 2
 100 213 l 2
 100 223 101 234 101 246 c 1
 14 246 l 1
 14 323 l 1
 103 323 l 1
 103 352 104 384 105 422 c 1
 99 422 l 2
 85 422 72 420 59 417 c 1
 49 488 l 1
 61 492 83 494 99 494 c 2
 106 494 l 1
 106 528 106 574 106 608 c 1
 184 608 l 1
 184 576 183 530 183 497 c 1
 242 497 l 1
 313 497 388 498 388 498 c 1
 397 498 l 1
 397 426 l 1
 242 426 l 2
 220 426 206 424 184 424 c 1
 182 385 181 352 180 323 c 1
 312 323 l 1
 312 246 l 1
 178 246 l 1
 178 234 177 223 177 213 c 2
EndSplineSet
EndChar
StartChar: Uogonek
Encoding: 370 370 304
Width: 520
VWidth: 15
Flags: HW
HStem: -222 71<272 388> -5 74<162 250> 631 4G<33 111 377 456>
VStem: 30 78<135 636> 190 76<-143 -49> 375 77<142 635>
LayerCount: 2
Fore
SplineSet
379 641 m 1
 456 635 l 1
 452 606 452 584 452 558 c 0
 452 487 453 425 453 371 c 2
 453 343 l 2
 453 230 451 121 396 58 c 1
 348 0 266 -35 266 -111 c 0
 266 -138 294 -151 325 -151 c 0
 353 -151 373 -136 388 -125 c 1
 426 -177 l 1
 405 -200 362 -222 323 -222 c 0
 231 -222 190 -177 190 -111 c 0
 190 -61 216 -38 251 -4 c 1
 248 -4 244 -5 240 -5 c 0
 90 -5 42 76 33 218 c 0
 31 255 30 314 30 380 c 0
 30 464 31 559 34 636 c 1
 111 636 l 1
 109 555 107 445 107 355 c 0
 107 295 109 243 111 214 c 0
 120 111 160 69 234 69 c 1
 286 71 311 83 337 110 c 1
 370 146 375 247 375 343 c 0
 375 403 373 474 373 557 c 0
 373 592 374 611 379 641 c 1
EndSplineSet
EndChar
StartChar: uogonek
Encoding: 371 371 305
Width: 517
VWidth: 15
Flags: HW
HStem: -217 71<307 423> 1 75<157 286> 489 9G<65 128 361 438>
VStem: 56 76<88 342> 225 76<-138 -71> 361 77<135 498>
LayerCount: 2
Fore
SplineSet
480 40 m 1
 369 -56 301 -62 301 -105 c 0
 301 -132 328 -146 359 -146 c 0
 387 -146 407 -130 422 -119 c 1
 460 -171 l 1
 439 -194 396 -217 357 -217 c 0
 265 -217 225 -171 225 -105 c 0
 225 -34 317 -9 393 42 c 1
 387 50 381 60 377 77 c 1
 336 35 289 2 216 1 c 1
 211 1 l 2
 181 1 139 1 110 21 c 0
 88 36 56 64 56 104 c 0
 55 235 57 444 44 485 c 1
 123 499 l 1
 134 454 131 301 132 122 c 1
 135 105 145 93 156 85 c 0
 163 80 188 76 208 76 c 1
 241 77 261 82 286 97 c 0
 309 111 342 125 361 168 c 1
 361 498 l 1
 438 498 l 1
 438 117 l 1
 439 92 460 56 480 40 c 1
EndSplineSet
EndChar
StartChar: zdotaccent
Encoding: 380 380 314
Width: 520
VWidth: 15
Flags: HW
HStem: -11 10G<435 448> 0 76<120 445> 420 78<60 329> 575 110<188 303>
VStem: 188 115<575 685>
LayerCount: 2
Fore
SplineSet
188 685 m 1
 303 685 l 1
 303 575 l 1
 188 575 l 1
 188 685 l 1
EndSplineSet
Refer: 25 122 N 1 0 0 1 0 0 3
EndChar
StartChar: longs
Encoding: 383 383 317
Width: 517
VWidth: 0
Flags: HW
HStem: 0 10G<184 260> 419 75<72 182> 618 74<276 424>
VStem: 182 77<0 419 494 601>
LayerCount: 2
Fore
SplineSet
423 613 m 1
 402 617 370 618 335 618 c 0
 263 618 259 571 259 518 c 2
 259 495 l 1
 259 420 260 2 260 0 c 1
 184 0 l 1
 184 12 183 347 182 419 c 1
 72 419 l 1
 72 494 l 1
 183 494 l 1
 183 502 182 511 182 520 c 0
 182 590 195 692 331 692 c 0
 368 692 409 691 438 686 c 1
 423 613 l 1
EndSplineSet
EndChar
StartChar: uni0180
Encoding: 384 384 976
Width: 520
VWidth: 0
Flags: HW
HStem: -3 75<194 340> 422 76<190 322> 551 76<0 69 148 309> 680 10G<64 143>
VStem: 62 81<3 40 628 685> 72 77<118 384 463 551 627 684> 383 77<122 354>
LayerCount: 2
Fore
SplineSet
459 224 m 0xf6
 459 93 407 -3 273 -3 c 0
 218 -3 179 14 148 41 c 1xf6
 148 20 145 10 143 -6 c 1
 62 3 l 1xfa
 67 35 72 78 72 119 c 0
 72 123 72 126 72 130 c 0
 72 248 71 416 71 551 c 1
 0 551 l 1
 0 627 l 1
 69 627 l 1
 68 648 66 667 64 685 c 1
 142 689 l 1
 144 670 146 649 147 627 c 1
 309 627 l 1
 309 551 l 1
 148 551 l 1
 148 463 l 1
 171 481 193 498 242 498 c 0
 400 498 459 388 459 224 c 0xf6
383 233 m 0
 383 371 329 422 249 422 c 0
 205 422 173 388 148 363 c 1
 148 150 l 1
 183 94 206 72 273 72 c 0
 356 72 383 133 383 233 c 0
EndSplineSet
EndChar
StartChar: uni0190
Encoding: 400 400 428
Width: 517
VWidth: 0
Flags: HW
HStem: 0 75<153 348> 320 74<169 295> 515 10G<399 422> 559 75<167 371>
VStem: 26 74<124 268> 54 74<430 524>
LayerCount: 2
Fore
SplineSet
459 79 m 1xf8
 425 53 367 0 245 0 c 0
 160 0 115 17 77 52 c 0
 34 93 26 141 26 190 c 0xf8
 26 277 56 338 128 356 c 1
 75 374 54 428 54 481 c 0
 54 576 125 633 261 633 c 2
 267 633 l 2
 377 633 419 603 454 583 c 1
 417 515 l 1
 383 536 330 559 262 559 c 0
 184 559 127 528 127 481 c 0xf4
 127 400 233 394 285 394 c 2
 287 394 l 1
 295 394 l 1
 295 320 l 1
 283 320 270 320 258 320 c 0
 228 320 200 319 165 305 c 0
 113 285 100 222 100 189 c 0
 100 117 160 75 245 75 c 0
 335 75 387 117 411 139 c 1
 459 79 l 1xf8
EndSplineSet
EndChar
StartChar: uni0191
Encoding: 401 401 339
Width: 520
VWidth: 0
Flags: HW
HStem: -120 81<12 65> 326 73<173 346> 559 75<173 441>
VStem: 97 76<-9 325 398 559>
LayerCount: 2
Fore
SplineSet
8 -39 m 1
 56 -39 98 0 98 48 c 1
 97 634 l 1
 391 634 l 1
 429 633 452 625 469 617 c 1
 441 545 l 1
 428 552 418 559 370 559 c 1
 336 559 l 2
 285 559 262 559 173 559 c 1
 173 398 l 1
 232 398 224 399 284 399 c 0
 327 399 356 393 356 393 c 2
 365 390 l 1
 347 319 l 1
 329 323 304 326 282 326 c 0
 261 326 249 326 237 326 c 0
 219 326 205 326 173 325 c 1
 173 266 176 89 176 44 c 0
 176 -50 102 -116 12 -120 c 1
 8 -39 l 1
EndSplineSet
EndChar
StartChar: florin
Encoding: 402 402 340
Width: 517
VWidth: 0
Flags: HW
HStem: -153 72<48 125> 419 75<90 159 236 397> 618 74<254 404>
VStem: 159 77<-44 419 495 598>
LayerCount: 2
Fore
SplineSet
161 74 m 0
 161 86 160 347 159 419 c 1
 90 419 l 1
 90 494 l 1
 160 494 l 1
 160 502 159 511 159 520 c 0
 159 590 174 692 309 692 c 0
 388 692 453 680 494 598 c 1
 432 561 l 1
 408 609 376 618 312 618 c 0
 240 618 236 571 236 518 c 2
 236 495 l 1
 269 495 297 494 333 494 c 1
 384 493 397 488 412 484 c 1
 398 413 l 1
 388 416 377 419 350 419 c 2
 236 419 l 1
 236 344 238 76 238 74 c 0
 238 -51 203 -153 42 -153 c 0
 48 -81 l 0
 132 -81 161 -46 161 74 c 0
EndSplineSet
EndChar
StartChar: uni01A4
Encoding: 420 420 972
Width: 517
VWidth: 0
Flags: HW
HStem: -5 10G<148 225> 225 74<226 349> 562 74<110 148 226 357>
VStem: 12 78<453 544> 148 78<-4 226 299 558> 397 79<347 520>
LayerCount: 2
Fore
SplineSet
397 439 m 0
 397 533 343 562 290 562 c 1
 260 562 248 560 226 560 c 1
 226 498 l 2
 226 409 226 299 226 299 c 1
 226 299 250 299 266 299 c 0
 343 299 397 328 397 439 c 0
225 -5 m 1
 148 -4 l 1
 148 558 l 1
 117 556 90 546 90 453 c 1
 12 453 l 1
 12 585 73 626 146 632 c 0
 172 634 214 636 279 636 c 0
 414 636 476 560 476 442 c 0
 476 296 401 225 290 225 c 0
 267 225 246 225 226 226 c 1
 226 98 225 71 225 -5 c 1
EndSplineSet
EndChar
StartChar: uni01EA
Encoding: 490 490 516
Width: 520
VWidth: 0
Flags: HW
HStem: -232 70<243 359> 571 75<184 320>
VStem: 20 78<157 450> 160 76<-154 -65> 397 77<171 461>
LayerCount: 2
Fore
SplineSet
255 646 m 1
 316 646 473 610 475 309 c 1
 475 303 l 2
 475 223 453 148 430 103 c 1
 378 -7 236 -29 236 -121 c 0
 236 -148 264 -162 295 -162 c 0
 323 -162 343 -146 358 -135 c 1
 396 -187 l 1
 375 -210 332 -232 293 -232 c 0
 201 -232 160 -187 160 -121 c 0
 160 -73 181 -43 220 -6 c 1
 170 0 120 21 87 62 c 0
 43 116 20 190 20 278 c 0
 20 446 58 519 92 565 c 0
 124 609 179 645 255 646 c 1
139 118 m 0
 163 86 196 67 249 67 c 0
 306 67 341 99 363 140 c 1
 383 171 397 253 397 305 c 1
 397 314 l 2
 397 370 389 445 363 495 c 0
 335 551 300 571 257 571 c 0
 211 571 183 558 155 521 c 0
 121 478 98 408 98 280 c 0
 98 229 112 154 139 118 c 0
EndSplineSet
EndChar
StartChar: uni01EB
Encoding: 491 491 517
Width: 517
VWidth: 0
Flags: HW
HStem: -231 70<220 335> 429 75<172 312>
VStem: 35 77<132 360> 137 76<-152 -78> 363 78<136 370>
LayerCount: 2
Fore
SplineSet
319 105 m 1
 351 135 363 187 363 259 c 0
 363 262 363 265 363 268 c 0
 362 358 330 429 244 429 c 0
 142 429 112 348 112 229 c 0
 112 134 154 76 236 76 c 1
 273 76 295 84 319 105 c 1
392 73 m 1
 334 -12 213 -66 213 -120 c 0
 213 -147 241 -161 272 -161 c 0
 300 -161 320 -145 335 -134 c 1
 373 -186 l 1
 352 -209 309 -231 270 -231 c 0
 178 -231 137 -186 137 -120 c 0
 137 -70 178 -35 222 1 c 1
 98 7 35 95 35 227 c 0
 35 370 85 504 228 504 c 0
 324 504 378 470 412 406 c 0
 432 367 440 312 440 265 c 0
 440 191 428 122 392 73 c 1
EndSplineSet
EndChar
StartChar: aringacute
Encoding: 507 507 459
Width: 517
VWidth: 0
Flags: HW
HStem: -3 74<134 275> 246 70<159 336> 428 74<150 312> 516 61<198 274> 646 61<197 274> 699 225
VStem: 38 76<91 207> 130 63<582 641> 139 288 277 64<581 641> 354 77<139 226 292 385>
LayerCount: 2
Fore
SplineSet
193 612 m 0xfb40
 193 595 211 577 235 577 c 0
 260 577 277 595 277 612 c 0
 277 629 260 646 235 646 c 0
 210 646 193 629 193 612 c 0xfb40
130 611 m 0
 130 665 179 706 236 706 c 0
 292 706 342 665 342 611 c 0
 342 557 292 516 236 516 c 0
 179 516 130 557 130 611 c 0
114 152 m 0
 114 101 142 71 187 71 c 0
 290 71 341 148 354 168 c 1
 354 215 l 1xf220
 326 232 290 246 239 246 c 0
 173 246 114 210 114 152 c 0
430 155 m 0
 430 138 431 92 437 84 c 0
 443 75 461 64 475 53 c 1
 435 -5 l 1
 410 15 380 27 371 76 c 1
 333 39 283 -3 187 -3 c 0
 104 -3 38 66 38 147 c 0
 38 184 53 227 82 257 c 0
 128 304 177 316 235 316 c 0
 297 316 328 308 354 292 c 1
 354 384 320 428 237 428 c 0
 170 428 139 414 100 344 c 1
 36 384 l 1
 83 473 149 502 236 502 c 1
 354 502 430 426 430 316 c 0
 430 155 l 0
EndSplineSet
Refer: 323 769 N 1 0 0 1 29 74 2
EndChar
StartChar: uni0227
Encoding: 551 551 483
Width: 520
VWidth: 0
Flags: HW
HStem: -3 74<134 275> 246 70<159 336> 428 74<150 312> 575 110<173 288>
VStem: 38 76<91 207> 173 115<575 685> 354 77<139 226 292 385>
LayerCount: 2
Fore
SplineSet
173 685 m 1
 288 685 l 1
 288 575 l 1
 173 575 l 1
 173 685 l 1
EndSplineSet
Refer: 0 97 N 1 0 0 1 0 0 3
EndChar
StartChar: uni0228
Encoding: 552 552 484
Width: 520
VWidth: 0
Flags: HW
HStem: -197 61<159 259> -1 73<125 181 251 439> 325 73<127 341> 559 75<127 434>
VStem: 50 77<72 325 398 559> 181 71<-34 -1> 261 66<-132 -84>
LayerCount: 2
Fore
SplineSet
50 631 m 1
 77 633 111 633 149 633 c 0
 164 633 180 633 197 633 c 2
 251 633 l 2
 324 633 390 632 426 632 c 2
 434 632 l 1
 434 559 l 1
 127 559 l 1
 127 398 l 1
 341 398 l 1
 341 325 l 1
 127 325 l 1
 127 311 l 2
 127 212 125 110 125 72 c 1
 382 73 l 2
 409 73 439 85 439 85 c 1
 460 13 l 1
 437 7 420 -1 383 -1 c 2
 251 -1 l 1
 251 -11 251 -30 251 -31 c 1
 298 -33 327 -64 327 -115 c 0
 327 -164 278 -197 237 -197 c 0
 205 -197 170 -185 143 -167 c 1
 161 -115 l 1
 177 -124 197 -136 222 -136 c 0
 240 -136 260 -126 261 -107 c 1
 261 -106 l 2
 261 -92 242 -80 219 -80 c 0
 196 -80 195 -83 181 -88 c 1
 181 -1 l 1
 50 -1 l 1
 50 631 l 1
EndSplineSet
EndChar
StartChar: uni0229
Encoding: 553 553 485
Width: 517
VWidth: 0
Flags: HW
HStem: -200 61<187 287> -2 72<170 209 280 331> 225 73<215 373> 424 74<177 318>
VStem: 38 77<126 210 283 360> 209 71<-38 -1> 289 66<-136 -88> 373 78<298 366>
LayerCount: 2
Fore
SplineSet
115 283 m 1
 168 288 286 296 356 298 c 2
 373 298 l 1
 370 374 315 424 249 424 c 0
 166 424 115 358 115 283 c 1
249 499 m 0
 433 499 451 313 451 246 c 0
 451 236 450 229 450 225 c 1
 311 223 196 214 115 208 c 1
 115 133 156 70 247 70 c 0
 324 70 366 113 383 140 c 1
 442 89 l 1
 436 79 391 10 280 -3 c 1
 280 -13 280 -34 280 -35 c 1
 327 -37 355 -67 355 -118 c 0
 355 -167 307 -200 266 -200 c 0
 234 -200 198 -188 171 -170 c 1
 189 -119 l 1
 205 -128 225 -139 250 -139 c 0
 268 -139 288 -130 289 -111 c 1
 289 -110 l 2
 289 -96 270 -83 247 -83 c 0
 224 -83 223 -87 209 -92 c 1
 209 -2 l 1
 94 15 38 113 38 252 c 0
 38 392 111 499 249 499 c 0
EndSplineSet
EndChar
StartChar: uni022F
Encoding: 559 559 491
Width: 517
VWidth: 0
Flags: HW
HStem: 0 76<168 308> 429 75<172 312> 575 110<171 286>
VStem: 35 77<133 360> 171 115<575 685> 363 78<137 370>
LayerCount: 2
Fore
SplineSet
171 685 m 1
 286 685 l 1
 286 575 l 1
 171 575 l 1
 171 685 l 1
EndSplineSet
Refer: 14 111 N 1 0 0 1 0 0 3
EndChar
StartChar: uni0237
Encoding: 567 567 332
Width: 520
VWidth: 0
Flags: HW
HStem: -189 76<159 289> 422 76<183 306>
VStem: 306 76<-96 422>
LayerCount: 2
Fore
SplineSet
306 -56 m 1
 306 422 l 1
 303 422 301 422 298 422 c 0
 250 422 225 418 181 408 c 1
 167 477 l 1
 222 490 274 498 325 498 c 2
 382 498 l 1
 382 -58 l 0
 382 -129 352 -189 236 -189 c 3
 176 -189 106 -178 44 -78 c 1
 106 -30 l 1
 154 -109 195 -113 226 -113 c 0
 229 -113 232 -113 234 -113 c 3
 289 -113 305 -73 306 -56 c 1
EndSplineSet
EndChar
StartChar: uni0527
Encoding: 730 730 963
Width: 517
VWidth: -12
Flags: HW
HStem: 450 61<184 260> 580 61<182 261>
VStem: 117 63<516 575> 264 64<516 575>
LayerCount: 2
Back
SplineSet
3.90625 700.1953125 m 5
 160.15625 700.1953125 l 5
 160.15625 437.98828125 l 5
 165.0390625 437.98828125 l 5
 195.80078125 473.14453125 195.80078125 473.14453125 236.81640625 492.67578125 c 132
 277.83203125 512.20703125 277.83203125 512.20703125 338.8671875 512.20703125 c 4
 386.71875 512.20703125 386.71875 512.20703125 422.36328125 502.197265625 c 132
 458.0078125 492.1875 458.0078125 492.1875 480.46875 467.041015625 c 132
 502.9296875 441.89453125 502.9296875 441.89453125 513.916015625 398.4375 c 132
 524.90234375 354.98046875 524.90234375 354.98046875 524.90234375 288.0859375 c 6
 524.90234375 66.89453125 l 5
 604.00390625 66.89453125 l 5
 604.00390625 -120.1171875 l 5
 536.1328125 -120.1171875 l 5
 536.1328125 0 l 5
 446.77734375 0 l 5
 446.77734375 272.94921875 l 6
 446.77734375 315.91796875 446.77734375 315.91796875 441.89453125 347.900390625 c 132
 437.01171875 379.8828125 437.01171875 379.8828125 422.607421875 401.3671875 c 132
 408.203125 422.8515625 408.203125 422.8515625 383.056640625 433.837890625 c 132
 357.91015625 444.82421875 357.91015625 444.82421875 318.84765625 444.82421875 c 4
 291.9921875 444.82421875 291.9921875 444.82421875 266.11328125 435.302734375 c 132
 240.234375 425.78125 240.234375 425.78125 218.505859375 409.423828125 c 132
 196.77734375 393.06640625 196.77734375 393.06640625 181.396484375 369.62890625 c 132
 166.015625 346.19140625 166.015625 346.19140625 160.15625 317.87109375 c 5
 160.15625 0 l 5
 83.0078125 0 l 5
 83.0078125 632.8125 l 5
 3.90625 632.8125 l 5
 3.90625 700.1953125 l 5
EndSplineSet
Fore
SplineSet
180 546 m 0
 180 529 197 511 222 511 c 0
 247 511 264 529 264 546 c 0
 264 563 247 580 222 580 c 0
 197 580 180 563 180 546 c 0
117 545 m 0
 117 599 167 641 223 641 c 0
 279 641 328 599 328 545 c 0
 328 491 279 450 223 450 c 0
 167 450 117 491 117 545 c 0
EndSplineSet
EndChar
StartChar: ogonek
Encoding: 731 731 513
Width: 517
VWidth: 5
Flags: HW
HStem: -217 70<234 349>
VStem: 151 76<-138 -72>
LayerCount: 2
Fore
SplineSet
383 20 m 0
 332 -22 227 -69 227 -105 c 0
 227 -132 255 -146 286 -146 c 0
 314 -146 334 -131 349 -120 c 1
 387 -171 l 1
 366 -194 323 -217 284 -217 c 0
 192 -217 151 -171 151 -105 c 0
 151 -17 280 3 304 33 c 1
 383 20 l 0
EndSplineSet
EndChar
StartChar: gravecomb
Encoding: 768 768 322
Width: 517
VWidth: -20
Flags: HW
HStem: 625 225
VStem: 79 288
LayerCount: 2
Fore
SplineSet
367 697 m 1
 334 625 l 1
 264 648 133 724 79 779 c 1
 139 850 l 1
 195 797 297 720 367 697 c 1
EndSplineSet
EndChar
StartChar: acutecomb
Encoding: 769 769 323
Width: 517
VWidth: -20
Flags: HW
HStem: 625 225
VStem: 109 288
LayerCount: 2
Fore
SplineSet
109 697 m 1
 179 720 281 797 337 850 c 1
 397 779 l 1
 343 724 213 648 143 625 c 1
 109 697 l 1
EndSplineSet
EndChar
StartChar: uni0302
Encoding: 770 770 324
Width: 517
VWidth: -4
Flags: HW
HStem: 618 212
LayerCount: 2
Fore
SplineSet
253 830 m 1
 437 670 l 1
 384 618 l 1
 252 726 l 1
 125 618 l 1
 74 670 l 1
 253 830 l 1
EndSplineSet
EndChar
StartChar: tildecomb
Encoding: 771 771 325
Width: 517
VWidth: -5
Flags: HW
HStem: 689 75<261 362> 749 75<116 226>
LayerCount: 2
Fore
SplineSet
167 823 m 0x40
 239 823 267 764 311 764 c 0
 342 764 376 783 383 826 c 1
 455 801 l 1
 439 742 382 689 318 689 c 0x80
 250 689 221 749 172 749 c 0
 143 749 116 744 97 692 c 1
 29 729 l 1
 65 809 113 823 167 823 c 0x40
EndSplineSet
EndChar
StartChar: uni0304
Encoding: 772 772 326
Width: 520
VWidth: -16
Flags: HW
HStem: 719 74<125 347>
VStem: 125 222<720 793>
LayerCount: 2
Fore
SplineSet
347 793 m 1
 347 719 l 1
 338 719 l 0
 310 718 276 718 240 718 c 0
 204 718 167 718 134 719 c 0
 125 720 l 1
 125 795 l 1
 134 794 l 0
 166 793 213 793 258 793 c 0
 288 793 316 793 338 793 c 0
 347 793 l 1
EndSplineSet
EndChar
StartChar: uni0305
Encoding: 773 773 327
Width: 520
VWidth: -16
Flags: HW
HStem: 719 76<42 420>
LayerCount: 2
Fore
SplineSet
420 793 m 1
 420 719 l 1
 42 719 l 1
 42 795 l 1
 420 793 l 1
EndSplineSet
EndChar
StartChar: uni0306
Encoding: 774 774 328
Width: 517
VWidth: -5
Flags: HW
HStem: 663 75<180 317>
VStem: 75 76<767 797> 345 81<765 793>
LayerCount: 2
Fore
SplineSet
249 737 m 0
 302 737 342 768 345 806 c 1
 426 792 l 1
 414 706 330 663 249 663 c 1
 187 663 98 686 75 796 c 1
 151 811 l 1
 164 754 204 737 249 737 c 0
EndSplineSet
EndChar
StartChar: uni0307
Encoding: 775 775 330
Width: 520
VWidth: -13
Flags: HW
HStem: 696 110<163 278>
VStem: 163 115<696 805>
LayerCount: 2
Fore
SplineSet
163 806 m 1
 278 805 l 1
 278 695 l 1
 163 696 l 1
 163 806 l 1
EndSplineSet
EndChar
StartChar: uni0308
Encoding: 776 776 329
Width: 520
VWidth: -13
Flags: HW
HStem: 690 110<86 201 285 399>
VStem: 86 115<691 800> 285 115<690 798>
LayerCount: 2
Fore
SplineSet
285 800 m 1
 399 798 l 1
 399 688 l 1
 285 690 l 1
 285 800 l 1
86 801 m 1
 201 800 l 1
 201 690 l 1
 86 691 l 1
 86 801 l 1
EndSplineSet
EndChar
StartChar: hookabovecomb
Encoding: 777 777 336
Width: 520
VWidth: 5
Flags: HW
HStem: 465 85<235 305> 467 92<234 271> 606 61<213 313>
VStem: 234 71<467 505> 314 66<555 603>
LayerCount: 2
Fore
SplineSet
306 465 m 1xb8
 234 467 l 1
 234 559 l 1x78
 248 554 249 551 272 551 c 0
 295 551 314 563 314 577 c 2
 314 578 l 1
 313 597 293 606 275 606 c 0
 250 606 231 595 215 586 c 1
 196 638 l 1
 223 656 259 667 291 667 c 0
 332 667 381 634 381 585 c 0
 381 534 352 504 305 502 c 1
 305 501 306 469 306 465 c 1xb8
EndSplineSet
EndChar
StartChar: uni030A
Encoding: 778 778 331
Width: 517
VWidth: -3
Flags: HW
HStem: 628 57<213 294> 753 61<214 295>
VStem: 143 67<690 749> 298 68<690 748>
LayerCount: 2
Fore
SplineSet
254 753 m 0
 227 753 210 736 210 719 c 0
 210 702 228 685 254 685 c 0
 280 685 298 702 298 719 c 0
 298 736 281 753 254 753 c 0
143 719 m 0
 143 773 194 814 254 814 c 0
 314 814 366 773 366 719 c 0
 366 665 319 628 254 628 c 0
 192 628 143 666 143 719 c 0
EndSplineSet
EndChar
StartChar: uni030B
Encoding: 779 779 333
Width: 520
VWidth: -20
Flags: HW
HStem: 565 252
LayerCount: 2
Fore
SplineSet
217 622 m 1
 274 668 336 749 370 818 c 1
 445 769 l 1
 413 699 331 611 273 565 c 1
 217 622 l 1
53 625 m 1
 110 671 172 752 206 821 c 1
 281 773 l 1
 249 703 167 615 109 569 c 1
 53 625 l 1
EndSplineSet
EndChar
StartChar: uni030C
Encoding: 780 780 334
Width: 520
VWidth: -4
Flags: HW
HStem: 595 208
LayerCount: 2
Fore
SplineSet
254 595 m 1
 74 750 l 1
 125 802 l 1
 255 696 l 1
 384 802 l 1
 436 750 l 1
 254 595 l 1
EndSplineSet
EndChar
StartChar: uni030D
Encoding: 781 781 337
Width: 517
VWidth: -16
Flags: HW
HStem: 625 170<207 284>
VStem: 207 78<625 795>
LayerCount: 2
Fore
SplineSet
207 795 m 1
 284 795 l 1
 284 625 l 1
 207 625 l 1
 207 795 l 1
EndSplineSet
EndChar
StartChar: uni030F
Encoding: 783 783 335
Width: 520
VWidth: -20
Flags: HW
HStem: 567 275
LayerCount: 2
Fore
SplineSet
441 632 m 1
 380 582 l 1
 327 633 254 729 229 802 c 1
 309 842 l 1
 336 770 389 684 441 632 c 1
282 618 m 1
 221 567 l 1
 168 618 94 715 69 788 c 1
 149 828 l 1
 176 756 230 670 282 618 c 1
EndSplineSet
EndChar
StartChar: uni0311
Encoding: 785 785 494
Width: 517
VWidth: -5
Flags: HW
HStem: 737 75<180 317>
VStem: 75 76<677 707> 345 81<682 710>
LayerCount: 2
Fore
SplineSet
249 737 m 0
 204 737 164 721 151 664 c 1
 75 679 l 1
 98 789 187 812 249 812 c 1
 330 812 414 769 426 683 c 1
 345 668 l 1
 342 706 302 737 249 737 c 0
EndSplineSet
EndChar
StartChar: uni0313
Encoding: 787 787 497
Width: 517
VWidth: 12
Flags: HW
HStem: 537 243
VStem: 209 107<672 780> 237 80<611 672>
LayerCount: 2
Fore
SplineSet
209 780 m 1xc0
 316 780 l 1
 316 675 l 1xc0
 316 601 284 564 221 537 c 1
 195 599 l 1
 224 613 237 624 237 672 c 1xa0
 209 672 l 1
 209 780 l 1xc0
EndSplineSet
EndChar
StartChar: uni0314
Encoding: 788 788 498
Width: 520
VWidth: 12
Flags: HW
HStem: 537 243
VStem: 201 107<672 780> 201 80<611 672>
LayerCount: 2
Fore
SplineSet
308 780 m 1xc0
 308 672 l 1xc0
 280 672 l 1xa0
 280 624 293 613 322 599 c 1
 296 537 l 1
 233 564 201 601 201 675 c 1
 201 780 l 1
 308 780 l 1xc0
EndSplineSet
EndChar
StartChar: uni0326
Encoding: 806 806 520
Width: 517
VWidth: 12
Flags: HW
HStem: -241 243
VStem: 220 107<-106 2> 247 80<-167 -106>
LayerCount: 2
Fore
SplineSet
220 2 m 1xc0
 327 2 l 1
 327 -103 l 2xc0
 327 -177 294 -214 231 -241 c 1
 205 -179 l 1
 234 -165 247 -154 247 -106 c 1xa0
 220 -106 l 1
 220 2 l 1xc0
EndSplineSet
EndChar
StartChar: tonos
Encoding: 900 900 392
Width: 517
VWidth: -20
Flags: HW
HStem: 597 240
VStem: 265 88<763 814>
LayerCount: 2
Fore
SplineSet
177 640 m 1
 223 697 246 761 265 836 c 1
 353 812 l 1
 337 737 290 654 244 597 c 1
 177 640 l 1
EndSplineSet
EndChar
StartChar: Alpha
Encoding: 913 913 368
Width: 520
VWidth: 0
Flags: HW
HStem: -9 10G<404 460> 159 80<169 331> 624 10G<222 283>
LayerCount: 2
Fore
SplineSet
225 634 m 1
 280 634 l 1
 487 5 l 1
 407 -9 l 1
 358 159 l 1
 289 158 194 158 140 145 c 1
 90 -12 l 1
 11 0 l 1
 225 634 l 1
331 239 m 1
 252 479 l 1
 168 229 l 1
 197 235 221 237 262 239 c 1
 331 239 l 1
EndSplineSet
EndChar
StartChar: Gamma
Encoding: 915 915 370
Width: 517
VWidth: 0
Flags: HW
HStem: 0 10G<54 133> 560 75<133 445>
VStem: 54 79<0 560>
LayerCount: 2
Fore
SplineSet
54 635 m 1
 388 635 l 2
 425 635 443 629 466 621 c 1
 446 549 l 1
 425 556 416 559 387 560 c 1
 133 560 l 1
 133 0 l 1
 54 0 l 1
 54 635 l 1
EndSplineSet
EndChar
StartChar: Delta
Encoding: 916 916 384
Width: 520
VWidth: 0
Flags: HW
HStem: -2 76<115 386> 624 10G<222 283>
LayerCount: 2
Fore
SplineSet
407 0 m 1
 91 -2 l 1
 12 9 l 1
 225 634 l 1
 280 634 l 1
 487 15 l 1
 407 0 l 1
252 479 m 1
 206 340 159 214 115 74 c 1
 386 74 l 1
 346 217 296 341 252 479 c 1
EndSplineSet
EndChar
StartChar: Epsilon
Encoding: 917 917 371
Width: 520
VWidth: 0
Flags: HW
HStem: -1 73<125 439> 325 73<127 341> 559 75<127 434>
VStem: 50 77<72 325 398 559>
LayerCount: 2
Fore
SplineSet
50 631 m 1
 77 633 111 633 149 633 c 0
 164 633 180 633 197 633 c 2
 251 633 l 2
 324 633 390 632 426 632 c 2
 434 632 l 1
 434 559 l 1
 127 559 l 1
 127 398 l 1
 341 398 l 1
 341 325 l 1
 127 325 l 1
 127 311 l 2
 127 212 125 110 125 72 c 1
 382 73 l 2
 409 73 439 85 439 85 c 1
 460 13 l 1
 437 7 420 -1 383 -1 c 2
 50 -1 l 1
 50 631 l 1
EndSplineSet
EndChar
StartChar: Zeta
Encoding: 918 918 372
Width: 520
VWidth: 0
Flags: HW
HStem: -1 75<128 451> 562 74<43 369>
LayerCount: 2
Fore
SplineSet
60 -2 m 1
 14 41 l 1
 369 562 l 1
 265 562 99 559 43 559 c 1
 43 634 l 1
 102 634 307 636 399 636 c 0
 436 636 459 629 468 628 c 1
 467 612 461 572 459 561 c 1
 128 74 l 1
 366 73 l 2
 408 73 421 75 453 85 c 1
 472 13 l 1
 450 5 432 -1 395 -1 c 2
 276 -1 l 2
 172 -1 86 -2 63 -2 c 2
 60 -2 l 1
EndSplineSet
EndChar
StartChar: Eta
Encoding: 919 919 373
Width: 517
VWidth: 0
Flags: HW
HStem: 0 10G<29 108 368 445> 305 74<110 368> 623 7G<29 107 368 445>
VStem: 29 78<0 295 366 632> 368 77<0 305 379 630>
LayerCount: 2
Fore
SplineSet
107 633 m 1
 107 366 l 1
 152 376 198 379 257 379 c 2
 368 379 l 1
 368 513 368 551 368 630 c 1
 445 630 l 1
 445 0 l 1
 368 0 l 1
 368 305 l 1
 347 305 326 305 305 305 c 0
 234 305 165 304 107 292 c 1
 107 125 108 88 108 0 c 1
 29 0 l 1
 29 632 l 1
 107 633 l 1
EndSplineSet
EndChar
StartChar: Iota
Encoding: 921 921 375
Width: 517
VWidth: 0
Flags: HW
HStem: 2 72<65 206 284 415> 559 75<67 206 284 417>
VStem: 206 78<74 562>
LayerCount: 2
Fore
SplineSet
64 634 m 1
 140 636 190 636 237 636 c 0
 288 636 337 635 417 634 c 1
 417 560 l 1
 357 560 331 562 284 562 c 1
 284 74 l 1
 306 74 319 75 344 75 c 0
 366 75 390 74 415 73 c 1
 415 -0 l 1
 373 2 343 2 312 2 c 0
 289 2 265 2 236 2 c 0
 200 2 141 -1 65 -1 c 1
 65 71 l 1
 107 73 141 74 169 74 c 2
 206 74 l 1
 206 562 l 1
 174 562 119 562 67 559 c 1
 64 634 l 1
EndSplineSet
EndChar
StartChar: Kappa
Encoding: 922 922 376
Width: 517
VWidth: 0
Flags: HW
HStem: -2 4G<57 134 413 441> 629 10G<57 134 416 431>
VStem: 57 77<-2 248 343 639>
LayerCount: 2
Fore
SplineSet
236 354 m 1
 295 297 464 95 489 29 c 1
 424 -8 l 1
 402 45 252 231 189 293 c 1
 189 293 149 245 134 210 c 1
 134 -2 l 1
 57 -2 l 1
 57 639 l 1
 134 639 l 1
 134 343 l 1
 173 397 208 436 256 486 c 1
 349 581 411 630 421 640 c 1
 475 588 l 1
 386 524 265 390 236 354 c 1
EndSplineSet
EndChar
StartChar: Lambda
Encoding: 923 923 385
Width: 517
VWidth: 0
Flags: HW
HStem: -9 10G<380 460> 624 10G<222 283>
LayerCount: 2
Fore
SplineSet
407 -9 m 1
 353 156 305 317 252 479 c 1
 196 317 151 149 90 -12 c 1
 11 0 l 1
 225 634 l 1
 280 634 l 1
 487 5 l 1
 407 -9 l 1
EndSplineSet
EndChar
StartChar: Mu
Encoding: 924 924 377
Width: 517
VWidth: 15
Flags: HW
HStem: -2 10G<30 107 357 434> 631 10G<29 94 357 433>
VStem: 30 77<-2 439> 357 77<-2 449>
LayerCount: 2
Fore
SplineSet
29 637 m 1
 78 641 l 1
 111 594 147 518 181 458 c 0
 205 414 218 390 227 371 c 1
 268 447 336 578 376 641 c 1
 433 641 l 1
 434 -2 l 1
 357 -2 l 1
 356 449 l 1
 320 380 262 281 257 263 c 1
 198 265 l 1
 194 273 166 326 123 409 c 1
 113 430 114 425 107 439 c 1
 107 -2 l 1
 30 -2 l 1
 29 637 l 1
EndSplineSet
EndChar
StartChar: Nu
Encoding: 925 925 378
Width: 517
VWidth: 0
Flags: HW
HStem: -1 9G<37 114 327 445> 624 9G<37 114 370 447>
VStem: 37 77<-1 489> 366 77<-2 45 174 633>
LayerCount: 2
Fore
SplineSet
367 -3 m 1
 287 171 213 317 114 489 c 1
 114 389 l 2
 114 246 114 73 114 -1 c 1
 37 -1 l 1
 37 634 l 1
 114 632 l 1
 176 542 311 295 368 174 c 1
 367 237 366 305 366 370 c 0
 366 461 368 550 372 633 c 1
 447 633 l 1
 444 578 443 506 443 426 c 0
 443 316 445 191 445 79 c 0
 445 51 445 24 445 -2 c 1
 367 -3 l 1
EndSplineSet
EndChar
StartChar: Xi
Encoding: 926 926 386
Width: 520
VWidth: 0
Flags: HW
HStem: -1 73<50 439> 325 73<127 341> 559 75<51 434>
LayerCount: 2
Fore
SplineSet
127 398 m 1
 341 398 l 1
 341 325 l 1
 127 325 l 1
 127 398 l 1
50 631 m 1
 77 633 111 633 149 633 c 0
 164 633 180 633 197 633 c 2
 251 633 l 2
 324 633 390 632 426 632 c 2
 434 632 l 1
 434 559 l 1
 51 559 l 1
 50 631 l 1
49 72 m 1
 382 73 l 2
 409 73 439 85 439 85 c 1
 460 13 l 1
 437 7 420 -1 383 -1 c 2
 50 -1 l 1
 49 72 l 1
EndSplineSet
EndChar
StartChar: Omicron
Encoding: 927 927 379
Width: 520
VWidth: 0
Flags: HW
HStem: -8 75<171 319> 571 75<184 320>
VStem: 20 78<157 450> 397 77<171 461>
LayerCount: 2
Fore
SplineSet
139 118 m 0
 163 86 196 67 249 67 c 0
 306 67 341 99 363 140 c 1
 383 171 397 253 397 305 c 1
 397 314 l 2
 397 370 389 445 363 495 c 0
 335 551 300 571 257 571 c 0
 211 571 183 558 155 521 c 0
 121 478 98 408 98 280 c 0
 98 229 112 154 139 118 c 0
255 646 m 1
 316 646 473 610 475 309 c 1
 475 303 l 2
 475 223 453 148 430 103 c 0
 393 33 330 -8 249 -8 c 0
 189 -8 127 13 87 62 c 0
 43 116 20 190 20 278 c 0
 20 446 58 519 92 565 c 0
 124 609 179 645 255 646 c 1
EndSplineSet
EndChar
StartChar: Pi
Encoding: 928 928 387
Width: 517
VWidth: 0
Flags: HW
HStem: 0 10G<68 146 377 457> 559 74<147 368 445 488>
VStem: 68 79<0 552> 368 78<7 559>
LayerCount: 2
Fore
SplineSet
146 0 m 1
 68 0 l 1
 68 552 l 1
 54 550 40 548 25 545 c 1
 16 619 l 1
 61 629 107 633 166 633 c 2
 488 633 l 1
 488 559 l 1
 445 559 l 1
 445 185 l 2
 445 123 450 61 457 4 c 1
 382 -2 l 1
 373 57 368 125 368 188 c 2
 368 559 l 1
 206 559 l 2
 185 559 165 558 146 558 c 1
 146 0 l 1
EndSplineSet
EndChar
StartChar: Rho
Encoding: 929 929 380
Width: 520
VWidth: 0
Flags: HW
HStem: -5 10G<51 128> 225 74<128 326> 562 74<129 339>
VStem: 51 78<-4 226 299 560> 398 79<360 512>
LayerCount: 2
Fore
SplineSet
128 -5 m 1
 51 -4 l 1
 51 632 l 1
 109 632 127 636 192 636 c 0
 302 636 385 629 441 562 c 0
 467 530 477 486 477 442 c 0
 477 398 473 349 444 307 c 0
 396 239 320 225 203 225 c 0
 180 225 154 225 128 226 c 1
 128 98 128 71 128 -5 c 1
398 439 m 0
 398 541 323 559 203 562 c 1
 173 562 151 560 129 560 c 1
 129 498 l 2
 129 409 128 299 128 299 c 1
 146 299 163 299 179 299 c 0
 319 299 398 328 398 439 c 0
EndSplineSet
EndChar
StartChar: Sigma
Encoding: 931 931 388
Width: 517
VWidth: 0
Flags: HW
HStem: -1 73<129 439> 559 75<157 434>
LayerCount: 2
Fore
SplineSet
157 559 m 1
 364 367 l 1
 360 303 l 1
 129 72 l 1
 382 73 l 2
 409 73 439 85 439 85 c 1
 460 13 l 1
 437 7 420 -1 383 -1 c 2
 50 -1 l 1
 38 84 l 1
 290 335 l 1
 35 571 l 1
 50 631 l 1
 77 633 111 633 149 633 c 0
 164 633 180 633 197 633 c 2
 251 633 l 2
 324 633 390 632 426 632 c 2
 434 632 l 1
 434 559 l 1
 157 559 l 1
EndSplineSet
EndChar
StartChar: Upsilon
Encoding: 933 933 382
Width: 520
VWidth: 0
Flags: HW
HStem: -3 10G<195 273> 639 10G<65 94 395 421>
VStem: 195 78<-3 313>
LayerCount: 2
Fore
SplineSet
195 -3 m 1
 195 66 l 2
 195 110 198 235 198 293 c 1
 159 347 41 562 16 614 c 1
 84 648 l 1
 104 610 198 438 240 371 c 1
 288 439 385 613 404 655 c 1
 472 616 l 1
 449 570 413 501 362 419 c 1
 320 355 285 301 276 288 c 1
 276 265 275 241 275 215 c 1
 274 151 273 82 273 61 c 2
 273 -3 l 1
 195 -3 l 1
EndSplineSet
EndChar
StartChar: Phi
Encoding: 934 934 389
Width: 520
VWidth: 0
Flags: HW
HStem: 0 10G<209 289> 66 80<147 209 289 350> 483 76<149 210 288 351> 628 10G<210 288>
VStem: 20 78<204 424> 210 78<0 66 148 483 557 638> 397 77<203 430>
LayerCount: 2
Fore
SplineSet
210 67 m 1
 100 76 20 141 20 319 c 0
 20 457 93 550 210 560 c 1
 210 573 210 579 210 593 c 2
 210 638 l 1
 288 638 l 1
 288 575 l 1
 288 560 l 1
 392 550 475 491 475 311 c 0
 475 183 412 72 289 66 c 1
 289 58 289 51 289 42 c 3
 289 31 289 19 288 0 c 1
 209 0 l 1
 210 15 210 24 210 31 c 2
 210 67 l 1
289 146 m 1
 290 146 291 146 292 146 c 0
 374 146 396 233 397 312 c 1
 397 421 363 484 288 484 c 1
 288 393 289 296 289 171 c 2
 289 146 l 1
209 148 m 1
 209 270 210 388 210 483 c 1
 140 483 97 423 97 307 c 0
 97 203 138 148 209 148 c 1
EndSplineSet
EndChar
StartChar: Chi
Encoding: 935 935 383
Width: 517
VWidth: 0
Flags: HW
HStem: 645 5G<59 104 382 403>
LayerCount: 2
Fore
SplineSet
388 654 m 1
 453 613 l 1
 277 321 l 1
 360 191 409 105 478 38 c 1
 427 -18 l 1
 353 54 307 130 233 248 c 1
 78 -15 l 1
 14 26 l 1
 186 319 l 1
 127 419 79 528 11 604 c 1
 72 650 l 1
 135 579 182 474 232 390 c 1
 388 654 l 1
EndSplineSet
EndChar
StartChar: Psi
Encoding: 936 936 390
Width: 517
VWidth: 2
Flags: HW
HStem: 0 10G<221 301> 197 77<304 381> 636 4G<45 107 224 303 418 497>
VStem: 36 76<312 631> 224 80<0 199 274 640> 425 76<322 634>
LayerCount: 2
Fore
SplineSet
36 376 m 0
 36 405 36 433 36 458 c 0
 36 542 35 601 24 632 c 1
 103 646 l 1
 112 611 112 555 112 470 c 0
 112 447 112 422 112 394 c 0
 112 299 166 274 225 274 c 1
 225 299 225 325 225 350 c 0
 225 450 224 548 224 640 c 1
 303 640 l 1
 303 547 305 459 305 363 c 0
 305 334 304 305 304 274 c 1
 411 274 425 332 425 502 c 1
 424 547 422 596 418 634 c 1
 494 642 l 1
 499 602 501 553 501 521 c 0
 501 515 501 509 501 504 c 0
 501 315 478 214 303 197 c 1
 302 129 301 62 300 0 c 1
 221 0 l 1
 223 30 224 107 224 134 c 0
 224 154 224 176 224 197 c 1
 99 208 36 286 36 376 c 0
EndSplineSet
EndChar
StartChar: Omega
Encoding: 937 937 391
Width: 520
VWidth: 0
Flags: HW
HStem: 0 73<18 98 178 192 388 484> 571 75<173 340>
VStem: 9 78<204 462> 414 77<218 488>
LayerCount: 2
Fore
SplineSet
192 0 m 1
 18 0 l 1
 17 74 l 1
 98 74 l 1
 52 131 9 217 9 303 c 0
 9 471 44 519 78 565 c 0
 110 609 171 646 255 646 c 0
 370 646 491 602 491 333 c 2
 491 328 l 2
 491 206 432 122 388 74 c 1
 427 74 l 2
 454 74 484 87 484 87 c 1
 505 15 l 1
 482 9 466 0 431 0 c 0
 430 0 429 0 428 0 c 2
 297 0 l 1
 283 72 l 1
 319 102 414 187 414 330 c 2
 414 339 l 2
 414 345 414 350 414 356 c 0
 414 406 413 453 390 498 c 0
 362 554 300 571 257 571 c 0
 211 571 170 557 142 520 c 0
 108 477 86 433 86 305 c 0
 86 202 166 90 206 74 c 1
 192 0 l 1
EndSplineSet
EndChar
StartChar: alpha
Encoding: 945 945 341
Width: 517
VWidth: 1
Flags: HW
HStem: -3 77<164 255> 422 75<160 256> 495 10G<401 431>
VStem: 35 78<137 364>
LayerCount: 2
Fore
SplineSet
112 257 m 0xd0
 112 76 204 73 213 73 c 2
 220 73 l 2
 262 73 293 145 324 241 c 1
 288 364 264 422 207 422 c 0
 169 422 112 374 112 257 c 0xd0
402 241 m 1
 414 203 426 160 442 113 c 0
 451 85 463 66 495 53 c 1
 462 -16 l 1
 400 0 378 59 369 88 c 0
 366 99 362 110 359 121 c 1
 327 49 286 -3 222 -3 c 0
 81 -3 35 126 35 257 c 0
 35 436 127 497 212 497 c 0xd0
 293 497 327 459 362 363 c 1
 377 411 392 460 410 505 c 1xb0
 481 471 l 1
 449 409 427 323 402 241 c 1
EndSplineSet
EndChar
StartChar: beta
Encoding: 946 946 342
Width: 517
VWidth: 0
Flags: HW
HStem: 0 75<188 349> 327 75<143 267> 574 74<141 267>
VStem: 39 75<-139 55 150 546> 293 75<428 549> 386 75<114 270>
LayerCount: 2
Fore
SplineSet
292 75 m 0
 352 75 386 128 386 193 c 0
 386 320 284 327 143 327 c 1
 143 401 l 1
 224 401 293 402 293 491 c 0
 293 546 257 574 190 574 c 1
 143 574 114 529 114 485 c 0
 114 436 116 297 116 179 c 1
 163 94 209 75 292 75 c 0
116 55 m 1
 116 41 116 29 116 19 c 0
 116 -42 115 -99 111 -146 c 1
 37 -138 l 1
 42 -89 43 -36 43 18 c 0
 43 109 39 405 39 490 c 0
 39 566 93 648 190 648 c 0
 289 648 368 602 368 494 c 0
 368 444 354 406 327 380 c 1
 413 356 461 292 461 186 c 0
 461 83 415 1 292 0 c 0
 291 0 290 0 289 0 c 0
 214 0 160 19 116 55 c 1
EndSplineSet
EndChar
StartChar: gamma
Encoding: 947 947 343
Width: 517
VWidth: 6
Flags: HW
HStem: 434 74<10 47> 508 10G<396 422>
VStem: 240 78<-184 56>
LayerCount: 2
Fore
SplineSet
240 -184 m 1x60
 240 -132 238 -5 229 33 c 0
 201 154 134 306 88 383 c 0
 71 412 53 427 47 430 c 0
 40 434 29 434 17 434 c 0
 15 434 12 434 10 434 c 1
 10 508 l 1xa0
 26 508 45 508 59 506 c 0
 90 501 114 476 143 431 c 0
 190 357 240 238 274 140 c 1
 310 246 396 518 396 518 c 1
 471 490 l 1
 471 490 361 190 314 8 c 1
 317 -32 317 -85 317 -142 c 0
 317 -156 317 -171 317 -185 c 1
 240 -184 l 1x60
EndSplineSet
EndChar
StartChar: delta
Encoding: 948 948 344
Width: 520
VWidth: 2
Flags: HW
HStem: 0 76<168 308> 599 74<153 366>
VStem: 35 77<133 315> 58 78<514 580> 364 77<134 308>
LayerCount: 2
Fore
SplineSet
440 246 m 0xd8
 440 119 393 0 236 0 c 2
 235 0 l 1
 102 0 35 90 35 227 c 0xe8
 35 320 65 392 155 429 c 1
 133 440 113 450 100 460 c 0
 78 478 58 505 58 542 c 0
 58 551 60 561 62 572 c 0
 82 650 149 673 230 673 c 0
 291 673 359 660 418 646 c 1
 399 568 l 1
 334 586 275 599 228 599 c 0
 185 599 152 588 139 560 c 0
 137 555 136 549 136 545 c 0
 136 531 146 522 159 513 c 1
 277 437 440 409 440 246 c 0xd8
247 384 m 1
 166 368 112 324 112 229 c 0
 112 134 154 76 236 76 c 1
 273 76 295 84 319 105 c 1
 353 136 364 178 364 247 c 0
 364 308 309 350 247 384 c 1
EndSplineSet
EndChar
StartChar: epsilon
Encoding: 949 949 345
Width: 520
VWidth: 0
Flags: HW
HStem: -2 75<170 394> 249 74<194 343> 425 75<151 413>
VStem: 64 77<101 204 350 410>
LayerCount: 2
Fore
SplineSet
486 64 m 1
 451 38 382 -2 273 -2 c 0
 184 -2 145 15 108 44 c 0
 70 74 64 115 64 147 c 0
 64 210 96 267 170 285 c 1
 91 290 64 337 64 385 c 0
 64 456 132 500 283 500 c 2
 290 500 l 2
 403 500 438 475 447 469 c 1
 414 405 l 1
 402 412 355 425 284 425 c 0
 184 425 140 413 140 382 c 0
 140 326 278 323 332 323 c 2
 334 323 l 1
 343 323 l 1
 343 249 l 1
 330 249 318 249 305 249 c 0
 274 249 244 247 208 233 c 0
 154 213 141 179 141 146 c 0
 141 101 185 73 273 73 c 0
 355 73 419 101 444 123 c 1
 486 64 l 1
EndSplineSet
EndChar
StartChar: zeta
Encoding: 950 950 346
Width: 517
VWidth: 0
Flags: HW
HStem: -149 67<324 387> 0 73<204 397> 582 79<116 363> 595 77<217 366> 688 10G<91 109>
VStem: 72 78<133 326> 401 76<-64 -5>
LayerCount: 2
Fore
SplineSet
99 697 m 1xee
 119 676 141 660 181 660 c 0xee
 262 660 393 663 457 672 c 1
 483 589 l 1
 292 487 150 377 150 234 c 0
 150 131 194 73 267 73 c 0
 268 73 326 74 327 74 c 0
 412 74 477 45 477 -32 c 0
 477 -134 370 -144 326 -149 c 1
 314 -82 l 1
 355 -76 401 -68 401 -38 c 0
 401 -2 376 0 333 0 c 0
 330 0 326 0 323 0 c 0
 321 0 246 0 244 0 c 0
 146 0 72 86 72 246 c 0
 72 395 209 521 366 595 c 1xde
 305 586 252 582 190 582 c 0
 134 582 87 595 49 635 c 1
 99 697 l 1xee
EndSplineSet
EndChar
StartChar: eta
Encoding: 951 951 347
Width: 517
VWidth: 2
Flags: HW
HStem: -0 10G<55 132> 426 73<213 345> 498 10G<75 120>
VStem: 55 77<0 370> 358 78<-160 411>
LayerCount: 2
Fore
SplineSet
132 439 m 1xb8
 185 478 241 499 295 499 c 0
 354 499 436 462 436 389 c 2
 436 -39 l 2
 436 -71 442 -138 451 -161 c 1
 374 -177 l 1
 365 -138 358 -105 358 -42 c 2
 358 374 l 2
 358 410 317 426 284 426 c 0xd8
 253 426 197 400 133 358 c 1
 132 0 l 1
 55 -0 l 1
 55 344 l 2
 55 431 52 444 40 490 c 1
 118 508 l 1
 123 496 129 463 132 439 c 1xb8
EndSplineSet
EndChar
StartChar: theta
Encoding: 952 952 348
Width: 520
VWidth: 0
Flags: HW
HStem: -8 75<174 312> 301 77<104 396> 606 75<191 317>
VStem: 20 78<164 293 368 463> 396 79<175 299 374 497>
LayerCount: 2
Fore
SplineSet
141 121 m 0
 165 89 196 67 249 67 c 0
 306 67 340 109 362 150 c 1
 379 177 393 247 396 296 c 1
 375 299 347 301 315 301 c 0
 255 301 180 296 98 292 c 1
 99 230 116 154 141 121 c 0
255 681 m 0
 309 681 475 678 475 319 c 2
 475 313 l 2
 475 233 452 158 429 113 c 0
 392 43 330 -8 249 -8 c 0
 189 -8 129 15 89 64 c 0
 45 118 20 193 20 315 c 0
 20 464 64 553 98 599 c 0
 130 643 186 681 255 681 c 0
396 374 m 1
 396 376 396 378 396 380 c 0
 396 426 381 495 363 530 c 0
 335 586 292 606 257 606 c 0
 219 606 189 591 161 554 c 1
 135 520 106 443 102 368 c 1
 209 375 279 378 326 378 c 0
 359 378 381 376 396 374 c 1
EndSplineSet
EndChar
StartChar: iota
Encoding: 953 953 349
Width: 517
VWidth: 0
Flags: HW
HStem: -9 69<271 394> 418 76<61 185>
VStem: 185 78<69 126 127 418>
LayerCount: 2
Fore
SplineSet
204 495 m 2
 262 495 l 1
 262 362 263 126 263 126 c 2
 263 68 285 61 330 61 c 0
 375 61 420 90 444 146 c 1
 500 108 l 1
 466 35 420 -9 330 -9 c 0
 288 -9 251 -2 230 10 c 0
 188 33 185 96 185 125 c 2
 185 418 l 1
 161 418 105 416 59 405 c 1
 44 474 l 1
 99 487 153 495 204 495 c 2
EndSplineSet
EndChar
StartChar: kappa
Encoding: 954 954 350
Width: 520
VWidth: 0
Flags: HW
HStem: 0 10G<57 133> 488 10G<57 133 427 439>
VStem: 57 76<0 183 269 498>
LayerCount: 2
Fore
SplineSet
272 295 m 1
 326 233 455 90 480 24 c 1
 415 -13 l 1
 393 40 276 178 218 245 c 1
 218 245 160 195 133 158 c 1
 133 0 l 1
 57 0 l 1
 57 498 l 1
 133 498 l 1
 133 269 l 1
 178 314 230 354 282 400 c 1
 383 487 421 503 432 512 c 1
 479 449 l 1
 385 392 304 328 272 295 c 1
EndSplineSet
EndChar
StartChar: lambda
Encoding: 955 955 351
Width: 520
VWidth: 6
Flags: HW
HStem: -8 10G<70 129> 0 76<418 472> 618 76<152 216>
VStem: 67 76<563 610>
LayerCount: 2
Fore
SplineSet
86 -8 m 1xb0
 18 33 l 1
 65 84 183 375 241 498 c 1
 231 569 221 618 186 618 c 0
 161 618 143 594 143 563 c 1
 67 563 l 1
 67 626 106 694 184 694 c 0
 257 694 284 656 301 594 c 0
 319 527 368 253 408 130 c 0
 419 97 422 76 435 76 c 0
 448 76 458 96 458 96 c 1
 507 42 l 1
 478 10 470 0 428 0 c 0x70
 389 0 358 29 342 78 c 0
 310 175 277 321 268 371 c 1
 203 232 173 134 86 -8 c 1xb0
EndSplineSet
EndChar
StartChar: mu
Encoding: 956 956 352
Width: 517
VWidth: 2
Flags: HW
HStem: 1 75<157 286> 489 10G<65 128>
VStem: 53 77<-195 18 89 342> 361 77<135 489>
LayerCount: 2
Fore
SplineSet
442 -5 m 1
 414 15 388 40 377 77 c 1
 336 35 289 2 216 1 c 1
 211 1 l 2
 188 1 145 3 127 18 c 1
 130 -195 l 1
 53 -195 l 1
 56 104 l 1
 55 235 57 444 44 485 c 1
 123 499 l 1
 134 454 131 301 132 122 c 1
 135 105 145 93 156 85 c 0
 163 80 188 76 208 76 c 1
 241 77 261 82 286 97 c 0
 309 111 342 125 361 168 c 1
 361 489 l 1
 438 489 l 1
 438 125 l 1
 438 104 474 70 497 59 c 1
 442 -5 l 1
EndSplineSet
EndChar
StartChar: nu
Encoding: 957 957 353
Width: 520
VWidth: 2
Flags: HW
HStem: -1 10G<179 238> 502 10G<62 92 405 437>
VStem: 386 76<178 446>
LayerCount: 2
Fore
SplineSet
75 512 m 1
 109 475 122 457 135 420 c 0
 157 358 240 125 245 74 c 1
 365 105 386 198 386 341 c 0
 386 397 375 436 348 472 c 1
 423 512 l 1
 451 467 462 424 462 336 c 0
 462 195 434 123 376 67 c 0
 344 36 296 0 179 -1 c 1
 179 67 81 335 51 410 c 0
 47 420 25 453 12 465 c 1
 75 512 l 1
EndSplineSet
EndChar
StartChar: xi
Encoding: 958 958 354
Width: 517
VWidth: 0
Flags: HW
HStem: -156 75<291 356> 0 73<139 364> 339 75<274 362> 582 79<85 322> 688 10G<60 78>
VStem: 39 78<95 224> 128 85<437 510> 369 76<-64 -5>
LayerCount: 2
Fore
SplineSet
68 697 m 1
 88 676 109 660 149 660 c 0
 230 660 311 663 375 672 c 1
 396 593 l 1
 335 570 213 526 213 471 c 0
 213 426 289 415 362 415 c 1
 362 339 l 1
 243 322 117 267 117 147 c 0
 117 88 162 73 235 73 c 0
 236 73 294 74 295 74 c 0
 380 74 445 45 445 -32 c 0
 445 -134 336 -151 292 -156 c 1
 282 -82 l 1
 323 -76 369 -68 369 -38 c 0
 369 -2 344 0 301 0 c 0
 298 0 294 0 291 0 c 0
 289 0 213 0 211 0 c 0
 113 0 39 29 39 159 c 0
 39 282 146 352 203 370 c 1
 182 375 128 387 128 472 c 0
 128 526 169 555 223 576 c 0
 242 583 260 593 273 599 c 1
 251 597 229 591 208 588 c 0
 186 585 162 582 138 582 c 0
 90 582 56 595 18 635 c 1
 68 697 l 1
EndSplineSet
EndChar
StartChar: omicron
Encoding: 959 959 355
Width: 517
VWidth: 2
Flags: HW
HStem: 0 76<168 308> 429 75<172 312>
VStem: 35 77<133 360> 363 78<137 370>
LayerCount: 2
Fore
SplineSet
235 0 m 1
 102 0 35 90 35 227 c 0
 35 370 85 504 228 504 c 0
 324 504 378 470 412 406 c 0
 432 367 440 312 440 265 c 0
 440 126 393 0 236 0 c 2
 235 0 l 1
319 105 m 1
 351 135 363 187 363 259 c 0
 363 262 363 265 363 268 c 0
 362 358 330 429 244 429 c 0
 142 429 112 348 112 229 c 0
 112 134 154 76 236 76 c 1
 273 76 295 84 319 105 c 1
EndSplineSet
EndChar
StartChar: pi
Encoding: 960 960 356
Width: 520
VWidth: 2
Flags: HW
HStem: -4 73<393 488> 420 78<36 98 176 311 388 450>
VStem: 98 78<62 417> 311 77<72 420>
LayerCount: 2
Back
SplineSet
450.1953125 498.046875 m 4
 459.9609375 498.046875 467.366210938 500.407226562 472.412109375 505.126953125 c 132
 477.458007812 509.846679688 483.073242188 518.5546875 489.2578125 531.25 c 5
 562.5 495.1171875 l 5
 552.734375 472.65625 539.794921875 454.58984375 523.681640625 440.91796875 c 132
 507.568359375 427.24609375 485.026367188 420.41015625 456.0546875 420.41015625 c 6
 440.91796875 420.41015625 l 5
 449.055664062 400.227539062 453.125 361.979492188 453.125 305.6640625 c 6
 453.125 105.95703125 l 6
 453.125 83.49609375 459.635742188 72.265625 472.65625 72.265625 c 4
 483.723632812 72.265625 495.442382812 78.7763671875 507.8125 91.796875 c 5
 541.9921875 34.1796875 l 5
 512.043945312 11.3935546875 487.629882812 0 468.75 0 c 4
 458.659179688 0 448.486328125 1.708984375 438.232421875 5.126953125 c 132
 427.978515625 8.544921875 418.049804688 13.916015625 408.447265625 21.240234375 c 132
 398.844726562 28.564453125 391.032226562 38.9814453125 385.009765625 52.490234375 c 132
 378.987304688 65.9990234375 375.9765625 81.7060546875 375.9765625 99.609375 c 6
 375.9765625 303.7109375 l 6
 375.9765625 312.825195312 375.895507812 321.208007812 375.732421875 328.857421875 c 132
 375.569335938 336.506835938 375.163085938 343.505859375 374.51171875 349.853515625 c 132
 373.860351562 356.201171875 373.372070312 361.653320312 373.046875 366.2109375 c 132
 372.721679688 370.768554688 371.989257812 375.325195312 370.849609375 379.8828125 c 132
 369.709960938 384.440429688 368.977539062 387.858398438 368.65234375 390.13671875 c 132
 368.327148438 392.415039062 367.350585938 395.426757812 365.72265625 399.169921875 c 132
 364.094726562 402.913085938 363.037109375 405.2734375 362.548828125 406.25 c 132
 362.060546875 407.2265625 360.83984375 409.586914062 358.88671875 413.330078125 c 132
 356.93359375 417.073242188 355.793945312 419.43359375 355.46875 420.41015625 c 4
 341.796875 420.41015625 321.125976562 420.329101562 293.45703125 420.166015625 c 132
 265.788085938 420.002929688 245.1171875 419.921875 231.4453125 419.921875 c 5
 231.4453125 104.98046875 l 6
 231.4453125 68.1962890625 226.887695312 31.25 217.7734375 -5.859375 c 5
 138.671875 3.90625 l 5
 148.4375 40.6904296875 153.3203125 75.0322265625 153.3203125 106.93359375 c 6
 153.3203125 416.50390625 l 5
 129.557617188 411.946289062 110.026367188 403.3203125 94.7265625 390.625 c 5
 63.4765625 466.796875 l 5
 76.4970703125 475.260742188 94.1572265625 482.502929688 116.455078125 488.525390625 c 132
 138.752929688 494.547851562 161.458007812 497.55859375 184.5703125 497.55859375 c 4
 292.643554688 497.883789062 381.184570312 498.046875 450.1953125 498.046875 c 4
EndSplineSet
Fore
SplineSet
372 498 m 17
 424 498 443 508 459 529 c 1
 512 471 l 1
 474 428 435 421 388 420 c 1
 388 120 l 2
 388 71 410 69 429 69 c 0
 451 69 464 74 477 88 c 1
 515 32 l 1
 490 5 459 -4 425 -4 c 0
 361 -4 311 36 311 128 c 2
 311 420 l 1
 176 420 l 1
 176 271 l 2
 176 131 149 24 142 -4 c 1
 62 6 l 1
 71 39 98 128 98 272 c 2
 98 417 l 1
 80 417 56 415 35 405 c 1
 17 487 l 1
 38 495 65 498 95 498 c 9
 372 498 l 17
EndSplineSet
EndChar
StartChar: rho
Encoding: 961 961 357
Width: 517
VWidth: 0
Flags: HW
HStem: 0 76<228 345> 429 75<203 345>
VStem: 68 77<-177 95 178 365> 396 78<136 370>
LayerCount: 2
Fore
SplineSet
68 274 m 2
 68 417 144 504 260 504 c 0
 356 504 410 470 444 406 c 0
 464 367 473 312 473 265 c 0
 473 126 437 0 280 0 c 2
 279 0 l 2
 212 0 162 52 138 95 c 1
 145 -37 l 2
 148 -101 160 -163 172 -193 c 1
 97 -214 l 1
 83 -184 67 -102 67 -34 c 2
 68 274 l 2
396 259 m 0
 396 262 396 265 396 268 c 0
 395 358 363 429 277 429 c 0
 207 429 145 387 145 268 c 0
 145 174 215 76 286 76 c 1
 372 77 396 161 396 259 c 0
EndSplineSet
EndChar
StartChar: sigma1
Encoding: 962 962 358
Width: 520
VWidth: 1
Flags: HW
HStem: -171 74<294 356> 422 75<173 342>
VStem: 35 78<142 360> 371 76<-81 -24>
LayerCount: 2
Fore
SplineSet
112 257 m 0
 112 73 216 75 248 73 c 0
 376 63 447 39 447 -46 c 0
 447 -93 423 -167 294 -171 c 1
 283 -97 l 1
 339 -90 371 -82 371 -48 c 0
 371 -16 292 -7 250 -3 c 0
 100 12 35 91 35 257 c 0
 35 436 121 497 275 497 c 0
 321 497 358 485 387 463 c 0
 417 440 432 410 443 385 c 1
 368 356 l 1
 363 376 348 422 270 422 c 0
 162 422 112 374 112 257 c 0
EndSplineSet
EndChar
StartChar: sigma
Encoding: 963 963 359
Width: 520
VWidth: 2
Flags: HW
HStem: 0 76<168 299> 427 73<182 316 389 490>
VStem: 35 77<133 349> 347 78<129 382>
LayerCount: 2
Fore
SplineSet
305 427 m 1
 301 427 297 427 294 427 c 0
 283 427 276 427 274 427 c 0
 149 427 112 348 112 229 c 0
 112 134 154 76 236 76 c 0
 314 76 347 145 347 223 c 0
 347 288 342 361 305 427 c 1
389 426 m 1
 421 367 424 284 424 229 c 0
 424 114 371 0 236 0 c 2
 235 0 l 1
 102 0 35 90 35 227 c 0
 35 370 88 498 260 499 c 0
 268 499 298 500 333 500 c 0
 395 500 476 498 501 494 c 1
 491 419 l 1
 469 422 429 425 389 426 c 1
EndSplineSet
EndChar
StartChar: tau
Encoding: 964 964 360
Width: 520
VWidth: 0
Flags: HW
HStem: -1 76<283 389> 427 71<62 130 130 195 274 481>
VStem: 190 78<91 427>
LayerCount: 2
Fore
SplineSet
273 498 m 1
 333 498 l 2
 356 498 380 498 401 498 c 0
 473 498 l 1
 481 498 l 1
 481 426 l 1
 333 427 l 1
 274 427 l 1
 270 327 270 264 268 215 c 1
 268 195 l 2
 268 99 274 74 344 74 c 0
 378 74 401 103 415 140 c 1
 479 111 l 1
 469 84 441 -1 345 -1 c 0
 217 -1 190 53 190 194 c 2
 190 215 l 1
 192 266 192 334 195 428 c 1
 185 428 130 427 130 427 c 2
 96 427 67 410 43 394 c 1
 10 456 l 1
 34 477 80 498 127 498 c 2
 273 498 l 1
EndSplineSet
EndChar
StartChar: upsilon
Encoding: 965 965 361
Width: 517
VWidth: 2
Flags: HW
HStem: -2 76<163 295> 494 10G<65 127 402 446>
VStem: 56 76<106 489> 386 76<182 478>
LayerCount: 2
Fore
SplineSet
56 179 m 0
 56 208 56 239 56 268 c 0
 56 368 54 460 44 491 c 1
 123 504 l 1
 131 469 132 380 132 280 c 0
 132 253 132 224 132 196 c 0
 132 109 163 74 228 74 c 0
 256 74 311 94 338 133 c 0
 380 194 386 244 386 360 c 0
 386 405 375 455 359 489 c 1
 438 511 l 1
 456 470 462 400 462 368 c 0
 462 366 462 364 462 362 c 0
 462 356 462 350 462 344 c 0
 462 251 459 148 375 60 c 0
 344 28 286 -2 206 -2 c 0
 112 -2 56 82 56 179 c 0
EndSplineSet
EndChar
StartChar: phi
Encoding: 966 966 362
Width: 520
VWidth: 0
Flags: HW
HStem: -5 76<283 326> 437 71<298 378>
VStem: 20 77<157 413> 205 77<-193 -1 72 422> 398 76<166 418>
LayerCount: 2
Fore
SplineSet
282 71 m 1
 321 81 347 107 365 139 c 1
 385 170 398 253 398 305 c 1
 398 314 l 2
 398 397 385 437 331 437 c 2
 330 437 l 2
 317 437 281 436 281 314 c 0
 281 245 282 155 282 71 c 1
283 -5 m 1
 284 -105 285 -184 285 -194 c 1
 206 -193 l 1
 205 -183 205 -103 205 -4 c 1
 160 4 117 25 87 62 c 0
 43 116 20 190 20 278 c 0
 20 389 47 470 92 510 c 1
 153 466 l 1
 113 425 97 374 97 280 c 0
 97 229 112 154 139 118 c 0
 156 96 176 80 205 72 c 1
 205 312 l 2
 205 466 260 508 330 508 c 0
 398 508 475 494 475 309 c 2
 475 303 l 2
 475 223 453 148 430 103 c 0
 399 43 347 5 283 -5 c 1
EndSplineSet
EndChar
StartChar: chi
Encoding: 967 967 363
Width: 520
VWidth: 6
Flags: HW
HStem: -194 76<420 478> 434 75<10 79> 508 10G<396 422>
LayerCount: 2
Fore
SplineSet
207 141 m 1xa0
 181 227 158 308 103 387 c 0
 75 428 48 434 10 434 c 1
 10 508 l 1xc0
 82 508 115 504 162 446 c 0
 213 383 260 230 260 230 c 1
 305 328 396 518 396 518 c 1
 471 490 l 1
 471 490 381 307 302 144 c 1
 323 60 409 -118 446 -118 c 0
 461 -118 460 -109 464 -103 c 1
 509 -132 l 1
 506 -151 495 -194 445 -194 c 0
 339 -194 270 1 249 60 c 1
 127 -200 l 1
 53 -165 l 1
 207 141 l 1xa0
EndSplineSet
EndChar
StartChar: psi
Encoding: 968 968 364
Width: 520
VWidth: 2
Flags: HW
HStem: -2 77<150 208> 494 4G<44 106 211 290 427 472>
VStem: 35 76<114 489> 209 79<-191 -2 82 498> 411 76<182 478>
LayerCount: 2
Fore
SplineSet
35 179 m 0
 35 208 35 239 35 268 c 0
 35 368 34 460 24 491 c 1
 102 504 l 1
 110 469 111 380 111 280 c 0
 111 253 111 224 111 196 c 0
 111 117 148 81 209 75 c 1
 209 214 211 339 211 453 c 2
 211 498 l 1
 290 498 l 1
 290 427 l 2
 290 312 288 210 288 82 c 1
 320 91 345 108 363 133 c 0
 405 194 411 244 411 360 c 0
 411 405 401 455 385 489 c 1
 463 511 l 1
 481 470 487 400 487 368 c 0
 487 366 487 364 487 362 c 0
 487 356 487 350 487 344 c 0
 487 251 484 148 400 60 c 0
 378 37 349 14 288 4 c 1
 288 -61 l 2
 288 -117 287 -144 285 -193 c 1
 207 -193 l 1
 209 -163 209 -142 209 -115 c 0
 209 -92 208 -64 208 -22 c 0
 208 -15 208 -9 208 -2 c 1
 207 -2 207 -2 206 -2 c 0
 99 -2 35 82 35 179 c 0
EndSplineSet
EndChar
StartChar: omega
Encoding: 969 969 365
Width: 520
VWidth: 2
Flags: HW
HStem: -5 76<121 194 313 389> 495 14G<47 96 408 457>
VStem: 17 79<98 408> 213 76<95 334> 411 77<92 394>
LayerCount: 2
Fore
SplineSet
212 334 m 1
 290 343 l 1
 289 301 289 255 289 210 c 0
 289 206 289 202 289 198 c 0
 290 110 314 70 354 70 c 0
 397 70 411 132 411 205 c 0
 411 309 398 408 356 472 c 1
 430 504 l 1
 483 416 488 284 488 215 c 0
 488 106 462 -6 342 -6 c 0
 305 -6 273 16 250 51 c 1
 226 17 192 -5 155 -5 c 0
 45 -5 17 108 17 217 c 0
 17 299 20 419 74 508 c 1
 148 476 l 1
 108 414 96 330 96 229 c 0
 96 146 112 71 151 71 c 0
 185 71 208 96 214 157 c 1
 214 165 213 172 213 180 c 0
 213 232 213 285 212 334 c 1
EndSplineSet
EndChar
StartChar: uni03CF
Encoding: 975 975 421
Width: 520
VWidth: 0
Flags: HW
HStem: -168 65<309 384> -2 10G<57 134> 629 10G<57 134 416 431>
VStem: 57 77<-2 248 343 639>
LayerCount: 2
Fore
SplineSet
424 -8 m 1
 402 45 252 231 189 293 c 1
 189 293 149 245 134 210 c 1
 134 -2 l 1
 57 -2 l 1
 57 639 l 1
 134 639 l 1
 134 343 l 1
 173 397 208 436 256 486 c 1
 349 581 411 630 421 640 c 1
 475 588 l 1
 386 524 265 390 236 354 c 1
 295 297 464 95 489 29 c 1
 487 -81 467 -168 309 -168 c 1
 309 -103 l 1
 388 -103 418 -65 424 -8 c 1
EndSplineSet
EndChar
StartChar: uni03D0
Encoding: 976 976 413
Width: 520
VWidth: 0
Flags: HW
HStem: 0 75<187 334> 574 74<159 267>
VStem: 34 77<174 318 390 504> 293 75<432 549> 386 75<125 269>
LayerCount: 2
Fore
SplineSet
111 314 m 1
 114 186 138 75 265 75 c 0
 333 75 386 128 386 193 c 0
 386 289 318 326 219 326 c 0
 186 326 150 322 111 314 c 1
111 390 m 1
 199 396 293 402 293 491 c 0
 293 546 256 574 202 574 c 0
 170 574 118 542 111 390 c 1
34 359 m 0
 34 564 111 648 202 648 c 0
 291 648 368 602 368 494 c 0
 368 444 354 406 327 380 c 1
 413 356 461 292 461 186 c 0
 461 83 396 0 265 0 c 0
 61 0 34 162 34 359 c 0
EndSplineSet
EndChar
StartChar: theta1
Encoding: 977 977 414
Width: 517
VWidth: 0
Flags: HW
HStem: -8 75<174 312> 288 77<154 395> 571 75<184 317>
VStem: 20 78<164 288> 51 77<392 516> 396 78<178 287 362 467>
LayerCount: 2
Fore
SplineSet
98 294 m 1xf4
 98 243 114 157 141 121 c 0
 165 89 196 67 249 67 c 0
 306 67 340 109 362 150 c 1
 379 177 393 236 396 285 c 1
 375 288 348 289 317 289 c 0
 292 289 264 288 234 288 c 0
 156 288 51 328 51 448 c 0xec
 51 483 57 522 90 566 c 0
 122 610 186 646 255 646 c 0
 309 646 475 602 475 309 c 2
 475 303 l 2
 475 223 452 158 429 113 c 0
 392 43 330 -8 249 -8 c 0
 189 -8 129 15 89 64 c 0
 45 118 20 200 20 288 c 1
 98 294 l 1xf4
396 362 m 1
 392 408 382 458 363 495 c 0
 335 551 292 571 257 571 c 0
 219 571 182 558 153 521 c 0
 130 492 128 468 128 453 c 0
 130 376 183 365 238 365 c 0
 326 365 371 364 396 362 c 1
EndSplineSet
EndChar
StartChar: Upsilon1
Encoding: 978 978 415
Width: 517
VWidth: 1
Flags: HW
HStem: 0 10G<211 287> 522 146<420 474> 593 79<41 70>
VStem: 211 76<0 427> 420 77<522 592>
LayerCount: 2
Fore
SplineSet
242 477 m 1xb8
 273 548 347 668 412 668 c 0
 494 668 497 614 497 525 c 0
 497 524 497 523 497 522 c 1
 420 522 l 1xd8
 418 562 414 586 411 592 c 1
 402 586 287 461 287 334 c 2
 287 0 l 1
 211 0 l 1
 211 333 l 2
 211 441 117 576 14 593 c 1
 44 672 l 1
 129 649 218 552 242 477 c 1xb8
EndSplineSet
EndChar
StartChar: uni03D3
Encoding: 979 979 416
Width: 517
VWidth: 0
Flags: HW
HStem: 0 10G<245 321> 522 146<420 474>
VStem: 63 85<709 799> 245 76<0 449> 420 77<522 592>
LayerCount: 2
Fore
SplineSet
277 488 m 1
 308 559 347 668 412 668 c 0
 494 668 497 614 497 525 c 0
 497 524 497 523 497 522 c 1
 420 522 l 1
 418 562 414 586 411 592 c 1
 402 586 321 461 321 334 c 2
 321 0 l 1
 245 0 l 1
 245 333 l 2
 245 441 181 576 112 593 c 1
 142 672 l 1
 227 649 253 563 277 488 c 1
9 598 m 1
 42 661 51 730 63 812 c 1
 148 798 l 1
 132 723 109 630 72 568 c 1
 9 598 l 1
EndSplineSet
EndChar
StartChar: phi1
Encoding: 981 981 418
Width: 520
VWidth: 2
Flags: HW
HStem: -0 72<166 205 283 325> 427 76<165 205 282 327> 680 10G<205 282>
VStem: 35 77<131 364> 205 77<-193 -1 74 427 500 690> 374 78<135 369>
LayerCount: 2
Fore
SplineSet
374 253 m 0
 374 333 349 418 282 428 c 1
 282 292 282 129 282 71 c 1
 344 76 374 163 374 253 c 0
205 74 m 1
 205 427 l 1
 134 415 112 331 112 229 c 0
 112 134 157 79 205 74 c 1
283 -0 m 1
 284 -91 285 -186 285 -194 c 1
 206 -193 l 1
 205 -185 205 -91 205 -1 c 1
 95 4 35 84 35 227 c 0
 35 362 73 487 205 502 c 1
 205 690 l 1
 282 690 l 1
 282 665 282 591 282 501 c 1
 397 487 451 384 451 260 c 0
 451 112 405 9 283 -0 c 1
EndSplineSet
EndChar
StartChar: omega1
Encoding: 982 982 419
Width: 517
VWidth: 2
Flags: HW
HStem: -5 76<121 194 313 389> 424 75<14 62 139 366 444 487>
VStem: 17 79<98 357> 213 76<95 334> 411 77<92 350>
LayerCount: 2
Fore
SplineSet
212 334 m 1
 290 343 l 1
 289 301 289 255 289 210 c 0
 289 206 289 202 289 198 c 0
 290 110 314 70 354 70 c 0
 397 70 411 132 411 205 c 0
 411 298 389 365 355 424 c 1
 151 424 l 1
 119 371 96 317 96 229 c 0
 96 146 112 71 151 71 c 0
 185 71 208 96 214 157 c 1
 214 165 213 172 213 180 c 0
 213 232 213 285 212 334 c 1
13 497 m 1
 40 499 80 499 118 499 c 0
 133 499 149 499 166 499 c 2
 220 499 l 2
 293 499 443 497 479 497 c 2
 487 497 l 1
 487 424 l 1
 444 424 l 1
 476 349 488 270 488 215 c 0
 488 106 462 -6 342 -6 c 0
 305 -6 273 16 250 51 c 1
 226 17 192 -5 155 -5 c 0
 45 -5 17 108 17 217 c 0
 17 282 30 353 62 424 c 1
 14 424 l 1
 13 497 l 1
EndSplineSet
EndChar
StartChar: uni03D7
Encoding: 983 983 420
Width: 517
VWidth: 0
Flags: HW
HStem: -168 73<309 401> 0 76<344 419> 424 77<92 162>
VStem: 170 77<279 419> 259 77<81 219> 435 63<-59 32 90 93>
LayerCount: 2
Fore
SplineSet
9 407 m 1
 9 407 59 500 131 500 c 0
 190 500 248 452 248 364 c 0
 248 352 240 300 229 278 c 1
 252 295 283 321 314 346 c 1
 322 354 l 1
 349 429 388 502 447 502 c 0
 478 502 490 479 490 446 c 0
 490 392 426 326 376 287 c 1
 362 249 336 184 336 140 c 0
 336 95 352 76 377 76 c 0
 402 76 417 88 429 117 c 1
 498 93 l 1
 498 83 l 2
 498 -59 496 -168 309 -168 c 1
 309 -95 l 1
 408 -95 435 -62 435 27 c 0
 435 28 435 31 435 32 c 1
 412 15 383 0 355 0 c 0
 308 0 259 48 259 136 c 0
 259 148 266 198 277 220 c 1
 254 203 223 176 192 151 c 1
 185 145 l 1
 155 70 115 -4 60 -4 c 0
 29 -4 17 20 17 53 c 0
 17 117 82 173 132 212 c 1
 146 250 170 316 170 360 c 0
 170 405 154 424 129 424 c 0
 104 424 79 388 52 361 c 1
 9 407 l 1
EndSplineSet
EndChar
StartChar: uni03D8
Encoding: 984 984 422
Width: 517
VWidth: 0
Flags: HW
HStem: -154 221<209 290> 571 75<184 320>
VStem: 20 78<157 450> 208 83<-154 0> 397 77<171 461>
LayerCount: 2
Fore
SplineSet
139 118 m 0
 163 86 196 67 249 67 c 0
 306 67 341 99 363 140 c 1
 383 171 397 253 397 305 c 1
 397 314 l 2
 397 370 389 445 363 495 c 0
 335 551 300 571 257 571 c 0
 211 571 183 558 155 521 c 0
 121 478 98 408 98 280 c 0
 98 229 112 154 139 118 c 0
255 646 m 1
 316 646 473 610 475 309 c 1
 475 303 l 2
 475 223 453 148 430 103 c 0
 400 45 353 8 292 -4 c 1
 292 -154 l 1
 208 -154 l 1
 208 -4 l 1
 162 4 117 24 87 62 c 0
 43 116 20 190 20 278 c 0
 20 446 58 519 92 565 c 0
 124 609 179 645 255 646 c 1
EndSplineSet
EndChar
StartChar: uni03D9
Encoding: 985 985 423
Width: 520
VWidth: 2
Flags: HW
HStem: 4 72<164 192 276 309> 429 75<172 312>
VStem: 35 77<133 360> 192 83<-154 7> 363 78<137 370>
LayerCount: 2
Fore
SplineSet
319 105 m 1
 351 135 363 187 363 259 c 0
 363 262 363 265 363 268 c 0
 362 358 330 429 244 429 c 0
 142 429 112 348 112 229 c 0
 112 134 154 76 236 76 c 1
 273 76 295 84 319 105 c 1
192 4 m 1
 88 22 35 106 35 227 c 0
 35 370 85 504 228 504 c 0
 324 504 378 470 412 406 c 0
 432 367 440 312 440 265 c 0
 440 138 401 23 276 3 c 1
 276 -154 l 1
 192 -154 l 1
 192 4 l 1
EndSplineSet
EndChar
StartChar: uni03DA
Encoding: 986 986 425
Width: 520
VWidth: 1
Flags: HW
HStem: -171 74<263 325> 570 75<188 481>
VStem: 35 78<153 484> 340 76<-81 -24>
LayerCount: 2
Fore
SplineSet
112 342 m 0
 112 158 144 88 217 73 c 0
 342 47 416 39 416 -46 c 0
 416 -93 392 -167 263 -171 c 1
 252 -97 l 1
 308 -90 340 -82 340 -48 c 0
 340 -16 260 -9 219 -3 c 0
 41 24 35 176 35 342 c 0
 35 521 91 645 271 645 c 0
 323 645 362 645 399 645 c 0
 427 645 453 645 481 646 c 1
 482 565 l 1
 461 567 343 570 265 570 c 0
 138 570 112 459 112 342 c 0
EndSplineSet
EndChar
StartChar: uni03DB
Encoding: 987 987 424
Width: 517
VWidth: 1
Flags: HW
HStem: -171 74<263 325> 422 75<173 485>
VStem: 35 78<126 360> 340 76<-81 -24>
LayerCount: 2
Fore
SplineSet
112 257 m 0
 112 73 185 75 217 73 c 0
 345 63 416 39 416 -46 c 0
 416 -93 392 -167 263 -171 c 1
 252 -97 l 1
 308 -90 340 -82 340 -48 c 0
 340 -16 261 -7 219 -3 c 0
 69 12 35 91 35 257 c 0
 35 436 121 497 275 497 c 0
 327 497 367 497 404 497 c 0
 432 497 457 497 485 498 c 1
 487 417 l 1
 466 419 348 422 270 422 c 0
 162 422 112 374 112 257 c 0
EndSplineSet
EndChar
StartChar: uni03DD
Encoding: 989 989 427
Width: 520
VWidth: 0
Flags: HW
HStem: -150 71<24 137> 419 75<263 424> 618 74<281 433>
VStem: 188 77<-24 419 495 601>
LayerCount: 2
Fore
SplineSet
188 74 m 0
 188 134 186 419 186 520 c 0
 186 590 200 692 335 692 c 0
 343 692 350 692 357 692 c 0
 415 692 424 690 492 645 c 1
 457 582 l 1
 412 611 403 618 339 618 c 0
 267 618 263 571 263 518 c 2
 263 495 l 1
 296 495 324 494 360 494 c 1
 411 493 423 488 438 484 c 1
 424 413 l 1
 414 416 403 419 376 419 c 2
 263 419 l 1
 263 344 264 76 264 74 c 0
 264 -41 232 -150 66 -150 c 0
 51 -150 37 -150 20 -148 c 1
 24 -76 l 1
 38 -78 50 -79 62 -79 c 0
 164 -79 188 -3 188 74 c 0
EndSplineSet
EndChar
StartChar: afii10051
Encoding: 1026 1026 738
Width: 517
VWidth: 0
Flags: HW
HStem: 0 10G<121 202> 317 73<204 359> 547 78<11 124 203 362>
VStem: 125 77<0 312 381 547> 406 78<34 271>
LayerCount: 2
Back
SplineSet
406.25 199.70703125 m 0x78
 406.25 282.71484375 349.609375 316.89453125 273.92578125 316.89453125 c 0x78
 247.0703125 316.89453125 202.1484375 312.5 202.1484375 312.5 c 1
 201.66015625 269.53125 201.66015625 221.19140625 201.66015625 174.8046875 c 0
 201.66015625 124.0234375 201.66015625 76.171875 201.66015625 41.9921875 c 0
 201.66015625 22.94921875 201.66015625 8.30078125 201.66015625 0 c 1
 192.87109375 0 184.08203125 0 174.8046875 0 c 0
 156.73828125 0 137.6953125 0 120.60546875 0 c 1
 120.60546875 94.7265625 125 197.265625 125 400.390625 c 0
 125 453.61328125 124.0234375 502.9296875 124.0234375 547.36328125 c 1
 10.7421875 547.36328125 l 1
 10.7421875 547.8515625 l 1
 10.7421875 625 l 1
 169.921875 625 l 1
 190.4296875 625.48828125 211.9140625 625.48828125 233.3984375 625.48828125 c 0
 276.3671875 625.48828125 320.3125 625 362.3046875 625 c 1
 362.3046875 547.36328125 l 1
 203.125 547.36328125 l 1
 203.125 529.296875 203.125 511.23046875 203.125 493.1640625 c 0
 203.125 457.03125 203.125 420.41015625 203.125 380.859375 c 1xb8
 241.2109375 387.6953125 251.46484375 389.6484375 282.2265625 389.6484375 c 0
 402.34375 389.6484375 483.88671875 336.9140625 483.88671875 191.89453125 c 0
 483.88671875 55.6640625 445.80078125 -88.8671875 320.80078125 -112.3046875 c 1
 308.10546875 -42.48046875 l 1
 346.19140625 -25.390625 406.25 -16.6015625 406.25 199.70703125 c 0x78
EndSplineSet
Fore
SplineSet
406 200 m 0
 406 283 350 317 274 317 c 0
 247 317 202 312 202 312 c 1
 202 269 202 221 202 175 c 0
 202 124 202 76 202 42 c 0
 202 23 202 8 202 0 c 1
 193 0 184 0 175 0 c 0
 157 0 138 0 121 0 c 1
 121 95 125 197 125 400 c 0
 125 453 124 503 124 547 c 1
 11 547 l 1
 11 548 l 1
 11 625 l 1
 170 625 l 1
 191 625 212 625 233 625 c 0
 276 625 320 625 362 625 c 1
 362 547 l 1
 203 547 l 1
 203 529 203 511 203 493 c 0
 203 457 203 421 203 381 c 1
 241 388 251 390 282 390 c 0
 402 390 484 337 484 192 c 0
 484 56 446 -89 321 -112 c 1
 308 -42 l 1
 346 -25 406 -16 406 200 c 0
EndSplineSet
EndChar
StartChar: afii10053
Encoding: 1028 1028 740
Width: 520
Flags: HW
HStem: -6 75<204 379> 284 74<127 366> 503 10G<413 441> 573 75<206 377>
VStem: 24 79<189 280 351 439>
LayerCount: 2
Back
SplineSet
439.453125 140.625 m 1
 490.234375 84.47265625 l 1
 450.68359375 35.64453125 385.7421875 -6.34765625 280.2734375 -6.34765625 c 0
 125 -6.34765625 24.4140625 136.71875 24.4140625 310.05859375 c 0
 24.4140625 599.609375 201.171875 647.4609375 274.4140625 647.4609375 c 0
 400.390625 647.4609375 458.0078125 591.796875 490.234375 547.8515625 c 1
 426.7578125 502.9296875 l 1
 398.4375 540.0390625 372.0703125 572.75390625 278.3203125 572.75390625 c 0
 170.8984375 572.75390625 114.2578125 454.1015625 103.515625 350.5859375 c 1
 121.09375 355.46875 203.61328125 357.91015625 365.72265625 357.91015625 c 1
 365.72265625 284.1796875 l 1
 211.42578125 284.1796875 133.7890625 284.1796875 103.515625 276.3671875 c 1
 115.234375 167.96875 175.78125 68.359375 280.2734375 68.359375 c 0
 369.62890625 68.359375 415.52734375 108.88671875 439.453125 140.625 c 1
EndSplineSet
Fore
SplineSet
439 141 m 1
 490 84 l 1
 450 35 385 -6 280 -6 c 0
 125 -6 24 137 24 310 c 0
 24 600 201 647 274 647 c 0
 400 647 458 592 490 548 c 1
 427 503 l 1
 399 540 372 573 278 573 c 0
 171 573 115 455 104 351 c 1
 122 356 204 358 366 358 c 1
 366 284 l 1
 212 284 134 284 104 276 c 1
 116 168 176 68 280 68 c 0
 369 68 415 109 439 141 c 1
EndSplineSet
EndChar
StartChar: afii10058
Encoding: 1033 1033 745
Width: 517
Flags: HW
HStem: -14 73<26 53> -2 74<295 405> 317 73<337 404> 559 75<171 258>
VStem: 94 77<389 559> 258 78<71 299 381 559> 428 78<94 293>
LayerCount: 2
Back
SplineSet
364.74609375 316.89453125 m 0x7e
 337.890625 316.89453125 335.44921875 299.31640625 335.44921875 299.31640625 c 1
 334.47265625 183.59375 333.984375 110.3515625 333.49609375 73.2421875 c 1
 339.35546875 71.77734375 357.421875 71.2890625 362.3046875 71.2890625 c 0
 404.78515625 71.2890625 428.22265625 103.515625 428.22265625 199.70703125 c 0
 428.22265625 282.71484375 398.92578125 316.89453125 364.74609375 316.89453125 c 0x7e
62.98828125 -14.16015625 m 0xbe
 39.0625 -14.16015625 28.3203125 -13.671875 -5.859375 4.8828125 c 1
 16.6015625 78.125 l 1
 35.64453125 62.98828125 40.0390625 59.08203125 56.15234375 59.08203125 c 0xbe
 109.86328125 59.08203125 110.83984375 235.3515625 110.83984375 632.8125 c 1
 229.00390625 633.30078125 l 2
 245.60546875 633.30078125 220.703125 633.30078125 235.83984375 633.30078125 c 0
 273.92578125 633.30078125 308.10546875 633.30078125 335.44921875 631.34765625 c 1
 336.42578125 565.4296875 336.42578125 501.46484375 336.42578125 434.5703125 c 0
 336.42578125 416.9921875 336.42578125 398.92578125 336.42578125 380.859375 c 1
 346.19140625 384.27734375 356.93359375 389.6484375 373.046875 389.6484375 c 0
 461.42578125 389.6484375 505.859375 336.9140625 505.859375 191.89453125 c 0
 505.859375 55.6640625 439.453125 -2.44140625 355.46875 -2.44140625 c 0x7e
 309.08203125 -2.44140625 310.546875 0 253.90625 0 c 1
 253.90625 94.23828125 258.30078125 196.77734375 258.30078125 398.4375 c 2
 258.30078125 400.390625 l 2
 258.30078125 436.03515625 258.30078125 503.90625 257.8125 558.59375 c 1
 187.98828125 558.59375 l 1
 179.19921875 356.4453125 215.33203125 -14.16015625 62.98828125 -14.16015625 c 0xbe
EndSplineSet
Fore
SplineSet
365 317 m 0x7e
 338 317 335 299 335 299 c 1
 334 183 333 110 333 73 c 1
 339 72 357 71 362 71 c 0
 404 71 428 104 428 200 c 0
 428 283 399 317 365 317 c 0x7e
20 59 m 1xbe
 22 59 23 59 25 59 c 0xbe
 91 59 94 236 94 633 c 1
 229 633 l 2
 246 633 221 633 236 633 c 0
 274 633 308 633 335 631 c 1
 336 565 336 502 336 435 c 0
 336 417 336 399 336 381 c 1
 346 384 357 390 373 390 c 0
 461 390 506 337 506 192 c 0
 506 56 439 -2 355 -2 c 0x7e
 309 -2 311 0 254 0 c 1
 254 94 258 196 258 398 c 2
 258 400 l 2
 258 436 258 504 258 559 c 1
 171 559 l 1
 161 229 184 -14 32 -14 c 0
 30 -14 28 -14 26 -14 c 1
 20 59 l 1xbe
EndSplineSet
EndChar
StartChar: afii10059
Encoding: 1034 1034 746
Width: 517
Flags: HW
HStem: -2 74<334 404> 305 75<109 258> 317 73<337 404> 623 10G<29 107>
VStem: 29 78<0 295 366 632> 258 78<71 299 381 632> 428 78<94 293>
LayerCount: 2
Back
SplineSet
364.74609375 316.89453125 m 0xbe
 337.890625 316.89453125 335.44921875 299.31640625 335.44921875 299.31640625 c 1
 334.47265625 183.59375 333.984375 110.3515625 333.49609375 73.2421875 c 1
 339.35546875 71.77734375 357.421875 71.2890625 362.3046875 71.2890625 c 0
 404.78515625 71.2890625 428.22265625 103.515625 428.22265625 199.70703125 c 0
 428.22265625 282.71484375 398.92578125 316.89453125 364.74609375 316.89453125 c 0xbe
258.30078125 400.390625 m 2
 258.30078125 437.98828125 256.8359375 633.30078125 256.8359375 633.30078125 c 1
 294.921875 633.30078125 308.10546875 633.30078125 335.44921875 631.34765625 c 1
 336.42578125 548.33984375 336.42578125 468.26171875 336.42578125 380.859375 c 1
 346.19140625 384.27734375 356.93359375 389.6484375 373.046875 389.6484375 c 0xbe
 461.42578125 389.6484375 505.859375 336.9140625 505.859375 191.89453125 c 0
 505.859375 55.6640625 439.453125 -2.44140625 355.46875 -2.44140625 c 0
 309.08203125 -2.44140625 310.546875 0 253.90625 0 c 1
 253.90625 78.61328125 256.8359375 162.59765625 257.8125 304.6875 c 1
 203.61328125 304.19921875 151.85546875 300.78125 106.93359375 291.50390625 c 1
 106.93359375 124.0234375 107.91015625 88.37890625 107.91015625 0 c 1
 29.296875 0 l 1
 29.296875 631.8359375 l 1
 107.421875 632.8125 l 1
 106.93359375 365.72265625 l 1
 148.4375 375 203.61328125 378.90625 258.30078125 379.39453125 c 1xde
 258.30078125 385.7421875 258.30078125 392.08984375 258.30078125 398.4375 c 2
 258.30078125 400.390625 l 2
EndSplineSet
Fore
SplineSet
365 317 m 0xbe
 338 317 335 299 335 299 c 1
 334 183 333 110 333 73 c 1
 339 72 357 71 362 71 c 0
 404 71 428 104 428 200 c 0
 428 283 399 317 365 317 c 0xbe
258 400 m 2
 258 438 257 633 257 633 c 1
 295 633 308 633 335 631 c 1
 336 548 336 468 336 381 c 1
 346 384 357 390 373 390 c 0xbe
 461 390 506 337 506 192 c 0
 506 56 439 -2 355 -2 c 0
 309 -2 311 0 254 0 c 1
 254 79 257 163 258 305 c 1
 204 305 152 301 107 292 c 1
 107 125 108 88 108 0 c 1
 29 0 l 1
 29 632 l 1
 107 633 l 1
 107 366 l 1
 149 375 203 379 258 379 c 1xde
 258 385 258 392 258 398 c 2
 258 400 l 2
EndSplineSet
EndChar
StartChar: afii10060
Encoding: 1035 1035 747
Width: 520
VWidth: 0
Flags: HW
HStem: 0 3G<121 202 391 436> 317 73<204 348> 547 78<11 124 203 362>
VStem: 125 77<0 312 381 547> 381 78<12 284>
LayerCount: 2
Back
SplineSet
394.53125 -7.32421875 m 1x78
 388.18359375 13.18359375 381.34765625 32.71484375 381.34765625 67.3828125 c 1
 381.34765625 199.70703125 l 0
 381.34765625 282.71484375 349.609375 316.89453125 273.92578125 316.89453125 c 0x78
 247.0703125 316.89453125 202.1484375 312.5 202.1484375 312.5 c 1
 201.66015625 269.53125 201.66015625 221.19140625 201.66015625 174.8046875 c 0
 201.66015625 124.0234375 201.66015625 76.171875 201.66015625 41.9921875 c 0
 201.66015625 22.94921875 201.66015625 8.30078125 201.66015625 0 c 1
 192.87109375 0 184.08203125 0 174.8046875 0 c 0
 156.73828125 0 137.6953125 0 120.60546875 0 c 1
 120.60546875 94.7265625 125 197.265625 125 400.390625 c 0
 125 453.61328125 124.0234375 502.9296875 124.0234375 547.36328125 c 1
 10.7421875 547.36328125 l 1
 10.7421875 547.8515625 l 1
 10.7421875 625 l 1
 169.921875 625 l 1
 190.4296875 625.48828125 211.9140625 625.48828125 233.3984375 625.48828125 c 0
 276.3671875 625.48828125 320.3125 625 362.3046875 625 c 1
 362.3046875 547.36328125 l 1
 203.125 547.36328125 l 1
 203.125 529.296875 203.125 511.23046875 203.125 493.1640625 c 0
 203.125 457.03125 203.125 420.41015625 203.125 380.859375 c 1xb8
 241.2109375 387.6953125 251.46484375 389.6484375 282.2265625 389.6484375 c 0
 402.34375 389.6484375 458.984375 336.9140625 458.984375 191.89453125 c 0
 459.47265625 74.21875 l 1
 459.47265625 43.9453125 467.28515625 25.390625 473.14453125 11.23046875 c 1
 394.53125 -7.32421875 l 1x78
EndSplineSet
Fore
SplineSet
395 -7 m 1
 389 14 381 32 381 67 c 1
 381 200 l 0
 381 283 350 317 274 317 c 0
 247 317 202 312 202 312 c 1
 202 269 202 221 202 175 c 0
 202 124 202 76 202 42 c 0
 202 23 202 8 202 0 c 1
 193 0 184 0 175 0 c 0
 157 0 138 0 121 0 c 1
 121 95 125 197 125 400 c 0
 125 453 124 503 124 547 c 1
 11 547 l 1
 11 548 l 1
 11 625 l 1
 170 625 l 1
 191 625 212 625 233 625 c 0
 276 625 320 625 362 625 c 1
 362 547 l 1
 203 547 l 1
 203 529 203 511 203 493 c 0
 203 457 203 421 203 381 c 1
 241 388 251 390 282 390 c 0
 402 390 459 337 459 192 c 0
 459 74 l 1
 459 44 467 25 473 11 c 1
 395 -7 l 1
EndSplineSet
EndChar
StartChar: afii10145
Encoding: 1039 1039 751
Width: 520
Flags: HW
HStem: 0 73<125 214 288 372> 623 10G<47 125 373 449>
VStem: 46 79<73 633> 214 74<-146 0> 372 77<73 633>
LayerCount: 2
Back
SplineSet
428.22265625 0 m 1
 428.22265625 700.1953125 l 1
 511.23046875 700.1953125 l 1
 511.23046875 74.21875 l 1
 793.9453125 74.21875 l 1
 793.9453125 700.1953125 l 1
 876.953125 700.1953125 l 1
 876.953125 0 l 1
 688.96484375 0 l 1
 688.96484375 -181.15234375 l 1
 619.140625 -181.15234375 l 1
 619.140625 0 l 1
 428.22265625 0 l 1
EndSplineSet
Fore
SplineSet
125 73 m 1
 372 73 l 1
 373 633 l 1
 449 633 l 1
 449 77 l 1
 449 0 l 1
 288 0 l 0
 288 -146 l 1
 214 -146 l 1
 214 0 l 1
 162 0 98 0 46 -0 c 1
 47 633 l 1
 125 633 l 1
 125 73 l 1
EndSplineSet
EndChar
StartChar: afii10018
Encoding: 1041 1041 753
Width: 520
VWidth: 0
Flags: HW
HStem: -2 74<127 333> 312 74<130 334> 562 73<129 400>
VStem: 52 79<75 312 385 558> 387 78<125 265>
LayerCount: 2
Back
SplineSet
409.66796875 623.046875 m 9
 398.4375 550.29296875 l 17
 348.6328125 560.546875 291.50390625 561.5234375 226.07421875 561.5234375 c 0
 207.03125 561.5234375 187.01171875 561.5234375 166.015625 561.5234375 c 1
 145.01953125 561.5234375 139.16015625 560.546875 124.51171875 559.08203125 c 1
 125.9765625 541.015625 126.46484375 519.53125 126.46484375 496.58203125 c 0
 126.46484375 463.8671875 125.48828125 420.8984375 125.48828125 384.765625 c 1
 148.92578125 385.7421875 170.8984375 386.23046875 191.40625 386.23046875 c 0
 375 386.23046875 459.9609375 340.8203125 459.9609375 191.89453125 c 0
 459.9609375 82.03125 387.20703125 11.23046875 305.6640625 1.46484375 c 0
 286.62109375 -0.9765625 266.6015625 -2.44140625 247.55859375 -2.44140625 c 0
 206.0546875 -2.44140625 162.109375 1.46484375 109.375 1.46484375 c 2
 42.96875 1.46484375 l 1
 42.96875 96.19140625 47.36328125 198.73046875 47.36328125 401.85546875 c 0
 47.36328125 486.328125 45.8984375 565.4296875 41.50390625 627.44140625 c 1
 81.0546875 630.37109375 104.98046875 634.27734375 160.15625 634.27734375 c 1
 296.875 634.27734375 370.60546875 633.7890625 409.66796875 623.046875 c 9
233.88671875 312.98828125 m 0
 209.9609375 312.98828125 181.640625 312.01171875 145.99609375 312.01171875 c 2
 124.51171875 312.01171875 l 1
 123.53515625 196.2890625 123.046875 111.81640625 122.55859375 74.70703125 c 1
 175.29296875 74.70703125 194.82421875 71.2890625 231.4453125 71.2890625 c 0
 250.9765625 71.2890625 268.06640625 72.265625 285.15625 74.70703125 c 0
 336.9140625 81.0546875 382.32421875 129.39453125 382.32421875 199.70703125 c 0
 382.32421875 282.71484375 309.5703125 312.98828125 233.88671875 312.98828125 c 0
EndSplineSet
Fore
SplineSet
414 623 m 9
 403 550 l 17
 353 560 295 562 230 562 c 0
 211 562 191 562 170 562 c 1
 149 562 144 560 129 559 c 1
 130 541 131 520 131 497 c 0
 131 464 130 421 130 385 c 1
 153 386 175 386 196 386 c 0
 380 386 464 341 464 192 c 0
 464 82 392 11 310 1 c 0
 291 -1 271 -2 252 -2 c 0
 210 -2 167 1 114 1 c 2
 47 1 l 1
 47 96 52 199 52 402 c 0
 52 486 50 565 46 627 c 1
 86 630 110 634 165 634 c 1
 302 634 375 634 414 623 c 9
238 313 m 0
 214 313 186 312 150 312 c 2
 129 312 l 1
 128 196 127 112 127 75 c 1
 180 75 199 71 236 71 c 0
 256 71 273 73 290 75 c 0
 342 81 387 130 387 200 c 0
 387 283 314 313 238 313 c 0
EndSplineSet
EndChar
StartChar: afii10021
Encoding: 1044 1044 756
Width: 517
Flags: HW
HStem: -1 76<131 349> 559 75<205 348>
VStem: 11 76<-133 -3> 129 76<362 559> 348 77<74 559> 412 74<-136 -1>
LayerCount: 2
Back
SplineSet
750 398.4375 m 1xf8
 750 558.59375 l 1
 638.671875 558.59375 l 1
 630.859375 321.77734375 599.609375 189.94140625 558.59375 74.21875 c 1
 751.46484375 74.21875 l 1
 751.46484375 113.76953125 750 213.37890625 750 310.546875 c 2
 750 398.4375 l 1xf8
900.390625 -137.20703125 m 1xf4
 826.171875 -136.23046875 l 1xf4
 827.1484375 -1.46484375 l 1
 789.55078125 -1.46484375 485.83984375 -2.9296875 485.83984375 -2.9296875 c 1
 484.86328125 -56.640625 478.515625 -105.46875 462.40234375 -148.92578125 c 1
 394.53125 -131.8359375 l 1
 409.66796875 -89.84375 414.0625 -28.80859375 414.0625 26.3671875 c 0
 414.0625 42.96875 413.57421875 59.08203125 413.0859375 74.21875 c 1
 466.30859375 74.21875 l 1
 519.04296875 218.75 562.98828125 332.03125 562.98828125 598.6328125 c 0
 562.98828125 609.86328125 562.98828125 621.09375 562.98828125 632.8125 c 1
 679.6875 633.30078125 l 2
 696.2890625 633.30078125 712.40234375 633.30078125 727.5390625 633.30078125 c 0
 765.625 633.30078125 799.8046875 633.30078125 827.1484375 631.34765625 c 1
 827.1484375 74.21875 l 1xf8
 900.390625 74.21875 l 1
 900.390625 -137.20703125 l 1xf4
EndSplineSet
Fore
SplineSet
348 398 m 1xf8
 348 559 l 1
 205 559 l 1
 197 315 172 184 131 74 c 1
 349 74 l 1
 349 114 348 214 348 311 c 2
 348 398 l 1xf8
486 -137 m 1xf4
 412 -136 l 1xf4
 413 -1 l 1
 375 -1 87 -3 87 -3 c 1
 87 -5 87 -9 87 -11 c 0
 87 -63 96 -133 96 -133 c 1
 21 -141 l 1
 16 -97 11 -29 11 26 c 0
 11 43 10 59 10 74 c 1
 52 74 l 1
 105 219 129 332 129 599 c 0
 129 610 129 621 129 633 c 1
 280 633 l 2
 297 633 310 633 325 633 c 0
 363 633 398 633 425 631 c 1
 425 74 l 1xf8
 486 74 l 1
 486 -137 l 1xf4
EndSplineSet
EndChar
StartChar: afii10024
Encoding: 1046 1046 758
Width: 520
Flags: HW
HStem: -2 10G<-12 70 213 280 425 506> 300 72<165 213 280 327> 638 1G<40 87 213 280 407 454>
VStem: -12 77<2 70> 213 67<-2 300 372 639> 429 77<2 73>
CounterMasks: 1 1c
LayerCount: 2
Back
SplineSet
159.66796875 298.33984375 m 5
 148.92578125 273.274414062 137.288085938 246.907226562 124.755859375 219.23828125 c 132
 112.223632812 191.569335938 100.666992188 164.143554688 90.087890625 136.962890625 c 132
 79.5087890625 109.782226562 70.6376953125 83.5771484375 63.4765625 58.349609375 c 132
 56.3154296875 33.1220703125 52.5712890625 10.4169921875 52.24609375 -9.765625 c 5
 -23.4375 8.30078125 l 5
 -21.484375 23.2744140625 -18.1474609375 39.8759765625 -13.427734375 58.10546875 c 132
 -8.7080078125 76.3349609375 -3.0107421875 95.21484375 3.662109375 114.74609375 c 132
 10.3349609375 134.27734375 17.7412109375 154.052734375 25.87890625 174.072265625 c 132
 34.0166015625 194.091796875 42.236328125 213.541992188 50.537109375 232.421875 c 132
 58.837890625 251.301757812 67.138671875 269.287109375 75.439453125 286.376953125 c 132
 83.740234375 303.466796875 91.4716796875 318.84765625 98.6328125 332.51953125 c 5
 91.796875 361.165039062 84.0654296875 387.858398438 75.439453125 412.59765625 c 132
 66.8134765625 437.336914062 58.10546875 462.239257812 49.31640625 487.3046875 c 132
 40.52734375 512.370117188 31.4130859375 534.749023438 21.97265625 554.443359375 c 132
 12.5322265625 574.137695312 2.6044921875 590.657226562 -7.8125 604.00390625 c 5
 44.921875 642.08984375 l 5
 51.1064453125 638.834960938 57.7802734375 631.754882812 64.94140625 620.849609375 c 132
 72.1025390625 609.944335938 79.345703125 596.6796875 86.669921875 581.0546875 c 132
 93.994140625 565.4296875 101.318359375 548.014648438 108.642578125 528.80859375 c 132
 115.966796875 509.602539062 123.046875 490.153320312 129.8828125 470.458984375 c 132
 136.71875 450.764648438 143.229492188 431.315429688 149.4140625 412.109375 c 132
 155.598632812 392.903320312 161.295898438 375.48828125 166.50390625 359.86328125 c 5
 208.0078125 360.3515625 l 5
 208.0078125 638.671875 l 5
 279.78515625 638.671875 l 5
 279.78515625 360.3515625 l 5
 321.2890625 359.86328125 l 5
 326.171875 375.48828125 331.787109375 392.903320312 338.134765625 412.109375 c 132
 344.482421875 431.315429688 351.07421875 450.764648438 357.91015625 470.458984375 c 132
 364.74609375 490.153320312 371.826171875 509.602539062 379.150390625 528.80859375 c 132
 386.474609375 548.014648438 393.798828125 565.4296875 401.123046875 581.0546875 c 132
 408.447265625 596.6796875 415.608398438 609.944335938 422.607421875 620.849609375 c 132
 429.606445312 631.754882812 436.360351562 638.834960938 442.87109375 642.08984375 c 5
 495.60546875 604.00390625 l 5
 485.188476562 590.657226562 475.260742188 574.137695312 465.8203125 554.443359375 c 132
 456.379882812 534.749023438 447.265625 512.370117188 438.4765625 487.3046875 c 132
 429.6875 462.239257812 420.979492188 437.336914062 412.353515625 412.59765625 c 132
 403.727539062 387.858398438 395.99609375 361.165039062 389.16015625 332.51953125 c 5
 396.321289062 318.84765625 404.052734375 303.466796875 412.353515625 286.376953125 c 132
 420.654296875 269.287109375 428.955078125 251.301757812 437.255859375 232.421875 c 132
 445.556640625 213.541992188 453.776367188 194.091796875 461.9140625 174.072265625 c 132
 470.051757812 154.052734375 477.458007812 134.27734375 484.130859375 114.74609375 c 132
 490.803710938 95.21484375 496.500976562 76.3349609375 501.220703125 58.10546875 c 132
 505.940429688 39.8759765625 509.27734375 23.2744140625 511.23046875 8.30078125 c 5
 435.546875 -9.765625 l 5
 435.221679688 10.4169921875 431.477539062 33.1220703125 424.31640625 58.349609375 c 132
 417.155273438 83.5771484375 408.284179688 109.782226562 397.705078125 136.962890625 c 132
 387.125976562 164.143554688 375.569335938 191.569335938 363.037109375 219.23828125 c 132
 350.504882812 246.907226562 338.8671875 273.274414062 328.125 298.33984375 c 5
 279.78515625 297.8515625 l 5
 279.78515625 -2.44140625 l 5
 208.0078125 -2.44140625 l 5
 208.0078125 258.7890625 l 5
 208.0078125 297.8515625 l 5
 159.66796875 298.33984375 l 5
EndSplineSet
Fore
SplineSet
321 300 m 1
 280 300 l 1
 280 -2 l 1
 213 -2 l 1
 213 300 l 1
 171 300 l 1
 142 209 75 62 64 -3 c 1
 -12 2 l 1
 7 92 82 248 113 335 c 1
 79 453 58 536 -8 601 c 1
 52 647 l 1
 121 567 154 430 170 372 c 1
 213 372 l 1
 213 639 l 1
 280 639 l 1
 280 372 l 1
 322 372 l 1
 338 430 372 567 441 647 c 1
 502 601 l 1
 436 536 412 453 378 335 c 1
 409 246 494 88 506 2 c 1
 429 -3 l 1
 420 61 350 211 321 300 c 1
EndSplineSet
EndChar
StartChar: afii10025
Encoding: 1047 1047 759
Width: 520
Flags: HW
HStem: -3 74<118 317> 315 73<159 296> 572 74<124 310>
VStem: 353 78<422 533> 370 79<118 246>
LayerCount: 2
Back
SplineSet
172.36328125 389.16015625 m 17
 208.0078125 389.16015625 206.0546875 388.18359375 229.98046875 388.18359375 c 0
 322.75390625 388.18359375 367.1875 421.38671875 367.1875 475.5859375 c 0
 367.1875 540.0390625 307.6171875 571.77734375 242.1875 571.77734375 c 0
 166.015625 571.77734375 145.99609375 558.59375 91.796875 520.5078125 c 1
 45.8984375 579.1015625 l 17
 129.8828125 641.6015625 181.15234375 645.5078125 247.55859375 645.5078125 c 0
 345.703125 645.5078125 444.82421875 588.37890625 444.82421875 475.5859375 c 0
 444.82421875 416.9921875 416.015625 380.37109375 366.69921875 350.09765625 c 1
 420.8984375 324.21875 462.890625 271.97265625 462.890625 171.875 c 0
 462.890625 56.640625 365.234375 -2.9296875 244.62890625 -2.9296875 c 0
 203.125 -2.9296875 121.58203125 1.953125 37.59765625 56.640625 c 9
 78.61328125 124.0234375 l 1
 132.8125 85.9375 172.36328125 70.80078125 244.62890625 70.80078125 c 0
 332.51953125 70.80078125 383.7890625 122.0703125 383.7890625 173.828125 c 0
 383.7890625 258.7890625 309.08203125 314.94140625 230.95703125 314.94140625 c 0
 207.03125 314.94140625 208.984375 313.96484375 173.33984375 313.96484375 c 9
 172.36328125 389.16015625 l 17
EndSplineSet
Fore
SplineSet
158 389 m 17xe8
 194 389 192 388 216 388 c 0
 309 388 353 422 353 476 c 0
 353 540 293 572 228 572 c 0
 152 572 132 559 78 521 c 1
 32 579 l 17
 116 641 167 646 233 646 c 0
 331 646 431 589 431 476 c 0xf0
 431 417 402 380 353 350 c 1
 407 324 449 272 449 172 c 0
 449 57 351 -3 230 -3 c 0
 188 -3 107 2 23 57 c 9
 64 124 l 1
 118 86 158 71 230 71 c 0
 318 71 370 122 370 174 c 0
 370 259 295 315 217 315 c 0
 193 315 195 314 159 314 c 9
 158 389 l 17xe8
EndSplineSet
EndChar
StartChar: afii10026
Encoding: 1048 1048 760
Width: 517
VWidth: 0
Flags: HW
HStem: -3 10G<37 114 370 447> 624 8G<37 114 327 445>
VStem: 37 77<142 632> 366 77<-3 456 585 633>
LayerCount: 2
Back
SplineSet
367.1875 633.30078125 m 1
 444.82421875 632.8125 l 1
 444.82421875 606.93359375 445.3125 579.1015625 445.3125 551.26953125 c 0
 445.3125 438.96484375 443.359375 314.94140625 443.359375 204.58984375 c 0
 443.359375 125 444.3359375 52.24609375 447.265625 -2.9296875 c 1
 372.0703125 -2.9296875 l 1
 367.67578125 80.56640625 366.2109375 169.921875 366.2109375 260.7421875 c 0
 366.2109375 326.171875 366.69921875 392.578125 367.67578125 456.0546875 c 1
 310.546875 334.9609375 175.78125 88.37890625 114.2578125 -1.46484375 c 1
 36.62109375 -3.41796875 l 1
 36.62109375 631.8359375 l 1
 114.2578125 631.8359375 l 1
 114.2578125 557.6171875 113.76953125 384.27734375 113.76953125 241.2109375 c 2
 113.76953125 141.6015625 l 1
 212.40234375 313.96484375 287.59765625 458.984375 367.1875 633.30078125 c 1
EndSplineSet
Fore
SplineSet
367 633 m 1
 445 633 l 1
 445 607 445 579 445 551 c 0
 445 439 443 315 443 205 c 0
 443 125 444 52 447 -3 c 1
 372 -3 l 1
 368 80 366 170 366 261 c 0
 366 326 367 393 368 456 c 1
 311 335 176 89 114 -1 c 1
 37 -3 l 1
 37 632 l 1
 114 632 l 1
 114 558 114 384 114 241 c 2
 114 142 l 1
 213 314 287 459 367 633 c 1
EndSplineSet
EndChar
StartChar: afii10029
Encoding: 1051 1051 763
Width: 520
Flags: HW
HStem: -5 75<20 67> 559 75<212 390>
VStem: 135 77<390 559> 390 77<0 559>
LayerCount: 2
Back
SplineSet
104.4921875 -14.16015625 m 3
 71.2890625 -14.16015625 38.57421875 -13.671875 4.39453125 4.8828125 c 1
 26.85546875 78.125 l 1
 54.19921875 65.4296875 68.84765625 59.08203125 97.65625 59.08203125 c 3
 151.3671875 59.08203125 205.56640625 235.3515625 205.56640625 632.8125 c 1
 323.73046875 633.30078125 l 2
 340.33203125 633.30078125 366.69921875 633.30078125 381.8359375 633.30078125 c 0
 419.921875 633.30078125 454.1015625 633.30078125 481.4453125 631.34765625 c 1
 481.4453125 420.41015625 481.4453125 209.47265625 481.4453125 -1.46484375 c 1
 480.95703125 -1.46484375 480.95703125 -1.46484375 480.46875 -1.46484375 c 0
 463.37890625 -1.46484375 481.4453125 -0.48828125 402.34375 0 c 1
 402.83203125 101.5625 404.296875 162.109375 404.296875 310.546875 c 2
 404.296875 398.4375 l 1
 404.296875 558.59375 l 1
 282.71484375 558.59375 l 1
 273.92578125 356.4453125 256.8359375 -14.16015625 104.4921875 -14.16015625 c 3
EndSplineSet
Fore
SplineSet
15 -3 m 1
 21 71 l 1
 23 71 25 70 27 70 c 0
 94 70 135 200 135 633 c 1
 309 633 l 2
 326 633 352 633 367 633 c 0
 405 633 440 633 467 631 c 1
 467 420 467 211 467 0 c 1
 388 0 l 1
 388 102 390 163 390 311 c 2
 390 398 l 1
 390 559 l 1
 212 559 l 1
 202 337 201 -5 37 -5 c 0
 30 -5 23 -4 15 -3 c 1
EndSplineSet
EndChar
StartChar: afii10033
Encoding: 1055 1055 767
Width: 520
VWidth: 15
Flags: HW
HStem: -2 10G<47 124 374 450> 557 73<124 373>
VStem: 47 77<-2 557> 374 77<-2 557>
LayerCount: 2
Back
SplineSet
107.421875 557.12890625 m 1
 107.421875 -2.44140625 l 1
 30.2734375 -2.44140625 l 1
 28.80859375 630.859375 l 1
 356.4453125 630.37109375 l 1
 433.10546875 630.37109375 l 1
 433.59375 -2.44140625 l 1
 356.93359375 -2.44140625 l 1
 355.95703125 557.12890625 l 5
 107.421875 557.12890625 l 1
EndSplineSet
Fore
SplineSet
124 557 m 1
 124 -2 l 1
 47 -2 l 1
 45 631 l 1
 373 630 l 1
 450 630 l 1
 450 -2 l 1
 374 -2 l 1
 373 557 l 1
 124 557 l 1
EndSplineSet
EndChar
StartChar: afii10037
Encoding: 1059 1059 771
Width: 520
Flags: HW
HStem: -11 74<106 193> 631 10G<67 118 396 427>
VStem: 17 80<562 617> 400 77<567 622>
LayerCount: 2
Back
SplineSet
86.42578125 107.421875 m 1
 111.328125 81.0546875 135.7421875 63.4765625 154.78515625 63.4765625 c 0
 203.125 63.4765625 234.375 136.71875 244.62890625 157.71484375 c 1
 194.82421875 185.546875 140.625 230.95703125 21.97265625 614.74609375 c 1
 101.5625 639.16015625 l 1
 145.01953125 447.75390625 234.375 238.28125 274.90234375 234.375 c 0
 275.390625 234.375 l 1
 278.80859375 249.0234375 324.21875 378.90625 354.98046875 474.12109375 c 0
 385.7421875 569.3359375 396.97265625 616.2109375 404.78515625 646.484375 c 1
 481.93359375 629.8828125 l 1
 459.9609375 554.6875 434.08203125 473.14453125 405.2734375 383.7890625 c 0
 376.46484375 294.43359375 354.00390625 224.12109375 335.44921875 173.828125 c 0
 283.203125 31.73828125 215.33203125 -10.7421875 154.296875 -10.7421875 c 0
 106.93359375 -10.7421875 63.96484375 14.6484375 35.15625 39.55078125 c 1
 86.42578125 107.421875 l 1
EndSplineSet
Fore
SplineSet
82 107 m 1
 107 81 131 63 150 63 c 0
 198 63 230 137 240 158 c 1
 190 186 136 230 17 614 c 1
 97 641 l 1
 140 450 229 238 270 234 c 0
 271 234 l 1
 274 249 319 379 350 474 c 0
 381 569 392 618 400 648 c 1
 477 620 l 1
 455 545 429 473 400 384 c 0
 371 295 350 224 331 174 c 0
 279 32 210 -11 149 -11 c 0
 102 -11 59 15 30 40 c 1
 82 107 l 1
EndSplineSet
EndChar
StartChar: afii10038
Encoding: 1060 1060 772
Width: 517
VWidth: 0
Flags: HW
HStem: 0 10G<208 288> 43 76<137 208 288 358> 506 76<138 209 287 360> 628 10G<209 287>
VStem: 8 78<181 444> 209 78<1 42 120 506 586 638> 414 77<188 442>
LayerCount: 2
Back
SplineSet
212.40234375 83.0078125 m 5
 210.9375 83.0078125 208.984375 83.0078125 207.03125 83.0078125 c 0
 150.87890625 83.0078125 13.18359375 106.4453125 13.18359375 288.57421875 c 3
 13.18359375 524.90234375 124.0234375 549.31640625 212.40234375 552.24609375 c 5
 212.40234375 565.4296875 212.40234375 579.1015625 212.40234375 592.7734375 c 6
 212.40234375 638.18359375 l 5
 290.52734375 638.18359375 l 5
 290.52734375 567.3828125 l 5
 290.52734375 555.6640625 l 5
 359.375 554.19921875 490.72265625 539.55078125 490.72265625 307.12890625 c 3
 490.72265625 129.39453125 372.0703125 82.51953125 291.50390625 82.03125 c 5
 291.50390625 69.3359375 291.9921875 59.5703125 291.9921875 49.8046875 c 4
 291.9921875 36.1328125 291.50390625 22.4609375 290.52734375 0 c 5
 211.42578125 0.48828125 l 5
 212.40234375 15.625 212.40234375 23.92578125 212.40234375 31.25 c 4
 212.40234375 38.57421875 212.40234375 45.41015625 212.40234375 59.08203125 c 4
 212.40234375 66.40625 212.40234375 74.21875 212.40234375 83.0078125 c 5
291.50390625 162.109375 m 5
 293.9453125 162.109375 295.8984375 162.109375 298.33984375 162.109375 c 0
 351.07421875 162.109375 413.57421875 180.6640625 413.57421875 311.5234375 c 3
 413.57421875 454.58984375 364.2578125 477.05078125 290.52734375 480.46875 c 5
 291.015625 389.6484375 291.50390625 312.01171875 291.50390625 186.5234375 c 6
 291.50390625 162.109375 l 5
211.9140625 163.57421875 m 5
 211.9140625 285.64453125 212.40234375 381.34765625 212.40234375 476.07421875 c 5
 158.203125 472.16796875 90.8203125 483.88671875 90.8203125 295.41015625 c 3
 90.8203125 170.8984375 172.36328125 163.57421875 207.03125 163.57421875 c 0
 208.984375 163.57421875 210.44921875 163.57421875 211.9140625 163.57421875 c 5
EndSplineSet
Fore
SplineSet
209 43 m 1
 208 43 206 43 204 43 c 0
 148 43 8 76 8 291 c 3
 8 530 105 580 209 583 c 1
 209 638 l 1
 287 638 l 1
 287 611 287 613 287 586 c 1
 356 585 491 555 491 309 c 3
 491 87 369 42 288 42 c 1
 288 29 288 23 288 22 c 0
 288 20 288 22 287 0 c 1
 208 0 l 1
 209 16 209 19 209 21 c 0
 209 23 209 27 209 43 c 1
288 118 m 1
 348 118 414 150 414 313 c 3
 414 476 349 508 287 511 c 1
 287 420 288 272 288 147 c 2
 288 118 l 1
208 120 m 1
 208 242 209 411 209 506 c 1
 141 504 86 482 86 297 c 3
 86 129 168 120 208 120 c 1
EndSplineSet
EndChar
StartChar: afii10040
Encoding: 1062 1062 774
Width: 517
Flags: HW
HStem: 0 73<107 340> 623 10G<30 107 341 418>
VStem: 29 79<73 633> 340 77<77 633> 417 72<-127 0>
LayerCount: 2
Back
SplineSet
107.421875 73.2421875 m 1xe8
 332.51953125 73.2421875 l 1
 333.49609375 632.8125 l 1
 410.15625 632.8125 l 1
 409.66796875 77.1484375 l 1xf0
 482.421875 77.1484375 l 1
 481.93359375 62.5 481.4453125 46.38671875 481.4453125 29.78515625 c 0
 481.4453125 -25.390625 485.3515625 -86.9140625 500.9765625 -128.90625 c 1
 433.10546875 -145.99609375 l 1
 416.9921875 -102.5390625 410.64453125 -53.7109375 409.66796875 0 c 1
 333.0078125 0 l 1
 28.80859375 -0.48828125 l 1
 30.2734375 632.8125 l 1
 107.421875 632.8125 l 1
 107.421875 73.2421875 l 1xe8
EndSplineSet
Fore
SplineSet
107 73 m 1xe8
 340 73 l 1
 341 633 l 1
 418 633 l 1
 417 77 l 1xf0
 490 77 l 1
 490 62 489 47 489 30 c 0
 489 -25 493 -87 509 -129 c 1
 441 -146 l 1
 425 -103 418 -54 417 0 c 1
 341 0 l 1
 29 -0 l 1
 30 633 l 1
 107 633 l 1
 107 73 l 1xe8
EndSplineSet
EndChar
StartChar: afii10041
Encoding: 1063 1063 775
Width: 520
Flags: HW
HStem: 0 10G<382 459> 219 75<168 379> 623 10G<30 109 383 459>
VStem: 30 77<393 633> 382 77<0 238 308 633>
LayerCount: 2
Back
SplineSet
420.41015625 632.8125 m 1
 420.41015625 421.875 419.921875 210.9375 419.921875 0 c 1
 343.26171875 0 l 1
 342.28515625 238.28125 l 1
 291.9921875 222.65625 268.5546875 219.23828125 232.421875 219.23828125 c 0
 37.109375 219.23828125 30.2734375 394.04296875 30.2734375 579.58984375 c 0
 30.2734375 593.75 30.2734375 607.91015625 30.2734375 622.0703125 c 0
 30.2734375 625.48828125 30.2734375 629.39453125 30.2734375 632.8125 c 1
 107.421875 632.8125 l 1
 110.3515625 429.19921875 98.6328125 293.9453125 242.1875 293.9453125 c 0
 272.4609375 293.9453125 296.875 300.29296875 342.7734375 312.98828125 c 1
 343.75 632.8125 l 1
 420.41015625 632.8125 l 1
EndSplineSet
Fore
SplineSet
459 633 m 1
 459 422 459 211 459 0 c 1
 382 0 l 1
 381 238 l 1
 331 222 271 219 235 219 c 0
 40 219 30 394 30 580 c 0
 30 594 30 608 30 622 c 0
 30 625 30 630 30 633 c 1
 107 633 l 1
 110 429 101 294 245 294 c 0
 275 294 336 300 382 313 c 1
 383 633 l 1
 459 633 l 1
EndSplineSet
EndChar
StartChar: afii10042
Encoding: 1064 1064 776
Width: 517
Flags: HW
HStem: 0 73<93 209 285 402> 623 10G<18 93 210 286 403 479>
VStem: 17 76<73 633> 209 76<73 633> 402 76<73 633>
CounterMasks: 1 38
LayerCount: 2
Back
SplineSet
105.95703125 73.2421875 m 5
 202.1484375 73.2421875 l 5
 202.63671875 632.8125 l 5
 277.83203125 632.8125 l 5
 277.34375 73.2421875 l 5
 363.76953125 73.2421875 l 5
 364.74609375 632.8125 l 5
 439.94140625 632.8125 l 5
 439.453125 0 l 5
 362.79296875 0 l 5
 28.80859375 -0.48828125 l 5
 30.2734375 632.8125 l 5
 105.95703125 632.8125 l 5
 105.95703125 73.2421875 l 5
EndSplineSet
Fore
SplineSet
93 73 m 1
 209 73 l 1
 210 633 l 1
 286 633 l 1
 285 73 l 1
 402 73 l 1
 403 633 l 1
 479 633 l 1
 478 0 l 1
 402 0 l 1
 17 -0 l 1
 18 633 l 1
 93 633 l 1
 93 73 l 1
EndSplineSet
EndChar
StartChar: afii10043
Encoding: 1065 1065 777
Width: 520
Flags: HW
HStem: 0 73<92 193 269 372> 623 10G<18 92 194 270 373 448>
VStem: 16 76<73 633> 193 76<73 633> 372 76<77 633> 429 69<-127 0>
LayerCount: 2
Back
SplineSet
105.95703125 73.2421875 m 1xf4
 199.21875 73.2421875 l 1
 199.70703125 632.8125 l 1
 274.90234375 632.8125 l 1
 274.4140625 73.2421875 l 1
 357.91015625 73.2421875 l 1
 358.88671875 632.8125 l 1
 434.08203125 632.8125 l 1
 433.59375 77.1484375 l 5xf8
 498.53515625 77.1484375 l 5
 498.046875 63.96484375 498.046875 50.29296875 498.046875 35.64453125 c 0
 498.046875 -21.484375 501.46484375 -86.9140625 508.7890625 -127.9296875 c 5
 439.453125 -138.18359375 l 5
 431.640625 -90.8203125 429.19921875 -53.7109375 428.22265625 0 c 5
 358.3984375 0 l 5
 28.80859375 -0.48828125 l 1
 30.2734375 632.8125 l 1
 105.95703125 632.8125 l 1
 105.95703125 73.2421875 l 1xf4
EndSplineSet
Fore
SplineSet
92 73 m 1xf4
 193 73 l 1
 194 633 l 1
 270 633 l 1
 269 73 l 1
 372 73 l 1
 373 633 l 1
 448 633 l 1
 448 77 l 1xf8
 499 77 l 1
 499 77 499 39 499 18 c 0
 499 -39 507 -88 517 -129 c 1
 449 -143 l 1
 439 -106 429 -67 429 0 c 1
 373 0 l 1
 16 -0 l 1
 18 633 l 1
 92 633 l 1
 92 73 l 1xf4
EndSplineSet
EndChar
StartChar: afii10044
Encoding: 1066 1066 778
Width: 520
VWidth: 0
Flags: HW
HStem: -2 74<179 361> 317 73<183 357> 556 77<11 103>
VStem: 104 78<73 307 381 556> 406 78<114 270>
LayerCount: 2
Back
SplineSet
273.92578125 316.89453125 m 0xbc
 247.0703125 316.89453125 202.1484375 312.5 202.1484375 312.5 c 1xdc
 201.171875 196.77734375 200.68359375 110.3515625 200.1953125 73.2421875 c 1
 252.9296875 73.2421875 234.86328125 71.2890625 271.484375 71.2890625 c 0
 359.375 71.2890625 406.25 103.515625 406.25 199.70703125 c 0
 406.25 282.71484375 349.609375 316.89453125 273.92578125 316.89453125 c 0xbc
202.63671875 632.8125 m 5
 203.125 593.75 203.125 555.17578125 203.125 516.11328125 c 0
 203.125 472.16796875 203.125 427.24609375 203.125 380.859375 c 1xdc
 241.2109375 387.6953125 251.46484375 389.6484375 282.2265625 389.6484375 c 0xbc
 402.34375 389.6484375 483.88671875 336.9140625 483.88671875 191.89453125 c 0
 483.88671875 55.6640625 408.69140625 -2.44140625 287.59765625 -2.44140625 c 0
 241.2109375 -2.44140625 177.24609375 0 120.60546875 0 c 1
 120.60546875 94.7265625 125 197.265625 125 400.390625 c 0
 125 453.61328125 124.0234375 510.7421875 124.0234375 555.6640625 c 5
 10.7421875 555.6640625 l 5
 10.7421875 632.8125 l 5
 169.921875 632.8125 l 6
 177.24609375 632.8125 187.5 632.8125 202.63671875 632.8125 c 5
EndSplineSet
Fore
SplineSet
271 317 m 0
 244 317 181 307 181 307 c 1
 180 191 179 110 179 73 c 1
 232 73 235 71 272 71 c 0
 360 71 406 104 406 200 c 0
 406 283 347 317 271 317 c 0
182 633 m 1
 182 594 182 555 182 516 c 0
 182 472 182 427 182 381 c 1
 220 388 248 390 279 390 c 0
 399 390 484 337 484 192 c 0
 484 56 409 -2 288 -2 c 0
 242 -2 157 0 100 0 c 1
 100 95 104 197 104 400 c 0
 104 453 103 511 103 556 c 1
 11 556 l 1
 11 633 l 1
 149 633 l 2
 156 633 167 633 182 633 c 1
EndSplineSet
EndChar
